<?xml version="1.0" encoding="UTF-8" standalone="no"?>
<svg
   width="241.63474"
   height="256.96042"
   viewBox="0 0 1.8122605 1.9272031"
   stroke="#0000ff"
   stroke-width="0.008"
   fill="none"
   version="1.1"
   id="svg24"
   sodipodi:docname="62.svg"
   inkscape:version="1.4.4 (dcaf3e7, 2026-05-05)"
   xmlns:inkscape="http://www.inkscape.org/namespaces/inkscape"
   xmlns:sodipodi="http://sodipodi.sourceforge.net/DTD/sodipodi-0.dtd"
   xmlns="http://www.w3.org/2000/svg"
   xmlns:svg="http://www.w3.org/2000/svg">
  <defs
     id="defs24" />
  <sodipodi:namedview
     id="namedview24"
     pagecolor="#ffffff"
     bordercolor="#666666"
     borderopacity="1.0"
     inkscape:showpageshadow="2"
     inkscape:pageopacity="0.0"
     inkscape:pagecheckerboard="0"
     inkscape:deskcolor="#d1d1d1"
     inkscape:zoom="1.9575"
     inkscape:cx="57.215837"
     inkscape:cy="120.56194"
     inkscape:window-width="1920"
     inkscape:window-height="1001"
     inkscape:window-x="-9"
     inkscape:window-y="-9"
     inkscape:window-maximized="1"
     inkscape:current-layer="svg24" />
  <path
     d="M 1.5652985,0.9495845 A 0.687967,0.687967 0 0 1 1.4298225,0.6878635"
     id="path1" />
  <path
     d="m 1.4298225,0.6878635 a 0.090573,0.090573 0 0 0 0.064044,-0.064044"
     id="path2" />
  <path
     d="m 1.4938665,0.6238195 a 0.187769,0.187769 0 0 1 0.071432,0.325765"
     id="path3" />
  <path
     d="M 1.4063805,0.6472615 A 0.687967,0.687967 0 0 1 1.2474615,0.3990745"
     id="path4" />
  <path
     d="m 1.2474615,0.3990745 a 0.187769,0.187769 0 0 1 0.246405,0.224745"
     id="path5" />
  <path
     d="m 1.4938665,0.6238195 a 0.090573,0.090573 0 0 0 -0.087486,0.023442"
     id="path6" />
  <path
     d="m 1.5652985,0.9495845 a 0.59077,0.59077 0 1 1 -1.024944,0.224745"
     id="path7" />
  <path
     d="m 0.5403545,1.1743295 a 1.141281,1.141281 0 0 0 1.024944,-0.224745"
     id="path8" />
  <path
     d="M 1.4298225,0.6878635 A 0.024269,0.024269 0 0 1 1.4063805,0.6472615"
     id="path9" />
  <path
     d="m 1.4063805,0.6472615 a 0.090573,0.090573 0 0 1 0.023442,0.040602"
     id="path10" />
  <path
     d="m 1.2474615,0.3990745 a 1.141281,1.141281 0 0 0 -0.707107,0.775255"
     id="path11" />
  <path
     d="m 0.5403545,1.1743295 a 0.59077,0.59077 0 1 1 0.707107,-0.775255"
     id="path12" />
  <path
     d="m 1.4917965,0.6315465 0.00414,-0.015455"
     stroke-width="0.024"
     stroke="#ffffff"
     id="path13" />
  <path
     d="m 1.4917965,0.6315465 0.00414,-0.015455"
     stroke-width="0.008"
     stroke="#0000ff"
     id="path14" />
  <path
     d="m 1.5714505,0.9444705 -0.012304,0.010228"
     stroke-width="0.024"
     stroke="#ffffff"
     id="path15" />
  <path
     d="m 1.5714505,0.9444705 -0.012304,0.010228"
     stroke-width="0.008"
     stroke="#0000ff"
     id="path16" />
  <path
     d="m 0.5424255,1.1666025 -0.004141,0.015454"
     stroke-width="0.024"
     stroke="#ffffff"
     id="path17" />
  <path
     d="m 0.5424255,1.1666025 -0.004141,0.015454"
     stroke-width="0.008"
     stroke="#0000ff"
     id="path18" />
  <path
     d="m 1.2446905,0.3915695 0.00554,0.01501"
     stroke-width="0.024"
     stroke="#ffffff"
     id="path19" />
  <path
     d="m 1.2446905,0.3915695 0.00554,0.01501"
     stroke-width="0.008"
     stroke="#0000ff"
     id="path20" />
  <path
     d="m 1.4007235,0.6529175 0.011314,-0.011313"
     stroke-width="0.024"
     stroke="#ffffff"
     id="path21" />
  <path
     d="m 1.4007235,0.6529175 0.011314,-0.011313"
     stroke-width="0.008"
     stroke="#0000ff"
     id="path22" />
  <path
     d="m 1.4277515,0.6801365 0.00414,0.015455"
     stroke-width="0.024"
     stroke="#ffffff"
     id="path23" />
  <path
     d="m 1.4277515,0.6801365 0.00414,0.015455"
     stroke-width="0.008"
     stroke="#0000ff"
     id="path24" />
</svg>
