<svg xmlns="http://www.w3.org/2000/svg" width="400" height="400" viewBox="0 0 3 3" stroke="blue" stroke-width="0.008" fill="none">
<path d="M 1.890969 1.275255 A 0.687967 0.687967 0 0 1 1.755493 1.013534"/>
<path d="M 1.755493 1.013534 A 0.090573 0.090573 0 0 0 1.819537 0.949490"/>
<path d="M 1.819537 0.949490 A 0.187769 0.187769 0 0 1 1.890969 1.275255"/>
<path d="M 1.732051 0.972932 A 0.687967 0.687967 0 0 1 1.573132 0.724745"/>
<path d="M 1.573132 0.724745 A 0.187769 0.187769 0 0 1 1.819537 0.949490"/>
<path d="M 1.819537 0.949490 A 0.090573 0.090573 0 0 0 1.732051 0.972932"/>
<path d="M 1.890969 1.275255 A 0.590770 0.590770 0 1 1 0.866025 1.500000"/>
<path d="M 0.866025 1.500000 A 1.141281 1.141281 0 0 0 1.890969 1.275255"/>
<path d="M 1.755493 1.013534 A 0.024269 0.024269 0 0 1 1.732051 0.972932"/>
<path d="M 1.732051 0.972932 A 0.090573 0.090573 0 0 1 1.755493 1.013534"/>
<path d="M 1.573132 0.724745 A 1.141281 1.141281 0 0 0 0.866025 1.500000"/>
<path d="M 0.866025 1.500000 A 0.590770 0.590770 0 1 1 1.573132 0.724745"/>
</svg>
