<svg xmlns="http://www.w3.org/2000/svg" width="400" height="400" viewBox="0 0 3 3" stroke="blue" stroke-width="0.008000" fill="none">
<path d="M 1.932853 1.204264 A 0.059667 0.059667 0 0 1 1.917160 1.277869"/>
<path d="M 1.917160 1.277869 A 0.090306 0.090306 0 0 1 1.897801 1.210532"/>
<path d="M 1.897801 1.210532 A 0.061157 0.061157 0 0 0 1.932853 1.204264"/>
<path d="M 1.732051 1.267949 A 0.240237 0.240237 0 0 1 1.964102 0.866025"/>
<path d="M 1.964102 0.866025 A 1.091565 1.091565 0 0 0 1.927462 1.183334"/>
<path d="M 1.927462 1.183334 A 0.030860 0.030860 0 0 0 1.897801 1.210532"/>
<path d="M 1.897801 1.210532 A 0.200841 0.200841 0 0 0 1.732051 1.267949"/>
<path d="M 1.932853 1.204264 A 0.049468 0.049468 0 0 1 1.927462 1.183334"/>
<path d="M 1.927462 1.183334 A 0.011074 0.011074 0 0 1 1.932853 1.204264"/>
<path d="M 2.598076 1.500000 A 0.517638 0.517638 0 1 1 1.732051 1.267949"/>
<path d="M 1.732051 1.267949 A 0.138701 0.138701 0 0 0 1.917160 1.277869"/>
<path d="M 1.917160 1.277869 A 0.656339 0.656339 0 0 0 2.598076 1.500000"/>
<path d="M 2.598076 1.500000 A 0.896575 0.896575 0 0 0 1.964102 0.866025"/>
<path d="M 1.964102 0.866025 A 0.517638 0.517638 0 1 1 2.598076 1.500000"/>
<path d="M 1.896856 1.218475 L 1.898747 1.202588" stroke-width="0.024000" stroke="white"/>
<path d="M 1.896856 1.218475 L 1.898747 1.202588" stroke-width="0.008000" stroke="blue"/>
<path d="M 1.925729 1.207903 L 1.939977 1.200624" stroke-width="0.024000" stroke="white"/>
<path d="M 1.925729 1.207903 L 1.939977 1.200624" stroke-width="0.008000" stroke="blue"/>
<path d="M 1.927207 1.175338 L 1.927717 1.191330" stroke-width="0.024000" stroke="white"/>
<path d="M 1.927207 1.175338 L 1.927717 1.191330" stroke-width="0.008000" stroke="blue"/>
<path d="M 1.910931 1.282889 L 1.923389 1.272849" stroke-width="0.024000" stroke="white"/>
<path d="M 1.910931 1.282889 L 1.923389 1.272849" stroke-width="0.008000" stroke="blue"/>
<path d="M 2.590349 1.502071 L 2.605804 1.497929" stroke-width="0.024000" stroke="white"/>
<path d="M 2.590349 1.502071 L 2.605804 1.497929" stroke-width="0.008000" stroke="blue"/>
<path d="M 1.956374 0.863955 L 1.971829 0.868096" stroke-width="0.024000" stroke="white"/>
<path d="M 1.956374 0.863955 L 1.971829 0.868096" stroke-width="0.008000" stroke="blue"/>
<path d="M 1.737708 1.262292 L 1.726394 1.273606" stroke-width="0.024000" stroke="white"/>
<path d="M 1.737708 1.262292 L 1.726394 1.273606" stroke-width="0.008000" stroke="blue"/>
</svg>
