<?xml version="1.0" encoding="UTF-8" standalone="no"?>
<svg
   width="400"
   height="400"
   viewBox="0 0 3 3"
   stroke="blue"
   stroke-width="0.008000"
   fill="none"
   version="1.1"
   id="svg12"
   sodipodi:docname="1.svg"
   inkscape:version="1.4.4 (dcaf3e7, 2026-05-05)"
   xmlns:inkscape="http://www.inkscape.org/namespaces/inkscape"
   xmlns:sodipodi="http://sodipodi.sourceforge.net/DTD/sodipodi-0.dtd"
   xmlns="http://www.w3.org/2000/svg"
   xmlns:svg="http://www.w3.org/2000/svg">
  <defs
     id="defs12" />
  <sodipodi:namedview
     id="namedview12"
     pagecolor="#ffffff"
     bordercolor="#666666"
     borderopacity="1.0"
     inkscape:showpageshadow="2"
     inkscape:pageopacity="0.0"
     inkscape:pagecheckerboard="0"
     inkscape:deskcolor="#d1d1d1"
     inkscape:zoom="1.3841615"
     inkscape:cx="1.4449181"
     inkscape:cy="121.01189"
     inkscape:window-width="1920"
     inkscape:window-height="1001"
     inkscape:window-x="-9"
     inkscape:window-y="-9"
     inkscape:window-maximized="1"
     inkscape:current-layer="svg12" />
  <path
     d="M 1.964102 0.866025 A 0.896575 0.896575 0 0 1 1.732051 1.267949"
     id="path1" />
  <path
     d="M 1.732051 1.267949 A 0.240237 0.240237 0 0 1 1.964102 0.866025"
     id="path2" />
  <path
     d="M 2.598076 1.500000 A 0.517638 0.517638 0 1 1 1.732051 1.267949"
     id="path3" />
  <path
     d="M 1.732051 1.267949 A 0.896575 0.896575 0 0 0 2.598076 1.500000"
     id="path4" />
  <path
     d="M 1.964102 0.866025 A 0.517638 0.517638 0 1 1 2.598076 1.500000"
     id="path5" />
  <path
     d="M 2.598076 1.500000 A 0.896575 0.896575 0 0 0 1.964102 0.866025"
     id="path6" />
  <path
     d="M 1.737708 1.262292 L 1.726394 1.273606"
     stroke-width="0.024000"
     stroke="white"
     id="path7" />
  <path
     d="M 1.737708 1.262292 L 1.726394 1.273606"
     stroke-width="0.008000"
     stroke="blue"
     id="path8" />
  <path
     d="M 1.956374 0.863955 L 1.971829 0.868096"
     stroke-width="0.024000"
     stroke="white"
     id="path9" />
  <path
     d="M 1.956374 0.863955 L 1.971829 0.868096"
     stroke-width="0.008000"
     stroke="blue"
     id="path10" />
  <path
     d="M 2.590349 1.502071 L 2.605804 1.497929"
     stroke-width="0.024000"
     stroke="white"
     id="path11" />
  <path
     d="M 2.590349 1.502071 L 2.605804 1.497929"
     stroke-width="0.008000"
     stroke="blue"
     id="path12" />
</svg>
