<svg xmlns="http://www.w3.org/2000/svg" width="400" height="400" viewBox="0 0 3 3" stroke="blue" stroke-width="0.008000" fill="none">
<path d="M 1.896519 0.850690 A 0.061969 0.061969 0 0 1 1.943592 0.932221"/>
<path d="M 1.943592 0.932221 A 0.072377 0.072377 0 0 1 1.896519 0.850690"/>
<path d="M 1.983582 1.041564 A 0.091482 0.091482 0 0 1 1.943592 0.932221"/>
<path d="M 1.943592 0.932221 A 0.075463 0.075463 0 0 1 1.983582 1.041564"/>
<path d="M 1.896519 0.850690 A 0.091482 0.091482 0 0 1 1.821821 0.761386"/>
<path d="M 1.821821 0.761386 A 0.075463 0.075463 0 0 1 1.896519 0.850690"/>
<path d="M 1.996157 1.288203 A 0.224846 0.224846 0 0 1 1.983582 1.041564"/>
<path d="M 1.983582 1.041564 A 0.147755 0.147755 0 0 1 1.996157 1.288203"/>
<path d="M 1.614513 0.627176 A 0.147755 0.147755 0 0 1 1.821821 0.761386"/>
<path d="M 1.821821 0.761386 A 0.224846 0.224846 0 0 1 1.614513 0.627176"/>
<path d="M 1.996157 1.288203 A 0.637561 0.637561 0 1 1 0.866025 1.500000"/>
<path d="M 0.866025 1.500000 A 1.329823 1.329823 0 0 0 1.996157 1.288203"/>
<path d="M 1.614513 0.627176 A 1.329823 1.329823 0 0 0 0.866025 1.500000"/>
<path d="M 0.866025 1.500000 A 0.637561 0.637561 0 1 1 1.614513 0.627176"/>
<path d="M 1.946253 0.924677 L 1.940931 0.939766" stroke-width="0.024000" stroke="white"/>
<path d="M 1.946253 0.924677 L 1.940931 0.939766" stroke-width="0.008000" stroke="blue"/>
<path d="M 1.895052 0.858554 L 1.897987 0.842825" stroke-width="0.024000" stroke="white"/>
<path d="M 1.895052 0.858554 L 1.897987 0.842825" stroke-width="0.008000" stroke="blue"/>
<path d="M 1.821767 0.753386 L 1.821876 0.769386" stroke-width="0.024000" stroke="white"/>
<path d="M 1.821767 0.753386 L 1.821876 0.769386" stroke-width="0.008000" stroke="blue"/>
<path d="M 1.617737 0.634497 L 1.611288 0.619854" stroke-width="0.024000" stroke="white"/>
<path d="M 1.617737 0.634497 L 1.611288 0.619854" stroke-width="0.008000" stroke="blue"/>
<path d="M 0.863955 1.507727 L 0.868096 1.492273" stroke-width="0.024000" stroke="white"/>
<path d="M 0.863955 1.507727 L 0.868096 1.492273" stroke-width="0.008000" stroke="blue"/>
<path d="M 1.989704 1.292931 L 2.002610 1.283475" stroke-width="0.024000" stroke="white"/>
<path d="M 1.989704 1.292931 L 2.002610 1.283475" stroke-width="0.008000" stroke="blue"/>
<path d="M 1.987629 1.034663 L 1.979535 1.048464" stroke-width="0.024000" stroke="white"/>
<path d="M 1.987629 1.034663 L 1.979535 1.048464" stroke-width="0.008000" stroke="blue"/>
</svg>
