<svg xmlns="http://www.w3.org/2000/svg" width="400" height="400" viewBox="0 0 3 3" stroke="blue" stroke-width="0.008000" fill="none">
<path d="M 1.496482 0.952735 A 0.717637 0.717637 0 0 1 1.558655 0.822005"/>
<path d="M 1.558655 0.822005 A 0.130629 0.130629 0 0 0 1.639809 0.840233"/>
<path d="M 1.639809 0.840233 A 0.157289 0.157289 0 0 1 1.547568 1.000000"/>
<path d="M 1.547568 1.000000 A 0.088588 0.088588 0 0 0 1.496482 0.952735"/>
<path d="M 1.513805 1.281754 A 0.207974 0.207974 0 0 1 1.475393 0.991742"/>
<path d="M 1.475393 0.991742 A 0.071309 0.071309 0 0 0 1.547568 1.000000"/>
<path d="M 1.547568 1.000000 A 0.276062 0.276062 0 0 1 1.513805 1.281754"/>
<path d="M 1.496482 0.952735 A 0.145723 0.145723 0 0 1 1.475393 0.991742"/>
<path d="M 1.475393 0.991742 A 0.022433 0.022433 0 0 1 1.496482 0.952735"/>
<path d="M 1.591216 0.766227 A 0.220519 0.220519 0 0 1 1.866934 0.670116"/>
<path d="M 1.866934 0.670116 A 0.276062 0.276062 0 0 1 1.639809 0.840233"/>
<path d="M 1.639809 0.840233 A 0.096241 0.096241 0 0 0 1.591216 0.766227"/>
<path d="M 1.558655 0.822005 A 0.018427 0.018427 0 0 1 1.563075 0.788550"/>
<path d="M 1.563075 0.788550 A 0.041982 0.041982 0 0 1 1.558655 0.822005"/>
<path d="M 2.598076 1.500000 A 0.617292 0.617292 0 1 1 1.513805 1.281754"/>
<path d="M 1.513805 1.281754 A 1.244584 1.244584 0 0 0 2.598076 1.500000"/>
<path d="M 1.591216 0.766227 A 0.047429 0.047429 0 0 1 1.563075 0.788550"/>
<path d="M 1.563075 0.788550 A 0.019405 0.019405 0 0 1 1.591216 0.766227"/>
<path d="M 2.598076 1.500000 A 1.244584 1.244584 0 0 0 1.866934 0.670116"/>
<path d="M 1.866934 0.670116 A 0.617292 0.617292 0 1 1 2.598076 1.500000"/>
<path d="M 1.554871 0.996734 L 1.540265 1.003266" stroke-width="0.024000" stroke="white"/>
<path d="M 1.554871 0.996734 L 1.540265 1.003266" stroke-width="0.008000" stroke="blue"/>
<path d="M 1.504017 0.955424 L 1.488948 0.950045" stroke-width="0.024000" stroke="white"/>
<path d="M 1.504017 0.955424 L 1.488948 0.950045" stroke-width="0.008000" stroke="blue"/>
<path d="M 1.470562 0.998119 L 1.480224 0.985366" stroke-width="0.024000" stroke="white"/>
<path d="M 1.470562 0.998119 L 1.480224 0.985366" stroke-width="0.008000" stroke="blue"/>
<path d="M 1.647767 0.839410 L 1.631852 0.841056" stroke-width="0.024000" stroke="white"/>
<path d="M 1.647767 0.839410 L 1.631852 0.841056" stroke-width="0.008000" stroke="blue"/>
<path d="M 1.598190 0.770145 L 1.584241 0.762309" stroke-width="0.024000" stroke="white"/>
<path d="M 1.598190 0.770145 L 1.584241 0.762309" stroke-width="0.008000" stroke="blue"/>
<path d="M 1.555391 0.790778 L 1.570758 0.786322" stroke-width="0.024000" stroke="white"/>
<path d="M 1.555391 0.790778 L 1.570758 0.786322" stroke-width="0.008000" stroke="blue"/>
<path d="M 1.562802 0.815164 L 1.554508 0.828846" stroke-width="0.024000" stroke="white"/>
<path d="M 1.562802 0.815164 L 1.554508 0.828846" stroke-width="0.008000" stroke="blue"/>
<path d="M 1.508906 1.288079 L 1.518704 1.275430" stroke-width="0.024000" stroke="white"/>
<path d="M 1.508906 1.288079 L 1.518704 1.275430" stroke-width="0.008000" stroke="blue"/>
<path d="M 2.590349 1.502071 L 2.605804 1.497929" stroke-width="0.024000" stroke="white"/>
<path d="M 2.590349 1.502071 L 2.605804 1.497929" stroke-width="0.008000" stroke="blue"/>
<path d="M 1.859529 0.667089 L 1.874339 0.673144" stroke-width="0.024000" stroke="white"/>
<path d="M 1.859529 0.667089 L 1.874339 0.673144" stroke-width="0.008000" stroke="blue"/>
</svg>
