<svg xmlns="http://www.w3.org/2000/svg" width="400" height="400" viewBox="0 0 3 3" stroke="blue" stroke-width="0.008000" fill="none">
<path d="M 1.745007 1.216925 A 0.046451 0.046451 0 0 1 1.710718 1.184748"/>
<path d="M 1.710718 1.184748 A 0.027261 0.027261 0 0 1 1.745007 1.216925"/>
<path d="M 1.573132 1.275255 A 0.187769 0.187769 0 0 1 1.644564 0.949490"/>
<path d="M 1.644564 0.949490 A 9.920159 9.920159 0 0 0 1.710718 1.184748"/>
<path d="M 1.710718 1.184748 A 0.282826 0.282826 0 0 0 1.573132 1.275255"/>
<path d="M 1.759373 1.268165 A 0.055881 0.055881 0 0 1 1.745007 1.216925"/>
<path d="M 1.745007 1.216925 A 0.030258 0.030258 0 0 1 1.759373 1.268165"/>
<path d="M 1.644564 0.949490 A 0.187769 0.187769 0 0 1 1.890969 0.724745"/>
<path d="M 1.890969 0.724745 A 0.362741 0.362741 0 0 1 1.644564 0.949490"/>
<path d="M 1.759373 1.268165 A 0.858455 0.858455 0 0 0 2.598076 1.500000"/>
<path d="M 2.598076 1.500000 A 0.590770 0.590770 0 1 1 1.573132 1.275255"/>
<path d="M 1.573132 1.275255 A 0.139495 0.139495 0 0 0 1.759373 1.268165"/>
<path d="M 2.598076 1.500000 A 1.141281 1.141281 0 0 0 1.890969 0.724745"/>
<path d="M 1.890969 0.724745 A 0.590770 0.590770 0 1 1 2.598076 1.500000"/>
<path d="M 1.712978 1.192422 L 1.708458 1.177074" stroke-width="0.024000" stroke="white"/>
<path d="M 1.712978 1.192422 L 1.708458 1.177074" stroke-width="0.008000" stroke="blue"/>
<path d="M 1.746775 1.209123 L 1.743238 1.224727" stroke-width="0.024000" stroke="white"/>
<path d="M 1.746775 1.209123 L 1.743238 1.224727" stroke-width="0.008000" stroke="blue"/>
<path d="M 1.753627 1.273732 L 1.765118 1.262598" stroke-width="0.024000" stroke="white"/>
<path d="M 1.753627 1.273732 L 1.765118 1.262598" stroke-width="0.008000" stroke="blue"/>
<path d="M 2.590349 1.502071 L 2.605804 1.497929" stroke-width="0.024000" stroke="white"/>
<path d="M 2.590349 1.502071 L 2.605804 1.497929" stroke-width="0.008000" stroke="blue"/>
<path d="M 1.883465 0.721974 L 1.898474 0.727516" stroke-width="0.024000" stroke="white"/>
<path d="M 1.883465 0.721974 L 1.898474 0.727516" stroke-width="0.008000" stroke="blue"/>
<path d="M 1.652292 0.947419 L 1.636837 0.951560" stroke-width="0.024000" stroke="white"/>
<path d="M 1.652292 0.947419 L 1.636837 0.951560" stroke-width="0.008000" stroke="blue"/>
<path d="M 1.568018 1.281407 L 1.578246 1.269103" stroke-width="0.024000" stroke="white"/>
<path d="M 1.568018 1.281407 L 1.578246 1.269103" stroke-width="0.008000" stroke="blue"/>
</svg>
