<svg xmlns="http://www.w3.org/2000/svg" width="400" height="400" viewBox="0 0 3 3" stroke="blue" stroke-width="0.008000" fill="none">
<path d="M 1.543268 1.235727 A 0.005282 0.005282 0 0 1 1.537663 1.240848"/>
<path d="M 1.537663 1.240848 A 0.013264 0.013264 0 0 1 1.539653 1.234634"/>
<path d="M 1.539653 1.234634 A 0.007213 0.007213 0 0 0 1.543268 1.235727"/>
<path d="M 1.527403 1.234011 A 0.026079 0.026079 0 0 1 1.549830 1.196449"/>
<path d="M 1.549830 1.196449 A 0.093425 0.093425 0 0 1 1.543760 1.233255"/>
<path d="M 1.543760 1.233255 A 0.003410 0.003410 0 0 0 1.539653 1.234634"/>
<path d="M 1.539653 1.234634 A 0.012618 0.012618 0 0 0 1.527403 1.234011"/>
<path d="M 1.543268 1.235727 A 0.007545 0.007545 0 0 1 1.543760 1.233255"/>
<path d="M 1.543760 1.233255 A 0.001278 0.001278 0 0 1 1.543268 1.235727"/>
<path d="M 1.522547 1.280666 A 0.027690 0.027690 0 0 1 1.527403 1.234011"/>
<path d="M 1.527403 1.234011 A 0.012272 0.012272 0 0 0 1.537663 1.240848"/>
<path d="M 1.537663 1.240848 A 0.071756 0.071756 0 0 1 1.522547 1.280666"/>
<path d="M 1.500000 0.866025 A 0.240237 0.240237 0 0 1 1.732051 1.267949"/>
<path d="M 1.732051 1.267949 A 0.244705 0.244705 0 0 0 1.549830 1.196449"/>
<path d="M 1.549830 1.196449 A 1.493301 1.493301 0 0 0 1.500000 0.866025"/>
<path d="M 1.522547 1.280666 A 0.158296 0.158296 0 0 0 1.732051 1.267949"/>
<path d="M 1.732051 1.267949 A 0.517638 0.517638 0 1 1 0.866025 1.500000"/>
<path d="M 0.866025 1.500000 A 0.627491 0.627491 0 0 0 1.522547 1.280666"/>
<path d="M 1.500000 0.866025 A 0.896575 0.896575 0 0 0 0.866025 1.500000"/>
<path d="M 0.866025 1.500000 A 0.517638 0.517638 0 1 1 1.500000 0.866025"/>
<path d="M 1.535414 1.241419 L 1.543892 1.227850" stroke-width="0.024000" stroke="white"/>
<path d="M 1.535414 1.241419 L 1.543892 1.227850" stroke-width="0.008000" stroke="blue"/>
<path d="M 1.535271 1.235497 L 1.551265 1.235958" stroke-width="0.024000" stroke="white"/>
<path d="M 1.535271 1.235497 L 1.551265 1.235958" stroke-width="0.008000" stroke="blue"/>
<path d="M 1.546612 1.225781 L 1.540909 1.240730" stroke-width="0.024000" stroke="white"/>
<path d="M 1.546612 1.225781 L 1.540909 1.240730" stroke-width="0.008000" stroke="blue"/>
<path d="M 1.529678 1.240356 L 1.545648 1.241339" stroke-width="0.024000" stroke="white"/>
<path d="M 1.529678 1.240356 L 1.545648 1.241339" stroke-width="0.008000" stroke="blue"/>
<path d="M 1.527478 1.274367 L 1.517616 1.286966" stroke-width="0.024000" stroke="white"/>
<path d="M 1.527478 1.274367 L 1.517616 1.286966" stroke-width="0.008000" stroke="blue"/>
<path d="M 0.868096 1.492273 L 0.863955 1.507727" stroke-width="0.024000" stroke="white"/>
<path d="M 0.868096 1.492273 L 0.863955 1.507727" stroke-width="0.008000" stroke="blue"/>
<path d="M 1.497929 0.858298 L 1.502071 0.873753" stroke-width="0.024000" stroke="white"/>
<path d="M 1.497929 0.858298 L 1.502071 0.873753" stroke-width="0.008000" stroke="blue"/>
<path d="M 1.541836 1.196750 L 1.557824 1.196149" stroke-width="0.024000" stroke="white"/>
<path d="M 1.541836 1.196750 L 1.557824 1.196149" stroke-width="0.008000" stroke="blue"/>
<path d="M 1.534583 1.230483 L 1.520223 1.237539" stroke-width="0.024000" stroke="white"/>
<path d="M 1.534583 1.230483 L 1.520223 1.237539" stroke-width="0.008000" stroke="blue"/>
<path d="M 1.726394 1.273606 L 1.737708 1.262292" stroke-width="0.024000" stroke="white"/>
<path d="M 1.726394 1.273606 L 1.737708 1.262292" stroke-width="0.008000" stroke="blue"/>
</svg>
