<svg xmlns="http://www.w3.org/2000/svg" width="400" height="400" viewBox="0 0 3 3" stroke="blue" stroke-width="0.008000" fill="none">
<path d="M 1.450395 0.985191 A 0.021820 0.021820 0 0 1 1.477963 0.958672"/>
<path d="M 1.477963 0.958672 A 0.039737 0.039737 0 0 1 1.450395 0.985191"/>
<path d="M 1.562095 0.880365 A 0.128568 0.128568 0 0 1 1.537235 0.990234"/>
<path d="M 1.537235 0.990234 A 0.180910 0.180910 0 0 0 1.477963 0.958672"/>
<path d="M 1.477963 0.958672 A 0.115937 0.115937 0 0 1 1.562095 0.880365"/>
<path d="M 1.450395 0.985191 A 0.049620 0.049620 0 0 1 1.441891 1.028295"/>
<path d="M 1.441891 1.028295 A 0.024500 0.024500 0 0 1 1.450395 0.985191"/>
<path d="M 1.525387 1.045283 A 0.062912 0.062912 0 0 1 1.537235 0.990234"/>
<path d="M 1.537235 0.990234 A 0.031483 0.031483 0 0 1 1.525387 1.045283"/>
<path d="M 1.641367 0.778551 A 0.102820 0.102820 0 0 1 1.562095 0.880365"/>
<path d="M 1.562095 0.880365 A 0.082860 0.082860 0 0 1 1.641367 0.778551"/>
<path d="M 1.525387 1.045283 A 0.285591 0.285591 0 0 1 1.478178 1.286656"/>
<path d="M 1.478178 1.286656 A 0.183102 0.183102 0 0 1 1.441891 1.028295"/>
<path d="M 1.441891 1.028295 A 0.097400 0.097400 0 0 0 1.525387 1.045283"/>
<path d="M 1.641367 0.778551 A 0.151703 0.151703 0 0 1 1.853366 0.636812"/>
<path d="M 1.853366 0.636812 A 0.235347 0.235347 0 0 1 1.641367 0.778551"/>
<path d="M 2.598076 1.500000 A 0.633054 0.633054 0 1 1 1.478178 1.286656"/>
<path d="M 1.478178 1.286656 A 1.310365 1.310365 0 0 0 2.598076 1.500000"/>
<path d="M 2.598076 1.500000 A 1.310365 1.310365 0 0 0 1.853366 0.636812"/>
<path d="M 1.853366 0.636812 A 0.633054 0.633054 0 1 1 2.598076 1.500000"/>
<path d="M 1.470327 0.956287 L 1.485600 0.961056" stroke-width="0.024000" stroke="white"/>
<path d="M 1.470327 0.956287 L 1.485600 0.961056" stroke-width="0.008000" stroke="blue"/>
<path d="M 1.458118 0.983104 L 1.442672 0.987277" stroke-width="0.024000" stroke="white"/>
<path d="M 1.458118 0.983104 L 1.442672 0.987277" stroke-width="0.008000" stroke="blue"/>
<path d="M 1.437028 1.034647 L 1.446754 1.021943" stroke-width="0.024000" stroke="white"/>
<path d="M 1.437028 1.034647 L 1.446754 1.021943" stroke-width="0.008000" stroke="blue"/>
<path d="M 1.517640 1.047277 L 1.533135 1.043288" stroke-width="0.024000" stroke="white"/>
<path d="M 1.517640 1.047277 L 1.533135 1.043288" stroke-width="0.008000" stroke="blue"/>
<path d="M 1.542240 0.983993 L 1.532230 0.996475" stroke-width="0.024000" stroke="white"/>
<path d="M 1.542240 0.983993 L 1.532230 0.996475" stroke-width="0.008000" stroke="blue"/>
<path d="M 1.473412 1.293081 L 1.482945 1.280231" stroke-width="0.024000" stroke="white"/>
<path d="M 1.473412 1.293081 L 1.482945 1.280231" stroke-width="0.008000" stroke="blue"/>
<path d="M 2.590349 1.502071 L 2.605804 1.497929" stroke-width="0.024000" stroke="white"/>
<path d="M 2.590349 1.502071 L 2.605804 1.497929" stroke-width="0.008000" stroke="blue"/>
<path d="M 1.846025 0.633631 L 1.860706 0.639993" stroke-width="0.024000" stroke="white"/>
<path d="M 1.846025 0.633631 L 1.860706 0.639993" stroke-width="0.008000" stroke="blue"/>
<path d="M 1.649366 0.778417 L 1.633368 0.778686" stroke-width="0.024000" stroke="white"/>
<path d="M 1.649366 0.778417 L 1.633368 0.778686" stroke-width="0.008000" stroke="blue"/>
<path d="M 1.554308 0.882197 L 1.569883 0.878534" stroke-width="0.024000" stroke="white"/>
<path d="M 1.554308 0.882197 L 1.569883 0.878534" stroke-width="0.008000" stroke="blue"/>
</svg>
