<svg xmlns="http://www.w3.org/2000/svg" width="400" height="400" viewBox="0 0 3 3" stroke="blue" stroke-width="0.008000" fill="none">
<path d="M 1.739943 0.981945 A 0.005257 0.005257 0 0 1 1.738276 0.989759"/>
<path d="M 1.738276 0.989759 A 0.006147 0.006147 0 0 1 1.739943 0.981945"/>
<path d="M 1.751521 1.020807 A 0.026804 0.026804 0 0 1 1.716561 0.995271"/>
<path d="M 1.716561 0.995271 A 0.045509 0.045509 0 0 0 1.738276 0.989759"/>
<path d="M 1.738276 0.989759 A 0.179696 0.179696 0 0 1 1.751521 1.020807"/>
<path d="M 1.739943 0.981945 A 0.007192 0.007192 0 0 1 1.740335 0.972735"/>
<path d="M 1.740335 0.972735 A 0.006003 0.006003 0 0 1 1.739943 0.981945"/>
<path d="M 1.708494 0.971339 A 0.039520 0.039520 0 0 1 1.716561 0.995271"/>
<path d="M 1.716561 0.995271 A 0.013326 0.013326 0 0 1 1.708494 0.971339"/>
<path d="M 1.890969 1.275255 A 0.759581 0.759581 0 0 1 1.751521 1.020807"/>
<path d="M 1.751521 1.020807 A 0.102796 0.102796 0 0 0 1.819537 0.949490"/>
<path d="M 1.819537 0.949490 A 0.187769 0.187769 0 0 1 1.890969 1.275255"/>
<path d="M 1.708494 0.971339 A 0.951665 0.951665 0 0 1 1.573132 0.724745"/>
<path d="M 1.573132 0.724745 A 0.187769 0.187769 0 0 1 1.819537 0.949490"/>
<path d="M 1.819537 0.949490 A 0.079312 0.079312 0 0 0 1.740335 0.972735"/>
<path d="M 1.740335 0.972735 A 0.024909 0.024909 0 0 0 1.708494 0.971339"/>
<path d="M 1.890969 1.275255 A 0.590770 0.590770 0 1 1 0.866025 1.500000"/>
<path d="M 0.866025 1.500000 A 1.141281 1.141281 0 0 0 1.890969 1.275255"/>
<path d="M 1.573132 0.724745 A 1.141281 1.141281 0 0 0 0.866025 1.500000"/>
<path d="M 0.866025 1.500000 A 0.590770 0.590770 0 1 1 1.573132 0.724745"/>
<path d="M 1.745307 0.985943 L 1.731245 0.993575" stroke-width="0.024000" stroke="white"/>
<path d="M 1.745307 0.985943 L 1.731245 0.993575" stroke-width="0.008000" stroke="blue"/>
<path d="M 1.733589 0.986805 L 1.746297 0.977084" stroke-width="0.024000" stroke="white"/>
<path d="M 1.733589 0.986805 L 1.746297 0.977084" stroke-width="0.008000" stroke="blue"/>
<path d="M 1.745718 0.966817 L 1.734952 0.978654" stroke-width="0.024000" stroke="white"/>
<path d="M 1.745718 0.966817 L 1.734952 0.978654" stroke-width="0.008000" stroke="blue"/>
<path d="M 1.714861 0.966495 L 1.702127 0.976182" stroke-width="0.024000" stroke="white"/>
<path d="M 1.714861 0.966495 L 1.702127 0.976182" stroke-width="0.008000" stroke="blue"/>
<path d="M 1.716561 1.003271 L 1.716562 0.987271" stroke-width="0.024000" stroke="white"/>
<path d="M 1.716561 1.003271 L 1.716562 0.987271" stroke-width="0.008000" stroke="blue"/>
<path d="M 1.817467 0.957217 L 1.821608 0.941762" stroke-width="0.024000" stroke="white"/>
<path d="M 1.817467 0.957217 L 1.821608 0.941762" stroke-width="0.008000" stroke="blue"/>
<path d="M 1.897121 1.270141 L 1.884817 1.280369" stroke-width="0.024000" stroke="white"/>
<path d="M 1.897121 1.270141 L 1.884817 1.280369" stroke-width="0.008000" stroke="blue"/>
<path d="M 0.868096 1.492273 L 0.863955 1.507727" stroke-width="0.024000" stroke="white"/>
<path d="M 0.868096 1.492273 L 0.863955 1.507727" stroke-width="0.008000" stroke="blue"/>
<path d="M 1.570361 0.717240 L 1.575903 0.732250" stroke-width="0.024000" stroke="white"/>
<path d="M 1.570361 0.717240 L 1.575903 0.732250" stroke-width="0.008000" stroke="blue"/>
<path d="M 1.753955 1.028427 L 1.749086 1.013186" stroke-width="0.024000" stroke="white"/>
<path d="M 1.753955 1.028427 L 1.749086 1.013186" stroke-width="0.008000" stroke="blue"/>
</svg>
