<svg xmlns="http://www.w3.org/2000/svg" width="400" height="400" viewBox="0 0 3 3" stroke="blue" stroke-width="0.008000" fill="none">
<path d="M 1.898691 1.214745 A 0.051128 0.051128 0 0 1 1.904748 1.230370"/>
<path d="M 1.904748 1.230370 A 0.012326 0.012326 0 0 1 1.890058 1.216404"/>
<path d="M 1.890058 1.216404 A 0.013011 0.013011 0 0 0 1.898691 1.214745"/>
<path d="M 1.732051 1.267949 A 0.240237 0.240237 0 0 1 1.964102 0.866025"/>
<path d="M 1.964102 0.866025 A 1.224745 1.224745 0 0 0 1.922382 1.188602"/>
<path d="M 1.922382 1.188602 A 0.024869 0.024869 0 0 0 1.897801 1.210532"/>
<path d="M 1.897801 1.210532 A 0.007000 0.007000 0 0 0 1.890058 1.216404"/>
<path d="M 1.890058 1.216404 A 0.183471 0.183471 0 0 0 1.732051 1.267949"/>
<path d="M 1.898691 1.214745 A 0.006713 0.006713 0 0 1 1.897801 1.210532"/>
<path d="M 1.897801 1.210532 A 0.002273 0.002273 0 0 1 1.898691 1.214745"/>
<path d="M 1.932953 1.216166 A 0.043417 0.043417 0 0 1 1.927576 1.279021"/>
<path d="M 1.927576 1.279021 A 0.116108 0.116108 0 0 1 1.904748 1.230370"/>
<path d="M 1.904748 1.230370 A 0.061115 0.061115 0 0 0 1.932953 1.216166"/>
<path d="M 1.932953 1.216166 A 0.041720 0.041720 0 0 1 1.922382 1.188602"/>
<path d="M 1.922382 1.188602 A 0.015782 0.015782 0 0 1 1.932953 1.216166"/>
<path d="M 2.598076 1.500000 A 0.517638 0.517638 0 1 1 1.732051 1.267949"/>
<path d="M 1.732051 1.267949 A 0.147026 0.147026 0 0 0 1.927576 1.279021"/>
<path d="M 1.927576 1.279021 A 0.643951 0.643951 0 0 0 2.598076 1.500000"/>
<path d="M 2.598076 1.500000 A 0.896575 0.896575 0 0 0 1.964102 0.866025"/>
<path d="M 1.964102 0.866025 A 0.517638 0.517638 0 1 1 2.598076 1.500000"/>
<path d="M 1.888825 1.224308 L 1.891291 1.208499" stroke-width="0.024000" stroke="white"/>
<path d="M 1.888825 1.224308 L 1.891291 1.208499" stroke-width="0.008000" stroke="blue"/>
<path d="M 1.891806 1.218820 L 1.905575 1.210670" stroke-width="0.024000" stroke="white"/>
<path d="M 1.891806 1.218820 L 1.905575 1.210670" stroke-width="0.008000" stroke="blue"/>
<path d="M 1.898747 1.202588 L 1.896856 1.218475" stroke-width="0.024000" stroke="white"/>
<path d="M 1.898747 1.202588 L 1.896856 1.218475" stroke-width="0.008000" stroke="blue"/>
<path d="M 1.906378 1.238203 L 1.903118 1.222538" stroke-width="0.024000" stroke="white"/>
<path d="M 1.906378 1.238203 L 1.903118 1.222538" stroke-width="0.008000" stroke="blue"/>
<path d="M 1.926980 1.221489 L 1.938926 1.210844" stroke-width="0.024000" stroke="white"/>
<path d="M 1.926980 1.221489 L 1.938926 1.210844" stroke-width="0.008000" stroke="blue"/>
<path d="M 1.922346 1.180602 L 1.922419 1.196602" stroke-width="0.024000" stroke="white"/>
<path d="M 1.922346 1.180602 L 1.922419 1.196602" stroke-width="0.008000" stroke="blue"/>
<path d="M 1.921317 1.284003 L 1.933836 1.274039" stroke-width="0.024000" stroke="white"/>
<path d="M 1.921317 1.284003 L 1.933836 1.274039" stroke-width="0.008000" stroke="blue"/>
<path d="M 2.590349 1.502071 L 2.605804 1.497929" stroke-width="0.024000" stroke="white"/>
<path d="M 2.590349 1.502071 L 2.605804 1.497929" stroke-width="0.008000" stroke="blue"/>
<path d="M 1.956374 0.863955 L 1.971829 0.868096" stroke-width="0.024000" stroke="white"/>
<path d="M 1.956374 0.863955 L 1.971829 0.868096" stroke-width="0.008000" stroke="blue"/>
<path d="M 1.737708 1.262292 L 1.726394 1.273606" stroke-width="0.024000" stroke="white"/>
<path d="M 1.737708 1.262292 L 1.726394 1.273606" stroke-width="0.008000" stroke="blue"/>
</svg>
