<svg xmlns="http://www.w3.org/2000/svg" width="400" height="400" viewBox="0 0 3 3" stroke="blue" stroke-width="0.008000" fill="none">
<path d="M 1.806707 0.879523 A 0.039341 0.039341 0 0 1 1.842840 0.905362"/>
<path d="M 1.842840 0.905362 A 0.026910 0.026910 0 0 1 1.806707 0.879523"/>
<path d="M 1.914241 0.859416 A 0.133805 0.133805 0 0 1 1.940319 1.014139"/>
<path d="M 1.940319 1.014139 A 0.196604 0.196604 0 0 1 1.842840 0.905362"/>
<path d="M 1.842840 0.905362 A 0.193068 0.193068 0 0 0 1.914241 0.859416"/>
<path d="M 1.806707 0.879523 A 0.029089 0.029089 0 0 1 1.780839 0.838388"/>
<path d="M 1.780839 0.838388 A 0.044181 0.044181 0 0 1 1.806707 0.879523"/>
<path d="M 1.966064 1.283830 A 0.257188 0.257188 0 0 1 1.940319 1.014139"/>
<path d="M 1.940319 1.014139 A 0.159353 0.159353 0 0 1 1.966064 1.283830"/>
<path d="M 1.900162 0.808657 A 0.030400 0.030400 0 0 1 1.914241 0.859416"/>
<path d="M 1.914241 0.859416 A 0.052738 0.052738 0 0 1 1.900162 0.808657"/>
<path d="M 1.603253 0.655424 A 0.190595 0.190595 0 0 1 1.857163 0.768972"/>
<path d="M 1.857163 0.768972 A 0.130737 0.130737 0 0 0 1.780839 0.838388"/>
<path d="M 1.780839 0.838388 A 0.349705 0.349705 0 0 1 1.603253 0.655424"/>
<path d="M 1.966064 1.283830 A 0.624282 0.624282 0 1 1 0.866025 1.500000"/>
<path d="M 0.866025 1.500000 A 1.273330 1.273330 0 0 0 1.966064 1.283830"/>
<path d="M 1.900162 0.808657 A 0.061816 0.061816 0 0 1 1.857163 0.768972"/>
<path d="M 1.857163 0.768972 A 0.033212 0.033212 0 0 1 1.900162 0.808657"/>
<path d="M 1.603253 0.655424 A 1.273330 1.273330 0 0 0 0.866025 1.500000"/>
<path d="M 0.866025 1.500000 A 0.624282 0.624282 0 1 1 1.603253 0.655424"/>
<path d="M 1.840096 0.897847 L 1.845584 0.912877" stroke-width="0.024000" stroke="white"/>
<path d="M 1.840096 0.897847 L 1.845584 0.912877" stroke-width="0.008000" stroke="blue"/>
<path d="M 1.806540 0.887521 L 1.806874 0.871524" stroke-width="0.024000" stroke="white"/>
<path d="M 1.806540 0.887521 L 1.806874 0.871524" stroke-width="0.008000" stroke="blue"/>
<path d="M 1.784153 0.831107 L 1.777525 0.845670" stroke-width="0.024000" stroke="white"/>
<path d="M 1.784153 0.831107 L 1.777525 0.845670" stroke-width="0.008000" stroke="blue"/>
<path d="M 1.606349 0.662800 L 1.600157 0.648047" stroke-width="0.024000" stroke="white"/>
<path d="M 1.606349 0.662800 L 1.600157 0.648047" stroke-width="0.008000" stroke="blue"/>
<path d="M 0.863955 1.507727 L 0.868096 1.492273" stroke-width="0.024000" stroke="white"/>
<path d="M 0.863955 1.507727 L 0.868096 1.492273" stroke-width="0.008000" stroke="blue"/>
<path d="M 1.959695 1.288671 L 1.972433 1.278990" stroke-width="0.024000" stroke="white"/>
<path d="M 1.959695 1.288671 L 1.972433 1.278990" stroke-width="0.008000" stroke="blue"/>
<path d="M 1.943867 1.006969 L 1.936771 1.021309" stroke-width="0.024000" stroke="white"/>
<path d="M 1.943867 1.006969 L 1.936771 1.021309" stroke-width="0.008000" stroke="blue"/>
<path d="M 1.859774 0.776534 L 1.854553 0.761410" stroke-width="0.024000" stroke="white"/>
<path d="M 1.859774 0.776534 L 1.854553 0.761410" stroke-width="0.008000" stroke="blue"/>
<path d="M 1.902159 0.800910 L 1.898164 0.816404" stroke-width="0.024000" stroke="white"/>
<path d="M 1.902159 0.800910 L 1.898164 0.816404" stroke-width="0.008000" stroke="blue"/>
<path d="M 1.908630 0.865119 L 1.919852 0.853714" stroke-width="0.024000" stroke="white"/>
<path d="M 1.908630 0.865119 L 1.919852 0.853714" stroke-width="0.008000" stroke="blue"/>
</svg>
