<svg xmlns="http://www.w3.org/2000/svg" width="400" height="400" viewBox="0 0 3 3" stroke="blue" stroke-width="0.008000" fill="none">
<path d="M 2.031618 1.223868 A 0.222479 0.222479 0 0 0 1.890969 1.275255"/>
<path d="M 1.890969 1.275255 A 0.362741 0.362741 0 0 1 1.819537 0.949490"/>
<path d="M 1.819537 0.949490 A 0.338021 0.338021 0 0 1 2.058554 1.188507"/>
<path d="M 2.058554 1.188507 A 0.036343 0.036343 0 0 0 2.031618 1.223868"/>
<path d="M 2.111847 1.310102 A 0.063657 0.063657 0 0 0 2.065355 1.280911"/>
<path d="M 2.065355 1.280911 A 0.061179 0.061179 0 0 0 2.047517 1.230319"/>
<path d="M 2.047517 1.230319 A 0.043525 0.043525 0 0 0 2.058554 1.188507"/>
<path d="M 2.058554 1.188507 A 0.067147 0.067147 0 0 1 2.111847 1.310102"/>
<path d="M 2.031618 1.223868 A 0.022428 0.022428 0 0 1 2.047517 1.230319"/>
<path d="M 2.047517 1.230319 A 0.009285 0.009285 0 0 1 2.031618 1.223868"/>
<path d="M 1.573132 0.724745 A 0.187769 0.187769 0 0 1 1.819537 0.949490"/>
<path d="M 1.819537 0.949490 A 0.362741 0.362741 0 0 1 1.573132 0.724745"/>
<path d="M 1.890969 1.275255 A 0.123035 0.123035 0 0 0 2.054844 1.298294"/>
<path d="M 2.054844 1.298294 A 0.041872 0.041872 0 0 0 2.111847 1.310102"/>
<path d="M 2.111847 1.310102 A 0.687967 0.687967 0 1 1 0.866025 1.500000"/>
<path d="M 0.866025 1.500000 A 1.141281 1.141281 0 0 0 1.890969 1.275255"/>
<path d="M 2.054844 1.298294 A 0.011169 0.011169 0 0 1 2.065355 1.280911"/>
<path d="M 2.065355 1.280911 A 0.024417 0.024417 0 0 1 2.054844 1.298294"/>
<path d="M 1.573132 0.724745 A 1.141281 1.141281 0 0 0 0.866025 1.500000"/>
<path d="M 0.866025 1.500000 A 0.590770 0.590770 0 1 1 1.573132 0.724745"/>
<path d="M 2.056484 1.180779 L 2.060625 1.196234" stroke-width="0.024000" stroke="white"/>
<path d="M 2.056484 1.180779 L 2.060625 1.196234" stroke-width="0.008000" stroke="blue"/>
<path d="M 2.031562 1.215869 L 2.031675 1.231868" stroke-width="0.024000" stroke="white"/>
<path d="M 2.031562 1.215869 L 2.031675 1.231868" stroke-width="0.008000" stroke="blue"/>
<path d="M 2.053216 1.235934 L 2.041818 1.224705" stroke-width="0.024000" stroke="white"/>
<path d="M 2.053216 1.235934 L 2.041818 1.224705" stroke-width="0.008000" stroke="blue"/>
<path d="M 1.821608 0.941762 L 1.817467 0.957217" stroke-width="0.024000" stroke="white"/>
<path d="M 1.821608 0.941762 L 1.817467 0.957217" stroke-width="0.008000" stroke="blue"/>
<path d="M 1.575903 0.732250 L 1.570361 0.717240" stroke-width="0.024000" stroke="white"/>
<path d="M 1.575903 0.732250 L 1.570361 0.717240" stroke-width="0.008000" stroke="blue"/>
<path d="M 0.863955 1.507727 L 0.868096 1.492273" stroke-width="0.024000" stroke="white"/>
<path d="M 0.863955 1.507727 L 0.868096 1.492273" stroke-width="0.008000" stroke="blue"/>
<path d="M 1.884817 1.280369 L 1.897121 1.270141" stroke-width="0.024000" stroke="white"/>
<path d="M 1.884817 1.280369 L 1.897121 1.270141" stroke-width="0.008000" stroke="blue"/>
<path d="M 2.057408 1.279994 L 2.073303 1.281828" stroke-width="0.024000" stroke="white"/>
<path d="M 2.057408 1.279994 L 2.073303 1.281828" stroke-width="0.008000" stroke="blue"/>
<path d="M 2.061456 1.293790 L 2.048232 1.302797" stroke-width="0.024000" stroke="white"/>
<path d="M 2.061456 1.293790 L 2.048232 1.302797" stroke-width="0.008000" stroke="blue"/>
<path d="M 2.118606 1.305823 L 2.105087 1.314381" stroke-width="0.024000" stroke="white"/>
<path d="M 2.118606 1.305823 L 2.105087 1.314381" stroke-width="0.008000" stroke="blue"/>
</svg>
