<svg xmlns="http://www.w3.org/2000/svg" width="400" height="400" viewBox="0 0 3 3" stroke="blue" stroke-width="0.008000" fill="none">
<path d="M 1.914272 1.196449 A 0.026079 0.026079 0 0 1 1.936698 1.234011"/>
<path d="M 1.936698 1.234011 A 0.040170 0.040170 0 0 1 1.914272 1.196449"/>
<path d="M 1.941555 1.280666 A 0.044124 0.044124 0 0 1 1.936698 1.234011"/>
<path d="M 1.936698 1.234011 A 0.027690 0.027690 0 0 1 1.941555 1.280666"/>
<path d="M 1.914272 1.196449 A 0.244705 0.244705 0 0 0 1.732051 1.267949"/>
<path d="M 1.732051 1.267949 A 0.240237 0.240237 0 0 1 1.964102 0.866025"/>
<path d="M 1.964102 0.866025 A 1.493301 1.493301 0 0 0 1.914272 1.196449"/>
<path d="M 2.598076 1.500000 A 0.517638 0.517638 0 1 1 1.732051 1.267949"/>
<path d="M 1.732051 1.267949 A 0.158296 0.158296 0 0 0 1.941555 1.280666"/>
<path d="M 1.941555 1.280666 A 0.627491 0.627491 0 0 0 2.598076 1.500000"/>
<path d="M 2.598076 1.500000 A 0.896575 0.896575 0 0 0 1.964102 0.866025"/>
<path d="M 1.964102 0.866025 A 0.517638 0.517638 0 1 1 2.598076 1.500000"/>
<path d="M 1.940226 1.226830 L 1.933170 1.241191" stroke-width="0.024000" stroke="white"/>
<path d="M 1.940226 1.226830 L 1.933170 1.241191" stroke-width="0.008000" stroke="blue"/>
<path d="M 1.913971 1.204444 L 1.914572 1.188455" stroke-width="0.024000" stroke="white"/>
<path d="M 1.913971 1.204444 L 1.914572 1.188455" stroke-width="0.008000" stroke="blue"/>
<path d="M 1.971829 0.868096 L 1.956374 0.863955" stroke-width="0.024000" stroke="white"/>
<path d="M 1.971829 0.868096 L 1.956374 0.863955" stroke-width="0.008000" stroke="blue"/>
<path d="M 2.605804 1.497929 L 2.590349 1.502071" stroke-width="0.024000" stroke="white"/>
<path d="M 2.605804 1.497929 L 2.590349 1.502071" stroke-width="0.008000" stroke="blue"/>
<path d="M 1.947854 1.275735 L 1.935255 1.285597" stroke-width="0.024000" stroke="white"/>
<path d="M 1.947854 1.275735 L 1.935255 1.285597" stroke-width="0.008000" stroke="blue"/>
<path d="M 1.737708 1.262292 L 1.726394 1.273606" stroke-width="0.024000" stroke="white"/>
<path d="M 1.737708 1.262292 L 1.726394 1.273606" stroke-width="0.008000" stroke="blue"/>
</svg>
