<svg xmlns="http://www.w3.org/2000/svg" width="400" height="400" viewBox="0 0 3 3" stroke="blue" stroke-width="0.008000" fill="none">
<path d="M 1.936556 1.135498 A 0.179810 0.179810 0 0 0 1.821610 1.117850"/>
<path d="M 1.821610 1.117850 A 0.597332 0.597332 0 0 1 1.822957 0.900279"/>
<path d="M 1.822957 0.900279 A 0.200512 0.200512 0 0 1 1.985463 1.107579"/>
<path d="M 1.985463 1.107579 A 0.052142 0.052142 0 0 0 1.936556 1.135498"/>
<path d="M 2.039003 1.295365 A 1.167105 1.167105 0 0 1 1.955019 1.154244"/>
<path d="M 1.955019 1.154244 A 0.055457 0.055457 0 0 0 1.985463 1.107579"/>
<path d="M 1.985463 1.107579 A 0.103185 0.103185 0 0 1 2.039003 1.295365"/>
<path d="M 1.936556 1.135498 A 0.042941 0.042941 0 0 1 1.955019 1.154244"/>
<path d="M 1.955019 1.154244 A 0.013820 0.013820 0 0 1 1.936556 1.135498"/>
<path d="M 1.583964 0.700756 A 0.177995 0.177995 0 0 1 1.822957 0.900279"/>
<path d="M 1.822957 0.900279 A 0.321002 0.321002 0 0 1 1.583964 0.700756"/>
<path d="M 1.821610 1.117850 A 0.058489 0.058489 0 0 1 1.788802 1.181132"/>
<path d="M 1.788802 1.181132 A 0.044950 0.044950 0 0 1 1.821610 1.117850"/>
<path d="M 1.772402 1.268419 A 0.206030 0.206030 0 0 0 2.039003 1.295365"/>
<path d="M 2.039003 1.295365 A 0.656339 0.656339 0 1 1 0.866025 1.500000"/>
<path d="M 0.866025 1.500000 A 0.954824 0.954824 0 0 0 1.772402 1.268419"/>
<path d="M 1.583964 0.700756 A 1.185973 1.185973 0 0 0 0.866025 1.500000"/>
<path d="M 0.866025 1.500000 A 0.602524 0.602524 0 1 1 1.583964 0.700756"/>
<path d="M 1.772402 1.268419 A 0.054679 0.054679 0 0 1 1.788802 1.181132"/>
<path d="M 1.788802 1.181132 A 0.076111 0.076111 0 0 1 1.772402 1.268419"/>
<path d="M 1.985877 1.099590 L 1.985049 1.115568" stroke-width="0.024000" stroke="white"/>
<path d="M 1.985877 1.099590 L 1.985049 1.115568" stroke-width="0.008000" stroke="blue"/>
<path d="M 1.940261 1.128408 L 1.932850 1.142587" stroke-width="0.024000" stroke="white"/>
<path d="M 1.940261 1.128408 L 1.932850 1.142587" stroke-width="0.008000" stroke="blue"/>
<path d="M 1.958616 1.161389 L 1.951421 1.147098" stroke-width="0.024000" stroke="white"/>
<path d="M 1.958616 1.161389 L 1.951421 1.147098" stroke-width="0.008000" stroke="blue"/>
<path d="M 1.824463 0.892422 L 1.821452 0.908136" stroke-width="0.024000" stroke="white"/>
<path d="M 1.824463 0.892422 L 1.821452 0.908136" stroke-width="0.008000" stroke="blue"/>
<path d="M 1.586848 0.708218 L 1.581079 0.693294" stroke-width="0.024000" stroke="white"/>
<path d="M 1.586848 0.708218 L 1.581079 0.693294" stroke-width="0.008000" stroke="blue"/>
<path d="M 0.863955 1.507727 L 0.868096 1.492273" stroke-width="0.024000" stroke="white"/>
<path d="M 0.863955 1.507727 L 0.868096 1.492273" stroke-width="0.008000" stroke="blue"/>
<path d="M 1.766615 1.273943 L 1.778189 1.262896" stroke-width="0.024000" stroke="white"/>
<path d="M 1.766615 1.273943 L 1.778189 1.262896" stroke-width="0.008000" stroke="blue"/>
<path d="M 1.796049 1.177744 L 1.781555 1.184520" stroke-width="0.024000" stroke="white"/>
<path d="M 1.796049 1.177744 L 1.781555 1.184520" stroke-width="0.008000" stroke="blue"/>
<path d="M 1.813735 1.119258 L 1.829485 1.116442" stroke-width="0.024000" stroke="white"/>
<path d="M 1.813735 1.119258 L 1.829485 1.116442" stroke-width="0.008000" stroke="blue"/>
<path d="M 2.032433 1.299930 L 2.045573 1.290800" stroke-width="0.024000" stroke="white"/>
<path d="M 2.032433 1.299930 L 2.045573 1.290800" stroke-width="0.008000" stroke="blue"/>
</svg>
