<svg xmlns="http://www.w3.org/2000/svg" width="400" height="400" viewBox="0 0 3 3" stroke="blue" stroke-width="0.008000" fill="none">
<path d="M 1.705260 0.996133 A 0.247449 0.247449 0 0 0 1.732051 0.972932"/>
<path d="M 1.732051 0.972932 A 0.024269 0.024269 0 0 1 1.708609 1.013534"/>
<path d="M 1.708609 1.013534 A 0.020289 0.020289 0 0 0 1.705260 0.996133"/>
<path d="M 1.573132 1.275255 A 0.187769 0.187769 0 0 1 1.644564 0.949490"/>
<path d="M 1.644564 0.949490 A 0.036757 0.036757 0 0 0 1.680237 0.976733"/>
<path d="M 1.680237 0.976733 A 0.021462 0.021462 0 0 0 1.698391 0.997841"/>
<path d="M 1.698391 0.997841 A 0.014012 0.014012 0 0 0 1.708609 1.013534"/>
<path d="M 1.708609 1.013534 A 0.687967 0.687967 0 0 1 1.573132 1.275255"/>
<path d="M 1.705260 0.996133 A 0.009123 0.009123 0 0 1 1.698391 0.997841"/>
<path d="M 1.698391 0.997841 A 0.003840 0.003840 0 0 1 1.705260 0.996133"/>
<path d="M 1.685994 0.966761 A 0.036757 0.036757 0 0 0 1.644564 0.949490"/>
<path d="M 1.644564 0.949490 A 0.187769 0.187769 0 0 1 1.890969 0.724745"/>
<path d="M 1.890969 0.724745 A 0.687967 0.687967 0 0 1 1.732051 0.972932"/>
<path d="M 1.732051 0.972932 A 0.038280 0.038280 0 0 0 1.685994 0.966761"/>
<path d="M 1.685994 0.966761 A 0.006665 0.006665 0 0 1 1.680237 0.976733"/>
<path d="M 1.680237 0.976733 A 0.011424 0.011424 0 0 1 1.685994 0.966761"/>
<path d="M 2.598076 1.500000 A 0.590770 0.590770 0 1 1 1.573132 1.275255"/>
<path d="M 1.573132 1.275255 A 1.141281 1.141281 0 0 0 2.598076 1.500000"/>
<path d="M 2.598076 1.500000 A 1.141281 1.141281 0 0 0 1.890969 0.724745"/>
<path d="M 1.890969 0.724745 A 0.590770 0.590770 0 1 1 2.598076 1.500000"/>
<path d="M 1.716336 1.015605 L 1.700882 1.011464" stroke-width="0.024000" stroke="white"/>
<path d="M 1.716336 1.015605 L 1.700882 1.011464" stroke-width="0.008000" stroke="blue"/>
<path d="M 1.710051 1.002540 L 1.700469 0.989726" stroke-width="0.024000" stroke="white"/>
<path d="M 1.710051 1.002540 L 1.700469 0.989726" stroke-width="0.008000" stroke="blue"/>
<path d="M 1.690487 0.996608 L 1.706296 0.999074" stroke-width="0.024000" stroke="white"/>
<path d="M 1.690487 0.996608 L 1.706296 0.999074" stroke-width="0.008000" stroke="blue"/>
<path d="M 1.737708 0.967275 L 1.726394 0.978588" stroke-width="0.024000" stroke="white"/>
<path d="M 1.737708 0.967275 L 1.726394 0.978588" stroke-width="0.008000" stroke="blue"/>
<path d="M 1.692940 0.962793 L 1.679047 0.970729" stroke-width="0.024000" stroke="white"/>
<path d="M 1.692940 0.962793 L 1.679047 0.970729" stroke-width="0.008000" stroke="blue"/>
<path d="M 1.672237 0.976769 L 1.688236 0.976696" stroke-width="0.024000" stroke="white"/>
<path d="M 1.672237 0.976769 L 1.688236 0.976696" stroke-width="0.008000" stroke="blue"/>
<path d="M 1.898474 0.727516 L 1.883465 0.721974" stroke-width="0.024000" stroke="white"/>
<path d="M 1.898474 0.727516 L 1.883465 0.721974" stroke-width="0.008000" stroke="blue"/>
<path d="M 2.605804 1.497929 L 2.590349 1.502071" stroke-width="0.024000" stroke="white"/>
<path d="M 2.605804 1.497929 L 2.590349 1.502071" stroke-width="0.008000" stroke="blue"/>
<path d="M 1.578246 1.269103 L 1.568018 1.281407" stroke-width="0.024000" stroke="white"/>
<path d="M 1.578246 1.269103 L 1.568018 1.281407" stroke-width="0.008000" stroke="blue"/>
<path d="M 1.636837 0.951560 L 1.652292 0.947419" stroke-width="0.024000" stroke="white"/>
<path d="M 1.636837 0.951560 L 1.652292 0.947419" stroke-width="0.008000" stroke="blue"/>
</svg>
