<svg xmlns="http://www.w3.org/2000/svg" width="400" height="400" viewBox="0 0 3 3" stroke="blue" stroke-width="0.008000" fill="none">
<path d="M 1.516349 1.225737 A 0.035322 0.035322 0 0 1 1.549830 1.196449"/>
<path d="M 1.549830 1.196449 A 0.040170 0.040170 0 0 1 1.527403 1.234011"/>
<path d="M 1.527403 1.234011 A 0.015197 0.015197 0 0 0 1.516349 1.225737"/>
<path d="M 1.522547 1.280666 A 0.067785 0.067785 0 0 0 1.498724 1.268681"/>
<path d="M 1.498724 1.268681 A 0.147155 0.147155 0 0 1 1.513514 1.233514"/>
<path d="M 1.513514 1.233514 A 0.014699 0.014699 0 0 0 1.527403 1.234011"/>
<path d="M 1.527403 1.234011 A 0.044124 0.044124 0 0 1 1.522547 1.280666"/>
<path d="M 1.516349 1.225737 A 0.023301 0.023301 0 0 1 1.513514 1.233514"/>
<path d="M 1.513514 1.233514 A 0.004206 0.004206 0 0 1 1.516349 1.225737"/>
<path d="M 1.500000 0.866025 A 0.240237 0.240237 0 0 1 1.732051 1.267949"/>
<path d="M 1.732051 1.267949 A 0.244705 0.244705 0 0 0 1.549830 1.196449"/>
<path d="M 1.549830 1.196449 A 1.493301 1.493301 0 0 0 1.500000 0.866025"/>
<path d="M 1.490782 1.284835 A 0.022866 0.022866 0 0 0 1.522547 1.280666"/>
<path d="M 1.522547 1.280666 A 0.158296 0.158296 0 0 0 1.732051 1.267949"/>
<path d="M 1.732051 1.267949 A 0.517638 0.517638 0 1 1 0.866025 1.500000"/>
<path d="M 0.866025 1.500000 A 0.590770 0.590770 0 0 0 1.490782 1.284835"/>
<path d="M 1.490782 1.284835 A 0.009163 0.009163 0 0 1 1.498724 1.268681"/>
<path d="M 1.498724 1.268681 A 0.047969 0.047969 0 0 1 1.490782 1.284835"/>
<path d="M 1.500000 0.866025 A 0.896575 0.896575 0 0 0 0.866025 1.500000"/>
<path d="M 0.866025 1.500000 A 0.517638 0.517638 0 1 1 1.500000 0.866025"/>
<path d="M 1.534583 1.230483 L 1.520223 1.237539" stroke-width="0.024000" stroke="white"/>
<path d="M 1.534583 1.230483 L 1.520223 1.237539" stroke-width="0.008000" stroke="blue"/>
<path d="M 1.524233 1.227098 L 1.508466 1.224376" stroke-width="0.024000" stroke="white"/>
<path d="M 1.524233 1.227098 L 1.508466 1.224376" stroke-width="0.008000" stroke="blue"/>
<path d="M 1.509483 1.240424 L 1.517546 1.226604" stroke-width="0.024000" stroke="white"/>
<path d="M 1.509483 1.240424 L 1.517546 1.226604" stroke-width="0.008000" stroke="blue"/>
<path d="M 1.557824 1.196149 L 1.541836 1.196750" stroke-width="0.024000" stroke="white"/>
<path d="M 1.557824 1.196149 L 1.541836 1.196750" stroke-width="0.008000" stroke="blue"/>
<path d="M 1.502071 0.873753 L 1.497929 0.858298" stroke-width="0.024000" stroke="white"/>
<path d="M 1.502071 0.873753 L 1.497929 0.858298" stroke-width="0.008000" stroke="blue"/>
<path d="M 0.863955 1.507727 L 0.868096 1.492273" stroke-width="0.024000" stroke="white"/>
<path d="M 0.863955 1.507727 L 0.868096 1.492273" stroke-width="0.008000" stroke="blue"/>
<path d="M 1.485969 1.291225 L 1.495596 1.278446" stroke-width="0.024000" stroke="white"/>
<path d="M 1.485969 1.291225 L 1.495596 1.278446" stroke-width="0.008000" stroke="blue"/>
<path d="M 1.506438 1.270800 L 1.491010 1.266561" stroke-width="0.024000" stroke="white"/>
<path d="M 1.506438 1.270800 L 1.491010 1.266561" stroke-width="0.008000" stroke="blue"/>
<path d="M 1.726394 1.273606 L 1.737708 1.262292" stroke-width="0.024000" stroke="white"/>
<path d="M 1.726394 1.273606 L 1.737708 1.262292" stroke-width="0.008000" stroke="blue"/>
<path d="M 1.527478 1.274367 L 1.517616 1.286966" stroke-width="0.024000" stroke="white"/>
<path d="M 1.527478 1.274367 L 1.517616 1.286966" stroke-width="0.008000" stroke="blue"/>
</svg>
