<svg xmlns="http://www.w3.org/2000/svg" width="400" height="400" viewBox="0 0 3 3" stroke="blue" stroke-width="0.008000" fill="none">
<path d="M 1.907801 0.865952 A 0.119918 0.119918 0 0 1 1.943803 1.016267"/>
<path d="M 1.943803 1.016267 A 0.150516 0.150516 0 0 1 1.861127 0.891446"/>
<path d="M 1.861127 0.891446 A 0.063038 0.063038 0 0 0 1.907801 0.865952"/>
<path d="M 1.803875 0.823256 A 0.468567 0.468567 0 0 1 1.868753 0.844125"/>
<path d="M 1.868753 0.844125 A 0.107776 0.107776 0 0 0 1.861127 0.891446"/>
<path d="M 1.861127 0.891446 A 0.055255 0.055255 0 0 1 1.803875 0.823256"/>
<path d="M 1.907801 0.865952 A 0.178425 0.178425 0 0 0 1.868753 0.844125"/>
<path d="M 1.868753 0.844125 A 0.582802 0.582802 0 0 1 1.891256 0.795097"/>
<path d="M 1.891256 0.795097 A 0.047808 0.047808 0 0 1 1.907801 0.865952"/>
<path d="M 1.968418 1.284153 A 0.254491 0.254491 0 0 1 1.943803 1.016267"/>
<path d="M 1.943803 1.016267 A 0.158447 0.158447 0 0 1 1.968418 1.284153"/>
<path d="M 1.604151 0.653223 A 0.193601 0.193601 0 0 1 1.859017 0.759624"/>
<path d="M 1.859017 0.759624 A 0.091945 0.091945 0 0 0 1.803875 0.823256"/>
<path d="M 1.803875 0.823256 A 0.291403 0.291403 0 0 1 1.604151 0.653223"/>
<path d="M 1.859017 0.759624 A 0.025575 0.025575 0 0 1 1.891256 0.795097"/>
<path d="M 1.891256 0.795097 A 0.068670 0.068670 0 0 1 1.859017 0.759624"/>
<path d="M 1.968418 1.284153 A 0.625324 0.625324 0 1 1 0.866025 1.500000"/>
<path d="M 0.866025 1.500000 A 1.277671 1.277671 0 0 0 1.968418 1.284153"/>
<path d="M 1.604151 0.653223 A 1.277671 1.277671 0 0 0 0.866025 1.500000"/>
<path d="M 0.866025 1.500000 A 0.625324 0.625324 0 1 1 1.604151 0.653223"/>
<path d="M 1.861643 0.899430 L 1.860612 0.883463" stroke-width="0.024000" stroke="white"/>
<path d="M 1.861643 0.899430 L 1.860612 0.883463" stroke-width="0.008000" stroke="blue"/>
<path d="M 1.903053 0.872391 L 1.912549 0.859513" stroke-width="0.024000" stroke="white"/>
<path d="M 1.903053 0.872391 L 1.912549 0.859513" stroke-width="0.008000" stroke="blue"/>
<path d="M 1.894926 0.787989 L 1.887586 0.802206" stroke-width="0.024000" stroke="white"/>
<path d="M 1.894926 0.787989 L 1.887586 0.802206" stroke-width="0.008000" stroke="blue"/>
<path d="M 1.861993 0.767050 L 1.856041 0.752198" stroke-width="0.024000" stroke="white"/>
<path d="M 1.861993 0.767050 L 1.856041 0.752198" stroke-width="0.008000" stroke="blue"/>
<path d="M 1.601045 0.645851 L 1.607256 0.660596" stroke-width="0.024000" stroke="white"/>
<path d="M 1.601045 0.645851 L 1.607256 0.660596" stroke-width="0.008000" stroke="blue"/>
<path d="M 0.868096 1.492273 L 0.863955 1.507727" stroke-width="0.024000" stroke="white"/>
<path d="M 0.868096 1.492273 L 0.863955 1.507727" stroke-width="0.008000" stroke="blue"/>
<path d="M 1.974794 1.279321 L 1.962042 1.288985" stroke-width="0.024000" stroke="white"/>
<path d="M 1.974794 1.279321 L 1.962042 1.288985" stroke-width="0.008000" stroke="blue"/>
<path d="M 1.940214 1.023416 L 1.947392 1.009117" stroke-width="0.024000" stroke="white"/>
<path d="M 1.940214 1.023416 L 1.947392 1.009117" stroke-width="0.008000" stroke="blue"/>
<path d="M 1.876170 0.847122 L 1.861335 0.841128" stroke-width="0.024000" stroke="white"/>
<path d="M 1.876170 0.847122 L 1.861335 0.841128" stroke-width="0.008000" stroke="blue"/>
<path d="M 1.805764 0.815482 L 1.801986 0.831029" stroke-width="0.024000" stroke="white"/>
<path d="M 1.805764 0.815482 L 1.801986 0.831029" stroke-width="0.008000" stroke="blue"/>
</svg>
