<svg xmlns="http://www.w3.org/2000/svg" width="400" height="400" viewBox="0 0 3 3" stroke="blue" stroke-width="0.008000" fill="none">
<path d="M 1.938754 0.928949 A 0.259181 0.259181 0 0 1 1.890969 1.275255"/>
<path d="M 1.890969 1.275255 A 0.362741 0.362741 0 0 1 1.819537 0.949490"/>
<path d="M 1.819537 0.949490 A 0.074254 0.074254 0 0 0 1.894801 0.926475"/>
<path d="M 1.894801 0.926475 A 0.035934 0.035934 0 0 0 1.938754 0.928949"/>
<path d="M 1.877100 0.895817 A 0.047401 0.047401 0 0 1 1.912768 0.903133"/>
<path d="M 1.912768 0.903133 A 0.247720 0.247720 0 0 1 1.894801 0.926475"/>
<path d="M 1.894801 0.926475 A 0.054353 0.054353 0 0 1 1.877100 0.895817"/>
<path d="M 1.938754 0.928949 A 0.099236 0.099236 0 0 0 1.912768 0.903133"/>
<path d="M 1.912768 0.903133 A 0.247720 0.247720 0 0 0 1.933268 0.866651"/>
<path d="M 1.933268 0.866651 A 0.035934 0.035934 0 0 1 1.938754 0.928949"/>
<path d="M 1.819537 0.949490 A 0.362741 0.362741 0 0 1 1.573132 0.724745"/>
<path d="M 1.573132 0.724745 A 0.274211 0.274211 0 0 1 1.902127 0.839064"/>
<path d="M 1.902127 0.839064 A 0.054353 0.054353 0 0 0 1.877100 0.895817"/>
<path d="M 1.877100 0.895817 A 0.074254 0.074254 0 0 0 1.819537 0.949490"/>
<path d="M 1.890969 1.275255 A 0.590770 0.590770 0 1 1 0.866025 1.500000"/>
<path d="M 0.866025 1.500000 A 1.141281 1.141281 0 0 0 1.890969 1.275255"/>
<path d="M 1.902127 0.839064 A 0.021758 0.021758 0 0 1 1.933268 0.866651"/>
<path d="M 1.933268 0.866651 A 0.070944 0.070944 0 0 1 1.902127 0.839064"/>
<path d="M 1.573132 0.724745 A 1.141281 1.141281 0 0 0 0.866025 1.500000"/>
<path d="M 0.866025 1.500000 A 0.590770 0.590770 0 1 1 1.573132 0.724745"/>
<path d="M 1.889553 0.932513 L 1.900049 0.920437" stroke-width="0.024000" stroke="white"/>
<path d="M 1.889553 0.932513 L 1.900049 0.920437" stroke-width="0.008000" stroke="blue"/>
<path d="M 1.932165 0.933486 L 1.945342 0.924412" stroke-width="0.024000" stroke="white"/>
<path d="M 1.932165 0.933486 L 1.945342 0.924412" stroke-width="0.008000" stroke="blue"/>
<path d="M 1.936583 0.859370 L 1.929952 0.873931" stroke-width="0.024000" stroke="white"/>
<path d="M 1.936583 0.859370 L 1.929952 0.873931" stroke-width="0.008000" stroke="blue"/>
<path d="M 1.906296 0.845891 L 1.897957 0.832236" stroke-width="0.024000" stroke="white"/>
<path d="M 1.906296 0.845891 L 1.897957 0.832236" stroke-width="0.008000" stroke="blue"/>
<path d="M 1.570361 0.717240 L 1.575903 0.732250" stroke-width="0.024000" stroke="white"/>
<path d="M 1.570361 0.717240 L 1.575903 0.732250" stroke-width="0.008000" stroke="blue"/>
<path d="M 0.868096 1.492273 L 0.863955 1.507727" stroke-width="0.024000" stroke="white"/>
<path d="M 0.868096 1.492273 L 0.863955 1.507727" stroke-width="0.008000" stroke="blue"/>
<path d="M 1.897121 1.270141 L 1.884817 1.280369" stroke-width="0.024000" stroke="white"/>
<path d="M 1.897121 1.270141 L 1.884817 1.280369" stroke-width="0.008000" stroke="blue"/>
<path d="M 1.817467 0.957217 L 1.821608 0.941762" stroke-width="0.024000" stroke="white"/>
<path d="M 1.817467 0.957217 L 1.821608 0.941762" stroke-width="0.008000" stroke="blue"/>
<path d="M 1.878626 0.903670 L 1.875574 0.887963" stroke-width="0.024000" stroke="white"/>
<path d="M 1.878626 0.903670 L 1.875574 0.887963" stroke-width="0.008000" stroke="blue"/>
<path d="M 1.906150 0.898639 L 1.919386 0.907627" stroke-width="0.024000" stroke="white"/>
<path d="M 1.906150 0.898639 L 1.919386 0.907627" stroke-width="0.008000" stroke="blue"/>
</svg>
