<svg xmlns="http://www.w3.org/2000/svg" width="400" height="400" viewBox="0 0 3 3" stroke="blue" stroke-width="0.008000" fill="none">
<path d="M 1.466850 1.038278 A 0.469243 0.469243 0 0 1 1.964102 0.866025"/>
<path d="M 1.964102 0.866025 A 0.896575 0.896575 0 0 1 1.732051 1.267949"/>
<path d="M 1.732051 1.267949 A 0.200841 0.200841 0 0 0 1.566300 1.210532"/>
<path d="M 1.566300 1.210532 A 0.090306 0.090306 0 0 0 1.500000 1.133975"/>
<path d="M 1.500000 1.133975 A 0.090306 0.090306 0 0 0 1.466850 1.038278"/>
<path d="M 1.507520 1.226857 A 0.200841 0.200841 0 0 0 1.425098 1.295365"/>
<path d="M 1.425098 1.295365 A 0.131268 0.131268 0 0 1 1.423321 1.081020"/>
<path d="M 1.423321 1.081020 A 0.138701 0.138701 0 0 0 1.500000 1.133975"/>
<path d="M 1.500000 1.133975 A 0.138701 0.138701 0 0 0 1.507520 1.226857"/>
<path d="M 1.466850 1.038278 A 0.200841 0.200841 0 0 1 1.423321 1.081020"/>
<path d="M 1.423321 1.081020 A 0.030860 0.030860 0 0 1 1.466850 1.038278"/>
<path d="M 1.546942 1.277869 A 0.138701 0.138701 0 0 1 1.507520 1.226857"/>
<path d="M 1.507520 1.226857 A 0.200841 0.200841 0 0 1 1.566300 1.210532"/>
<path d="M 1.566300 1.210532 A 0.090306 0.090306 0 0 1 1.546942 1.277869"/>
<path d="M 1.546942 1.277869 A 0.138701 0.138701 0 0 0 1.732051 1.267949"/>
<path d="M 1.732051 1.267949 A 0.896575 0.896575 0 0 0 2.598076 1.500000"/>
<path d="M 2.598076 1.500000 A 0.656339 0.656339 0 1 1 1.425098 1.295365"/>
<path d="M 1.425098 1.295365 A 0.090306 0.090306 0 0 0 1.546942 1.277869"/>
<path d="M 1.964102 0.866025 A 0.517638 0.517638 0 1 1 2.598076 1.500000"/>
<path d="M 2.598076 1.500000 A 0.896575 0.896575 0 0 0 1.964102 0.866025"/>
<path d="M 1.507727 1.136045 L 1.492273 1.131904" stroke-width="0.024000" stroke="white"/>
<path d="M 1.507727 1.136045 L 1.492273 1.131904" stroke-width="0.008000" stroke="blue"/>
<path d="M 1.473257 1.043069 L 1.460443 1.033488" stroke-width="0.024000" stroke="white"/>
<path d="M 1.473257 1.043069 L 1.460443 1.033488" stroke-width="0.008000" stroke="blue"/>
<path d="M 1.416828 1.085694 L 1.429815 1.076347" stroke-width="0.024000" stroke="white"/>
<path d="M 1.416828 1.085694 L 1.429815 1.076347" stroke-width="0.008000" stroke="blue"/>
<path d="M 1.558356 1.211477 L 1.574244 1.209586" stroke-width="0.024000" stroke="white"/>
<path d="M 1.558356 1.211477 L 1.574244 1.209586" stroke-width="0.008000" stroke="blue"/>
<path d="M 1.551962 1.271640 L 1.541922 1.284098" stroke-width="0.024000" stroke="white"/>
<path d="M 1.551962 1.271640 L 1.541922 1.284098" stroke-width="0.008000" stroke="blue"/>
<path d="M 1.429663 1.288795 L 1.420534 1.301935" stroke-width="0.024000" stroke="white"/>
<path d="M 1.429663 1.288795 L 1.420534 1.301935" stroke-width="0.008000" stroke="blue"/>
<path d="M 1.956374 0.863955 L 1.971829 0.868096" stroke-width="0.024000" stroke="white"/>
<path d="M 1.956374 0.863955 L 1.971829 0.868096" stroke-width="0.008000" stroke="blue"/>
<path d="M 2.590349 1.502071 L 2.605804 1.497929" stroke-width="0.024000" stroke="white"/>
<path d="M 2.590349 1.502071 L 2.605804 1.497929" stroke-width="0.008000" stroke="blue"/>
<path d="M 1.510807 1.234151 L 1.504234 1.219564" stroke-width="0.024000" stroke="white"/>
<path d="M 1.510807 1.234151 L 1.504234 1.219564" stroke-width="0.008000" stroke="blue"/>
<path d="M 1.726394 1.273606 L 1.737708 1.262292" stroke-width="0.024000" stroke="white"/>
<path d="M 1.726394 1.273606 L 1.737708 1.262292" stroke-width="0.008000" stroke="blue"/>
</svg>
