<svg xmlns="http://www.w3.org/2000/svg" width="400" height="400" viewBox="0 0 3 3" stroke="blue" stroke-width="0.008000" fill="none">
<path d="M 1.882085 1.153817 A 2.393027 2.393027 0 0 1 1.770135 1.268368"/>
<path d="M 1.770135 1.268368 A 0.168005 0.168005 0 0 1 1.758145 1.050045"/>
<path d="M 1.758145 1.050045 A 0.326549 0.326549 0 0 0 1.868196 1.105134"/>
<path d="M 1.868196 1.105134 A 0.048236 0.048236 0 0 0 1.882085 1.153817"/>
<path d="M 1.881035 0.984534 A 0.138489 0.138489 0 0 1 2.027741 1.133564"/>
<path d="M 2.027741 1.133564 A 0.433194 0.433194 0 0 0 1.902770 1.141941"/>
<path d="M 1.902770 1.141941 A 0.048937 0.048937 0 0 0 1.868196 1.105134"/>
<path d="M 1.868196 1.105134 A 0.361631 0.361631 0 0 0 1.881035 0.984534"/>
<path d="M 1.882085 1.153817 A 0.039196 0.039196 0 0 1 1.902770 1.141941"/>
<path d="M 1.902770 1.141941 A 0.012520 0.012520 0 0 1 1.882085 1.153817"/>
<path d="M 1.553811 0.765292 A 0.247904 0.247904 0 0 1 1.881035 0.984534"/>
<path d="M 1.881035 0.984534 A 0.168005 0.168005 0 0 0 1.758145 1.050045"/>
<path d="M 1.758145 1.050045 A 0.603369 0.603369 0 0 1 1.553811 0.765292"/>
<path d="M 1.770135 1.268368 A 0.235963 0.235963 0 0 0 2.071528 1.301543"/>
<path d="M 2.071528 1.301543 A 0.670502 0.670502 0 1 1 0.866025 1.500000"/>
<path d="M 0.866025 1.500000 A 0.951487 0.951487 0 0 0 1.770135 1.268368"/>
<path d="M 2.071528 1.301543 A 0.265428 0.265428 0 0 1 2.027741 1.133564"/>
<path d="M 2.027741 1.133564 A 0.091846 0.091846 0 0 1 2.071528 1.301543"/>
<path d="M 1.553811 0.765292 A 1.067966 1.067966 0 0 0 0.866025 1.500000"/>
<path d="M 0.866025 1.500000 A 0.570497 0.570497 0 1 1 1.553811 0.765292"/>
<path d="M 1.860496 1.102966 L 1.875896 1.107303" stroke-width="0.024000" stroke="white"/>
<path d="M 1.860496 1.102966 L 1.875896 1.107303" stroke-width="0.008000" stroke="blue"/>
<path d="M 1.876179 1.148420 L 1.887990 1.159214" stroke-width="0.024000" stroke="white"/>
<path d="M 1.876179 1.148420 L 1.887990 1.159214" stroke-width="0.008000" stroke="blue"/>
<path d="M 1.910591 1.140258 L 1.894950 1.143625" stroke-width="0.024000" stroke="white"/>
<path d="M 1.910591 1.140258 L 1.894950 1.143625" stroke-width="0.008000" stroke="blue"/>
<path d="M 1.763010 1.043695 L 1.753280 1.056396" stroke-width="0.024000" stroke="white"/>
<path d="M 1.763010 1.043695 L 1.753280 1.056396" stroke-width="0.008000" stroke="blue"/>
<path d="M 1.556386 0.772866 L 1.551235 0.757718" stroke-width="0.024000" stroke="white"/>
<path d="M 1.556386 0.772866 L 1.551235 0.757718" stroke-width="0.008000" stroke="blue"/>
<path d="M 0.863955 1.507727 L 0.868096 1.492273" stroke-width="0.024000" stroke="white"/>
<path d="M 0.863955 1.507727 L 0.868096 1.492273" stroke-width="0.008000" stroke="blue"/>
<path d="M 1.764355 1.273899 L 1.775915 1.262837" stroke-width="0.024000" stroke="white"/>
<path d="M 1.764355 1.273899 L 1.775915 1.262837" stroke-width="0.008000" stroke="blue"/>
<path d="M 2.027117 1.141539 L 2.028366 1.125588" stroke-width="0.024000" stroke="white"/>
<path d="M 2.027117 1.141539 L 2.028366 1.125588" stroke-width="0.008000" stroke="blue"/>
<path d="M 2.078183 1.297105 L 2.064872 1.305982" stroke-width="0.024000" stroke="white"/>
<path d="M 2.078183 1.297105 L 2.064872 1.305982" stroke-width="0.008000" stroke="blue"/>
<path d="M 1.881534 0.992518 L 1.880535 0.976549" stroke-width="0.024000" stroke="white"/>
<path d="M 1.881534 0.992518 L 1.880535 0.976549" stroke-width="0.008000" stroke="blue"/>
</svg>
