<svg xmlns="http://www.w3.org/2000/svg" width="400" height="400" viewBox="0 0 3 3" stroke="blue" stroke-width="0.008000" fill="none">
<path d="M 1.370576 1.159016 A 0.060023 0.060023 0 0 1 1.438743 1.082606"/>
<path d="M 1.438743 1.082606 A 0.098094 0.098094 0 0 1 1.370576 1.159016"/>
<path d="M 1.598662 0.951427 A 9.782691 9.782691 0 0 0 1.597199 1.097060"/>
<path d="M 1.597199 1.097060 A 0.901515 0.901515 0 0 1 1.438743 1.082606"/>
<path d="M 1.438743 1.082606 A 0.159687 0.159687 0 0 1 1.598662 0.951427"/>
<path d="M 1.350004 1.310610 A 0.084080 0.084080 0 0 1 1.370576 1.159016"/>
<path d="M 1.370576 1.159016 A 0.184249 0.184249 0 0 1 1.350004 1.310610"/>
<path d="M 1.671690 1.269001 A 0.234276 0.234276 0 0 1 1.597199 1.097060"/>
<path d="M 1.597199 1.097060 A 0.429395 0.429395 0 0 0 1.716924 1.080356"/>
<path d="M 1.716924 1.080356 A 0.196864 0.196864 0 0 1 1.671690 1.269001"/>
<path d="M 1.899545 0.743075 A 0.735116 0.735116 0 0 1 1.734995 1.008027"/>
<path d="M 1.734995 1.008027 A 0.200992 0.200992 0 0 0 1.598662 0.951427"/>
<path d="M 1.598662 0.951427 A 0.225344 0.225344 0 0 1 1.899545 0.743075"/>
<path d="M 2.598076 1.500000 A 0.688939 0.688939 0 1 1 1.350004 1.310610"/>
<path d="M 1.350004 1.310610 A 0.254289 0.254289 0 0 0 1.671690 1.269001"/>
<path d="M 1.671690 1.269001 A 0.984623 0.984623 0 0 0 2.598076 1.500000"/>
<path d="M 1.734995 1.008027 A 0.043070 0.043070 0 0 1 1.716924 1.080356"/>
<path d="M 1.716924 1.080356 A 0.074412 0.074412 0 0 1 1.734995 1.008027"/>
<path d="M 1.899545 0.743075 A 0.581671 0.581671 0 1 1 2.598076 1.500000"/>
<path d="M 2.598076 1.500000 A 1.107800 1.107800 0 0 0 1.899545 0.743075"/>
<path d="M 1.430871 1.081179 L 1.446615 1.084033" stroke-width="0.024000" stroke="white"/>
<path d="M 1.430871 1.081179 L 1.446615 1.084033" stroke-width="0.008000" stroke="blue"/>
<path d="M 1.378235 1.156703 L 1.362918 1.161328" stroke-width="0.024000" stroke="white"/>
<path d="M 1.378235 1.156703 L 1.362918 1.161328" stroke-width="0.008000" stroke="blue"/>
<path d="M 1.345734 1.317375 L 1.354274 1.303844" stroke-width="0.024000" stroke="white"/>
<path d="M 1.345734 1.317375 L 1.354274 1.303844" stroke-width="0.008000" stroke="blue"/>
<path d="M 1.666233 1.274852 L 1.677146 1.263151" stroke-width="0.024000" stroke="white"/>
<path d="M 1.666233 1.274852 L 1.677146 1.263151" stroke-width="0.008000" stroke="blue"/>
<path d="M 1.724613 1.078146 L 1.709235 1.082566" stroke-width="0.024000" stroke="white"/>
<path d="M 1.724613 1.078146 L 1.709235 1.082566" stroke-width="0.008000" stroke="blue"/>
<path d="M 1.729429 1.013773 L 1.740561 1.002281" stroke-width="0.024000" stroke="white"/>
<path d="M 1.729429 1.013773 L 1.740561 1.002281" stroke-width="0.008000" stroke="blue"/>
<path d="M 1.907081 0.745758 L 1.892008 0.740392" stroke-width="0.024000" stroke="white"/>
<path d="M 1.907081 0.745758 L 1.892008 0.740392" stroke-width="0.008000" stroke="blue"/>
<path d="M 2.605804 1.497929 L 2.590349 1.502071" stroke-width="0.024000" stroke="white"/>
<path d="M 2.605804 1.497929 L 2.590349 1.502071" stroke-width="0.008000" stroke="blue"/>
<path d="M 1.597178 1.105060 L 1.597220 1.089060" stroke-width="0.024000" stroke="white"/>
<path d="M 1.597178 1.105060 L 1.597220 1.089060" stroke-width="0.008000" stroke="blue"/>
<path d="M 1.606661 0.951567 L 1.590664 0.951287" stroke-width="0.024000" stroke="white"/>
<path d="M 1.606661 0.951567 L 1.590664 0.951287" stroke-width="0.008000" stroke="blue"/>
</svg>
