<svg xmlns="http://www.w3.org/2000/svg" width="400" height="400" viewBox="0 0 3 3" stroke="blue" stroke-width="0.008000" fill="none">
<path d="M 1.878936 0.849289 A 0.330771 0.330771 0 0 1 1.820194 1.270193"/>
<path d="M 1.820194 1.270193 A 0.902108 0.902108 0 0 1 1.638713 0.964914"/>
<path d="M 1.638713 0.964914 A 0.244205 0.244205 0 0 0 1.771630 0.852287"/>
<path d="M 1.771630 0.852287 A 0.105984 0.105984 0 0 0 1.878936 0.849289"/>
<path d="M 1.639945 0.824015 A 0.535556 0.535556 0 0 0 1.600734 0.661551"/>
<path d="M 1.600734 0.661551 A 0.186694 0.186694 0 0 1 1.853609 0.789394"/>
<path d="M 1.853609 0.789394 A 0.128638 0.128638 0 0 0 1.771630 0.852287"/>
<path d="M 1.771630 0.852287 A 0.234225 0.234225 0 0 0 1.639945 0.824015"/>
<path d="M 1.878936 0.849289 A 0.205461 0.205461 0 0 1 1.853609 0.789394"/>
<path d="M 1.853609 0.789394 A 0.032930 0.032930 0 0 1 1.878936 0.849289"/>
<path d="M 1.489029 0.884755 A 1.357925 1.357925 0 0 1 1.612062 0.859431"/>
<path d="M 1.612062 0.859431 A 0.600328 0.600328 0 0 0 1.638713 0.964914"/>
<path d="M 1.638713 0.964914 A 0.115062 0.115062 0 0 1 1.489029 0.884755"/>
<path d="M 1.820194 1.270193 A 0.558614 0.558614 0 1 1 0.866025 1.500000"/>
<path d="M 0.866025 1.500000 A 1.027065 1.027065 0 0 0 1.820194 1.270193"/>
<path d="M 1.489029 0.884755 A 0.866207 0.866207 0 0 0 0.866025 1.500000"/>
<path d="M 0.866025 1.500000 A 0.621374 0.621374 0 1 1 1.600734 0.661551"/>
<path d="M 1.600734 0.661551 A 0.190729 0.190729 0 0 0 1.489029 0.884755"/>
<path d="M 1.612062 0.859431 A 0.030719 0.030719 0 0 1 1.639945 0.824015"/>
<path d="M 1.639945 0.824015 A 0.033166 0.033166 0 0 1 1.612062 0.859431"/>
<path d="M 1.767773 0.859296 L 1.775488 0.845278" stroke-width="0.024000" stroke="white"/>
<path d="M 1.767773 0.859296 L 1.775488 0.845278" stroke-width="0.008000" stroke="blue"/>
<path d="M 1.872154 0.853531 L 1.885719 0.845046" stroke-width="0.024000" stroke="white"/>
<path d="M 1.872154 0.853531 L 1.885719 0.845046" stroke-width="0.008000" stroke="blue"/>
<path d="M 1.851699 0.781625 L 1.855520 0.797162" stroke-width="0.024000" stroke="white"/>
<path d="M 1.851699 0.781625 L 1.855520 0.797162" stroke-width="0.008000" stroke="blue"/>
<path d="M 1.636058 0.957367 L 1.641367 0.972461" stroke-width="0.024000" stroke="white"/>
<path d="M 1.636058 0.957367 L 1.641367 0.972461" stroke-width="0.008000" stroke="blue"/>
<path d="M 1.491003 0.892508 L 1.487056 0.877002" stroke-width="0.024000" stroke="white"/>
<path d="M 1.491003 0.892508 L 1.487056 0.877002" stroke-width="0.008000" stroke="blue"/>
<path d="M 1.603802 0.668940 L 1.597667 0.654163" stroke-width="0.024000" stroke="white"/>
<path d="M 1.603802 0.668940 L 1.597667 0.654163" stroke-width="0.008000" stroke="blue"/>
<path d="M 1.826132 1.264832 L 1.814257 1.275555" stroke-width="0.024000" stroke="white"/>
<path d="M 1.826132 1.264832 L 1.814257 1.275555" stroke-width="0.008000" stroke="blue"/>
<path d="M 0.868096 1.492273 L 0.863955 1.507727" stroke-width="0.024000" stroke="white"/>
<path d="M 0.868096 1.492273 L 0.863955 1.507727" stroke-width="0.008000" stroke="blue"/>
<path d="M 1.631971 0.824656 L 1.647920 0.823375" stroke-width="0.024000" stroke="white"/>
<path d="M 1.631971 0.824656 L 1.647920 0.823375" stroke-width="0.008000" stroke="blue"/>
<path d="M 1.619964 0.858182 L 1.604160 0.860679" stroke-width="0.024000" stroke="white"/>
<path d="M 1.619964 0.858182 L 1.604160 0.860679" stroke-width="0.008000" stroke="blue"/>
</svg>
