<svg xmlns="http://www.w3.org/2000/svg" width="400" height="400" viewBox="0 0 3 3" stroke="blue" stroke-width="0.008000" fill="none">
<path d="M 1.755057 1.104668 A 0.143379 0.143379 0 0 1 1.754143 1.192791"/>
<path d="M 1.754143 1.192791 A 0.147933 0.147933 0 0 1 1.683025 1.141665"/>
<path d="M 1.683025 1.141665 A 0.235918 0.235918 0 0 1 1.755057 1.104668"/>
<path d="M 1.542342 1.278370 A 0.162658 0.162658 0 0 1 1.619119 0.990715"/>
<path d="M 1.619119 0.990715 A 0.335913 0.335913 0 0 0 1.683025 1.141665"/>
<path d="M 1.683025 1.141665 A 0.792431 0.792431 0 0 0 1.542342 1.278370"/>
<path d="M 1.767140 1.069862 A 0.022902 0.022902 0 0 1 1.755057 1.104668"/>
<path d="M 1.755057 1.104668 A 0.031008 0.031008 0 0 1 1.767140 1.069862"/>
<path d="M 1.771053 1.268388 A 0.074984 0.074984 0 0 1 1.754143 1.192791"/>
<path d="M 1.754143 1.192791 A 0.045235 0.045235 0 0 1 1.771053 1.268388"/>
<path d="M 1.767149 1.024354 A 0.205948 0.205948 0 0 0 1.619119 0.990715"/>
<path d="M 1.619119 0.990715 A 0.216490 0.216490 0 0 1 1.904341 0.753093"/>
<path d="M 1.904341 0.753093 A 1.149100 1.149100 0 0 1 1.767149 1.024354"/>
<path d="M 1.771053 1.268388 A 0.842466 0.842466 0 0 0 2.598076 1.500000"/>
<path d="M 2.598076 1.500000 A 0.604580 0.604580 0 1 1 1.542342 1.278370"/>
<path d="M 1.542342 1.278370 A 0.173739 0.173739 0 0 0 1.771053 1.268388"/>
<path d="M 1.767140 1.069862 A 0.040257 0.040257 0 0 1 1.767149 1.024354"/>
<path d="M 1.767149 1.024354 A 0.027583 0.027583 0 0 1 1.767140 1.069862"/>
<path d="M 2.598076 1.500000 A 1.089741 1.089741 0 0 0 1.904341 0.753093"/>
<path d="M 1.904341 0.753093 A 0.576653 0.576653 0 1 1 2.598076 1.500000"/>
<path d="M 1.687847 1.148049 L 1.678203 1.135282" stroke-width="0.024000" stroke="white"/>
<path d="M 1.687847 1.148049 L 1.678203 1.135282" stroke-width="0.008000" stroke="blue"/>
<path d="M 1.747419 1.107047 L 1.762695 1.102288" stroke-width="0.024000" stroke="white"/>
<path d="M 1.747419 1.107047 L 1.762695 1.102288" stroke-width="0.008000" stroke="blue"/>
<path d="M 1.773741 1.065341 L 1.760540 1.074382" stroke-width="0.024000" stroke="white"/>
<path d="M 1.773741 1.065341 L 1.760540 1.074382" stroke-width="0.008000" stroke="blue"/>
<path d="M 1.762626 1.030952 L 1.771673 1.017755" stroke-width="0.024000" stroke="white"/>
<path d="M 1.762626 1.030952 L 1.771673 1.017755" stroke-width="0.008000" stroke="blue"/>
<path d="M 1.911895 0.755727 L 1.896788 0.750458" stroke-width="0.024000" stroke="white"/>
<path d="M 1.911895 0.755727 L 1.896788 0.750458" stroke-width="0.008000" stroke="blue"/>
<path d="M 2.605804 1.497929 L 2.590349 1.502071" stroke-width="0.024000" stroke="white"/>
<path d="M 2.605804 1.497929 L 2.590349 1.502071" stroke-width="0.008000" stroke="blue"/>
<path d="M 1.776836 1.262860 L 1.765271 1.273916" stroke-width="0.024000" stroke="white"/>
<path d="M 1.776836 1.262860 L 1.765271 1.273916" stroke-width="0.008000" stroke="blue"/>
<path d="M 1.751606 1.200378 L 1.756681 1.185204" stroke-width="0.024000" stroke="white"/>
<path d="M 1.751606 1.200378 L 1.756681 1.185204" stroke-width="0.008000" stroke="blue"/>
<path d="M 1.627024 0.989487 L 1.611213 0.991942" stroke-width="0.024000" stroke="white"/>
<path d="M 1.627024 0.989487 L 1.611213 0.991942" stroke-width="0.008000" stroke="blue"/>
<path d="M 1.537339 1.284612 L 1.547345 1.272127" stroke-width="0.024000" stroke="white"/>
<path d="M 1.537339 1.284612 L 1.547345 1.272127" stroke-width="0.008000" stroke="blue"/>
</svg>
