<svg xmlns="http://www.w3.org/2000/svg" width="400" height="400" viewBox="0 0 3 3" stroke="blue" stroke-width="0.008000" fill="none">
<path d="M 1.997041 1.107829 A 0.427663 0.427663 0 0 0 2.064753 1.136819"/>
<path d="M 2.064753 1.136819 A 0.234792 0.234792 0 0 1 2.016891 1.219719"/>
<path d="M 2.016891 1.219719 A 0.176031 0.176031 0 0 1 1.964102 1.133975"/>
<path d="M 1.964102 1.133975 A 0.052859 0.052859 0 0 0 1.997041 1.107829"/>
<path d="M 1.732051 1.267949 A 0.240237 0.240237 0 0 1 1.964102 0.866025"/>
<path d="M 1.964102 0.866025 A 0.336135 0.336135 0 0 0 1.983270 1.093197"/>
<path d="M 1.983270 1.093197 A 0.034921 0.034921 0 0 0 1.964102 1.133975"/>
<path d="M 1.964102 1.133975 A 0.517638 0.517638 0 0 0 1.732051 1.267949"/>
<path d="M 1.997041 1.107829 A 0.031469 0.031469 0 0 1 1.983270 1.093197"/>
<path d="M 1.983270 1.093197 A 0.010601 0.010601 0 0 1 1.997041 1.107829"/>
<path d="M 2.013098 1.290903 A 0.056991 0.056991 0 0 1 2.016891 1.219719"/>
<path d="M 2.016891 1.219719 A 0.045678 0.045678 0 0 1 2.013098 1.290903"/>
<path d="M 2.064753 1.136819 A 0.056991 0.056991 0 0 1 2.124504 1.097942"/>
<path d="M 2.124504 1.097942 A 0.045678 0.045678 0 0 1 2.064753 1.136819"/>
<path d="M 2.013098 1.290903 A 0.546049 0.546049 0 0 0 2.598076 1.500000"/>
<path d="M 2.598076 1.500000 A 0.517638 0.517638 0 1 1 1.732051 1.267949"/>
<path d="M 1.732051 1.267949 A 0.217848 0.217848 0 0 0 2.013098 1.290903"/>
<path d="M 1.964102 0.866025 A 0.517638 0.517638 0 1 1 2.598076 1.500000"/>
<path d="M 2.598076 1.500000 A 0.546049 0.546049 0 0 0 2.124504 1.097942"/>
<path d="M 2.124504 1.097942 A 0.217848 0.217848 0 0 0 1.964102 0.866025"/>
<path d="M 1.966172 1.141702 L 1.962031 1.126247" stroke-width="0.024000" stroke="white"/>
<path d="M 1.966172 1.141702 L 1.962031 1.126247" stroke-width="0.008000" stroke="blue"/>
<path d="M 1.993271 1.114884 L 2.000812 1.100773" stroke-width="0.024000" stroke="white"/>
<path d="M 1.993271 1.114884 L 2.000812 1.100773" stroke-width="0.008000" stroke="blue"/>
<path d="M 1.979934 1.085925 L 1.986606 1.100468" stroke-width="0.024000" stroke="white"/>
<path d="M 1.979934 1.085925 L 1.986606 1.100468" stroke-width="0.008000" stroke="blue"/>
<path d="M 2.011563 1.225686 L 2.022219 1.213752" stroke-width="0.024000" stroke="white"/>
<path d="M 2.011563 1.225686 L 2.022219 1.213752" stroke-width="0.008000" stroke="blue"/>
<path d="M 2.019598 1.286239 L 2.006598 1.295567" stroke-width="0.024000" stroke="white"/>
<path d="M 2.019598 1.286239 L 2.006598 1.295567" stroke-width="0.008000" stroke="blue"/>
<path d="M 1.737708 1.262292 L 1.726394 1.273606" stroke-width="0.024000" stroke="white"/>
<path d="M 1.737708 1.262292 L 1.726394 1.273606" stroke-width="0.008000" stroke="blue"/>
<path d="M 1.956374 0.863955 L 1.971829 0.868096" stroke-width="0.024000" stroke="white"/>
<path d="M 1.956374 0.863955 L 1.971829 0.868096" stroke-width="0.008000" stroke="blue"/>
<path d="M 2.116543 1.097153 L 2.132465 1.098732" stroke-width="0.024000" stroke="white"/>
<path d="M 2.116543 1.097153 L 2.132465 1.098732" stroke-width="0.008000" stroke="blue"/>
<path d="M 2.072351 1.139323 L 2.057155 1.134316" stroke-width="0.024000" stroke="white"/>
<path d="M 2.072351 1.139323 L 2.057155 1.134316" stroke-width="0.008000" stroke="blue"/>
<path d="M 2.605804 1.497929 L 2.590349 1.502071" stroke-width="0.024000" stroke="white"/>
<path d="M 2.605804 1.497929 L 2.590349 1.502071" stroke-width="0.008000" stroke="blue"/>
</svg>
