<svg xmlns="http://www.w3.org/2000/svg" width="400" height="400" viewBox="0 0 3 3" stroke="blue" stroke-width="0.008000" fill="none">
<path d="M 1.478225 1.085845 A 0.140179 0.140179 0 0 1 1.379951 1.161183"/>
<path d="M 1.379951 1.161183 A 0.069011 0.069011 0 0 1 1.478225 1.085845"/>
<path d="M 1.352255 1.310102 A 0.081568 0.081568 0 0 1 1.379951 1.161183"/>
<path d="M 1.379951 1.161183 A 0.203955 0.203955 0 0 1 1.352255 1.310102"/>
<path d="M 1.478225 1.085845 A 0.420601 0.420601 0 0 1 1.964102 0.866025"/>
<path d="M 1.964102 0.866025 A 0.896575 0.896575 0 0 1 1.732051 1.267949"/>
<path d="M 1.732051 1.267949 A 0.962144 0.962144 0 0 0 1.478225 1.085845"/>
<path d="M 2.598076 1.500000 A 0.687967 0.687967 0 1 1 1.352255 1.310102"/>
<path d="M 1.352255 1.310102 A 0.305805 0.305805 0 0 0 1.732051 1.267949"/>
<path d="M 1.732051 1.267949 A 0.896575 0.896575 0 0 0 2.598076 1.500000"/>
<path d="M 2.598076 1.500000 A 0.896575 0.896575 0 0 0 1.964102 0.866025"/>
<path d="M 1.964102 0.866025 A 0.517638 0.517638 0 1 1 2.598076 1.500000"/>
<path d="M 1.387796 1.159621 L 1.372105 1.162746" stroke-width="0.024000" stroke="white"/>
<path d="M 1.387796 1.159621 L 1.372105 1.162746" stroke-width="0.008000" stroke="blue"/>
<path d="M 1.471054 1.082298 L 1.485396 1.089391" stroke-width="0.024000" stroke="white"/>
<path d="M 1.471054 1.082298 L 1.485396 1.089391" stroke-width="0.008000" stroke="blue"/>
<path d="M 1.726394 1.273606 L 1.737708 1.262292" stroke-width="0.024000" stroke="white"/>
<path d="M 1.726394 1.273606 L 1.737708 1.262292" stroke-width="0.008000" stroke="blue"/>
<path d="M 2.590349 1.502071 L 2.605804 1.497929" stroke-width="0.024000" stroke="white"/>
<path d="M 2.590349 1.502071 L 2.605804 1.497929" stroke-width="0.008000" stroke="blue"/>
<path d="M 1.956374 0.863955 L 1.971829 0.868096" stroke-width="0.024000" stroke="white"/>
<path d="M 1.956374 0.863955 L 1.971829 0.868096" stroke-width="0.008000" stroke="blue"/>
<path d="M 1.356534 1.303342 L 1.347976 1.316862" stroke-width="0.024000" stroke="white"/>
<path d="M 1.356534 1.303342 L 1.347976 1.316862" stroke-width="0.008000" stroke="blue"/>
</svg>
