<svg xmlns="http://www.w3.org/2000/svg" width="400" height="400" viewBox="0 0 3 3" stroke="blue" stroke-width="0.008000" fill="none">
<path d="M 1.741369 1.016140 A 0.016709 0.016709 0 0 1 1.718425 1.033325"/>
<path d="M 1.718425 1.033325 A 0.027888 0.027888 0 0 1 1.741369 1.016140"/>
<path d="M 1.573132 1.275255 A 0.187769 0.187769 0 0 1 1.644564 0.949490"/>
<path d="M 1.644564 0.949490 A 0.125729 0.125729 0 0 0 1.718425 1.033325"/>
<path d="M 1.718425 1.033325 A 0.927721 0.927721 0 0 1 1.573132 1.275255"/>
<path d="M 1.750687 1.000000 A 0.011504 0.011504 0 0 1 1.741369 1.016140"/>
<path d="M 1.741369 1.016140 A 0.015889 0.015889 0 0 1 1.750687 1.000000"/>
<path d="M 1.754098 0.971537 A 0.125729 0.125729 0 0 0 1.644564 0.949490"/>
<path d="M 1.644564 0.949490 A 0.187769 0.187769 0 0 1 1.890969 0.724745"/>
<path d="M 1.890969 0.724745 A 0.927721 0.927721 0 0 1 1.754098 0.971537"/>
<path d="M 2.598076 1.500000 A 0.590770 0.590770 0 1 1 1.573132 1.275255"/>
<path d="M 1.573132 1.275255 A 1.141281 1.141281 0 0 0 2.598076 1.500000"/>
<path d="M 1.750687 1.000000 A 0.027888 0.027888 0 0 1 1.754098 0.971537"/>
<path d="M 1.754098 0.971537 A 0.016709 0.016709 0 0 1 1.750687 1.000000"/>
<path d="M 2.598076 1.500000 A 1.141281 1.141281 0 0 0 1.890969 0.724745"/>
<path d="M 1.890969 0.724745 A 0.590770 0.590770 0 1 1 2.598076 1.500000"/>
<path d="M 1.725830 1.036353 L 1.711020 1.030297" stroke-width="0.024000" stroke="white"/>
<path d="M 1.725830 1.036353 L 1.711020 1.030297" stroke-width="0.008000" stroke="blue"/>
<path d="M 1.733412 1.016963 L 1.749327 1.015317" stroke-width="0.024000" stroke="white"/>
<path d="M 1.733412 1.016963 L 1.749327 1.015317" stroke-width="0.008000" stroke="blue"/>
<path d="M 1.757990 0.996734 L 1.743384 1.003266" stroke-width="0.024000" stroke="white"/>
<path d="M 1.757990 0.996734 L 1.743384 1.003266" stroke-width="0.008000" stroke="blue"/>
<path d="M 1.749199 0.977862 L 1.758997 0.965212" stroke-width="0.024000" stroke="white"/>
<path d="M 1.749199 0.977862 L 1.758997 0.965212" stroke-width="0.008000" stroke="blue"/>
<path d="M 1.898474 0.727516 L 1.883465 0.721974" stroke-width="0.024000" stroke="white"/>
<path d="M 1.898474 0.727516 L 1.883465 0.721974" stroke-width="0.008000" stroke="blue"/>
<path d="M 2.605804 1.497929 L 2.590349 1.502071" stroke-width="0.024000" stroke="white"/>
<path d="M 2.605804 1.497929 L 2.590349 1.502071" stroke-width="0.008000" stroke="blue"/>
<path d="M 1.578246 1.269103 L 1.568018 1.281407" stroke-width="0.024000" stroke="white"/>
<path d="M 1.578246 1.269103 L 1.568018 1.281407" stroke-width="0.008000" stroke="blue"/>
<path d="M 1.636837 0.951560 L 1.652292 0.947419" stroke-width="0.024000" stroke="white"/>
<path d="M 1.636837 0.951560 L 1.652292 0.947419" stroke-width="0.008000" stroke="blue"/>
</svg>
