<svg xmlns="http://www.w3.org/2000/svg" width="400" height="400" viewBox="0 0 3 3" stroke="blue" stroke-width="0.008000" fill="none">
<path d="M 1.912952 0.870369 A 0.072482 0.072482 0 0 1 1.939231 0.980441"/>
<path d="M 1.939231 0.980441 A 0.190366 0.190366 0 0 0 1.881422 0.949715"/>
<path d="M 1.881422 0.949715 A 0.683368 0.683368 0 0 1 1.912952 0.870369"/>
<path d="M 1.867478 1.009336 A 0.071884 0.071884 0 0 1 1.805901 0.937107"/>
<path d="M 1.805901 0.937107 A 0.255658 0.255658 0 0 1 1.881422 0.949715"/>
<path d="M 1.881422 0.949715 A 0.356517 0.356517 0 0 0 1.867478 1.009336"/>
<path d="M 1.912952 0.870369 A 0.091326 0.091326 0 0 1 1.864069 0.812745"/>
<path d="M 1.864069 0.812745 A 0.041501 0.041501 0 0 1 1.912952 0.870369"/>
<path d="M 1.939803 1.280454 A 0.356517 0.356517 0 0 1 1.867478 1.009336"/>
<path d="M 1.867478 1.009336 A 0.076951 0.076951 0 0 0 1.939231 0.980441"/>
<path d="M 1.939231 0.980441 A 0.190366 0.190366 0 0 1 1.939803 1.280454"/>
<path d="M 1.774920 0.884101 A 0.059308 0.059308 0 0 1 1.805901 0.937107"/>
<path d="M 1.805901 0.937107 A 0.035878 0.035878 0 0 1 1.774920 0.884101"/>
<path d="M 1.774920 0.884101 A 0.403790 0.403790 0 0 1 1.593047 0.679854"/>
<path d="M 1.593047 0.679854 A 0.203059 0.203059 0 0 1 1.864069 0.812745"/>
<path d="M 1.864069 0.812745 A 0.147312 0.147312 0 0 0 1.774920 0.884101"/>
<path d="M 1.939803 1.280454 A 0.612627 0.612627 0 1 1 0.866025 1.500000"/>
<path d="M 0.866025 1.500000 A 1.225765 1.225765 0 0 0 1.939803 1.280454"/>
<path d="M 1.593047 0.679854 A 1.225765 1.225765 0 0 0 0.866025 1.500000"/>
<path d="M 0.866025 1.500000 A 0.612627 0.612627 0 1 1 1.593047 0.679854"/>
<path d="M 1.889027 0.952199 L 1.873818 0.947231" stroke-width="0.024000" stroke="white"/>
<path d="M 1.889027 0.952199 L 1.873818 0.947231" stroke-width="0.008000" stroke="blue"/>
<path d="M 1.909539 0.877604 L 1.916365 0.863133" stroke-width="0.024000" stroke="white"/>
<path d="M 1.909539 0.877604 L 1.916365 0.863133" stroke-width="0.008000" stroke="blue"/>
<path d="M 1.861881 0.805050 L 1.866256 0.820440" stroke-width="0.024000" stroke="white"/>
<path d="M 1.861881 0.805050 L 1.866256 0.820440" stroke-width="0.008000" stroke="blue"/>
<path d="M 1.778740 0.877072 L 1.771100 0.891130" stroke-width="0.024000" stroke="white"/>
<path d="M 1.778740 0.877072 L 1.771100 0.891130" stroke-width="0.008000" stroke="blue"/>
<path d="M 1.805781 0.945106 L 1.806022 0.929108" stroke-width="0.024000" stroke="white"/>
<path d="M 1.805781 0.945106 L 1.806022 0.929108" stroke-width="0.008000" stroke="blue"/>
<path d="M 1.934317 0.986754 L 1.944144 0.974127" stroke-width="0.024000" stroke="white"/>
<path d="M 1.934317 0.986754 L 1.944144 0.974127" stroke-width="0.008000" stroke="blue"/>
<path d="M 1.946098 1.275516 L 1.933509 1.285391" stroke-width="0.024000" stroke="white"/>
<path d="M 1.946098 1.275516 L 1.933509 1.285391" stroke-width="0.008000" stroke="blue"/>
<path d="M 0.868096 1.492273 L 0.863955 1.507727" stroke-width="0.024000" stroke="white"/>
<path d="M 0.868096 1.492273 L 0.863955 1.507727" stroke-width="0.008000" stroke="blue"/>
<path d="M 1.590064 0.672431 L 1.596029 0.687277" stroke-width="0.024000" stroke="white"/>
<path d="M 1.590064 0.672431 L 1.596029 0.687277" stroke-width="0.008000" stroke="blue"/>
<path d="M 1.866332 1.017254 L 1.868624 1.001419" stroke-width="0.024000" stroke="white"/>
<path d="M 1.866332 1.017254 L 1.868624 1.001419" stroke-width="0.008000" stroke="blue"/>
</svg>
