<svg xmlns="http://www.w3.org/2000/svg" width="400" height="400" viewBox="0 0 3 3" stroke="blue" stroke-width="0.008000" fill="none">
<path d="M 1.490036 1.025828 A 0.175723 0.175723 0 0 1 1.640056 0.867933"/>
<path d="M 1.640056 0.867933 A 0.230034 0.230034 0 0 1 1.572929 1.065338"/>
<path d="M 1.572929 1.065338 A 0.132682 0.132682 0 0 0 1.490036 1.025828"/>
<path d="M 1.580750 1.274570 A 1.465738 1.465738 0 0 0 1.468536 1.189293"/>
<path d="M 1.468536 1.189293 A 0.128163 0.128163 0 0 0 1.490398 1.103858"/>
<path d="M 1.490398 1.103858 A 0.138126 0.138126 0 0 0 1.572929 1.065338"/>
<path d="M 1.572929 1.065338 A 0.156064 0.156064 0 0 1 1.580750 1.274570"/>
<path d="M 1.490036 1.025828 A 0.406733 0.406733 0 0 0 1.490398 1.103858"/>
<path d="M 1.490398 1.103858 A 0.330969 0.330969 0 0 0 1.415979 1.120193"/>
<path d="M 1.415979 1.120193 A 0.071423 0.071423 0 0 1 1.490036 1.025828"/>
<path d="M 1.873025 0.684453 A 0.296066 0.296066 0 0 1 1.640056 0.867933"/>
<path d="M 1.640056 0.867933 A 0.171304 0.171304 0 0 1 1.873025 0.684453"/>
<path d="M 1.468536 1.189293 A 9.954640 9.954640 0 0 0 1.392574 1.301543"/>
<path d="M 1.392574 1.301543 A 0.102022 0.102022 0 0 1 1.415979 1.120193"/>
<path d="M 1.415979 1.120193 A 0.138489 0.138489 0 0 0 1.468536 1.189293"/>
<path d="M 2.598076 1.500000 A 0.670502 0.670502 0 1 1 1.392574 1.301543"/>
<path d="M 1.392574 1.301543 A 0.142453 0.142453 0 0 0 1.580750 1.274570"/>
<path d="M 1.580750 1.274570 A 1.128538 1.128538 0 0 0 2.598076 1.500000"/>
<path d="M 1.873025 0.684453 A 0.610415 0.610415 0 1 1 2.598076 1.500000"/>
<path d="M 2.598076 1.500000 A 1.216940 1.216940 0 0 0 1.873025 0.684453"/>
<path d="M 1.578658 1.059754 L 1.567201 1.070922" stroke-width="0.024000" stroke="white"/>
<path d="M 1.578658 1.059754 L 1.567201 1.070922" stroke-width="0.008000" stroke="blue"/>
<path d="M 1.498003 1.026558 L 1.482070 1.025098" stroke-width="0.024000" stroke="white"/>
<path d="M 1.498003 1.026558 L 1.482070 1.025098" stroke-width="0.008000" stroke="blue"/>
<path d="M 1.408414 1.122796 L 1.423544 1.117589" stroke-width="0.024000" stroke="white"/>
<path d="M 1.408414 1.122796 L 1.423544 1.117589" stroke-width="0.008000" stroke="blue"/>
<path d="M 1.461941 1.184765 L 1.475131 1.193822" stroke-width="0.024000" stroke="white"/>
<path d="M 1.461941 1.184765 L 1.475131 1.193822" stroke-width="0.008000" stroke="blue"/>
<path d="M 1.575609 1.280700 L 1.585891 1.268441" stroke-width="0.024000" stroke="white"/>
<path d="M 1.575609 1.280700 L 1.585891 1.268441" stroke-width="0.008000" stroke="blue"/>
<path d="M 2.590349 1.502071 L 2.605804 1.497929" stroke-width="0.024000" stroke="white"/>
<path d="M 2.590349 1.502071 L 2.605804 1.497929" stroke-width="0.008000" stroke="blue"/>
<path d="M 1.865593 0.681492 L 1.880457 0.687414" stroke-width="0.024000" stroke="white"/>
<path d="M 1.865593 0.681492 L 1.880457 0.687414" stroke-width="0.008000" stroke="blue"/>
<path d="M 1.647974 0.866796 L 1.632137 0.869070" stroke-width="0.024000" stroke="white"/>
<path d="M 1.647974 0.866796 L 1.632137 0.869070" stroke-width="0.008000" stroke="blue"/>
<path d="M 1.489594 1.095899 L 1.491202 1.111818" stroke-width="0.024000" stroke="white"/>
<path d="M 1.489594 1.095899 L 1.491202 1.111818" stroke-width="0.008000" stroke="blue"/>
<path d="M 1.397012 1.294887 L 1.388136 1.308199" stroke-width="0.024000" stroke="white"/>
<path d="M 1.397012 1.294887 L 1.388136 1.308199" stroke-width="0.008000" stroke="blue"/>
</svg>
