<svg xmlns="http://www.w3.org/2000/svg" width="400" height="400" viewBox="0 0 3 3" stroke="blue" stroke-width="0.008000" fill="none">
<path d="M 1.467752 1.044076 A 0.211970 0.211970 0 0 0 1.500000 0.866025"/>
<path d="M 1.500000 0.866025 A 0.240237 0.240237 0 0 1 1.732051 1.267949"/>
<path d="M 1.732051 1.267949 A 0.313083 0.313083 0 0 0 1.530794 1.176897"/>
<path d="M 1.530794 1.176897 A 0.094781 0.094781 0 0 0 1.478225 1.085845"/>
<path d="M 1.478225 1.085845 A 0.033227 0.033227 0 0 0 1.467752 1.044076"/>
<path d="M 1.448973 1.163435 A 0.114796 0.114796 0 0 1 1.364742 1.066527"/>
<path d="M 1.364742 1.066527 A 1.584542 1.584542 0 0 0 1.453558 1.053067"/>
<path d="M 1.453558 1.053067 A 0.045614 0.045614 0 0 0 1.478225 1.085845"/>
<path d="M 1.478225 1.085845 A 0.420601 0.420601 0 0 0 1.448973 1.163435"/>
<path d="M 1.467752 1.044076 A 0.022317 0.022317 0 0 1 1.453558 1.053067"/>
<path d="M 1.453558 1.053067 A 0.009068 0.009068 0 0 1 1.467752 1.044076"/>
<path d="M 1.490782 1.284835 A 0.114796 0.114796 0 0 1 1.448973 1.163435"/>
<path d="M 1.448973 1.163435 A 0.420601 0.420601 0 0 0 1.530794 1.176897"/>
<path d="M 1.530794 1.176897 A 0.200841 0.200841 0 0 1 1.490782 1.284835"/>
<path d="M 1.490782 1.284835 A 0.184340 0.184340 0 0 0 1.732051 1.267949"/>
<path d="M 1.732051 1.267949 A 0.517638 0.517638 0 1 1 0.866025 1.500000"/>
<path d="M 0.866025 1.500000 A 0.590770 0.590770 0 0 0 1.490782 1.284835"/>
<path d="M 1.500000 0.866025 A 0.184340 0.184340 0 0 0 1.364742 1.066527"/>
<path d="M 1.364742 1.066527 A 0.590770 0.590770 0 0 0 0.866025 1.500000"/>
<path d="M 0.866025 1.500000 A 0.517638 0.517638 0 1 1 1.500000 0.866025"/>
<path d="M 1.485396 1.089391 L 1.471054 1.082298" stroke-width="0.024000" stroke="white"/>
<path d="M 1.485396 1.089391 L 1.471054 1.082298" stroke-width="0.008000" stroke="blue"/>
<path d="M 1.474262 1.048725 L 1.461241 1.039427" stroke-width="0.024000" stroke="white"/>
<path d="M 1.474262 1.048725 L 1.461241 1.039427" stroke-width="0.008000" stroke="blue"/>
<path d="M 1.445686 1.054490 L 1.461431 1.051645" stroke-width="0.024000" stroke="white"/>
<path d="M 1.445686 1.054490 L 1.461431 1.051645" stroke-width="0.008000" stroke="blue"/>
<path d="M 1.522811 1.176383 L 1.538778 1.177411" stroke-width="0.024000" stroke="white"/>
<path d="M 1.522811 1.176383 L 1.538778 1.177411" stroke-width="0.008000" stroke="blue"/>
<path d="M 1.495596 1.278446 L 1.485969 1.291225" stroke-width="0.024000" stroke="white"/>
<path d="M 1.495596 1.278446 L 1.485969 1.291225" stroke-width="0.008000" stroke="blue"/>
<path d="M 0.868096 1.492273 L 0.863955 1.507727" stroke-width="0.024000" stroke="white"/>
<path d="M 0.868096 1.492273 L 0.863955 1.507727" stroke-width="0.008000" stroke="blue"/>
<path d="M 1.497929 0.858298 L 1.502071 0.873753" stroke-width="0.024000" stroke="white"/>
<path d="M 1.497929 0.858298 L 1.502071 0.873753" stroke-width="0.008000" stroke="blue"/>
<path d="M 1.363768 1.058586 L 1.365716 1.074467" stroke-width="0.024000" stroke="white"/>
<path d="M 1.363768 1.058586 L 1.365716 1.074467" stroke-width="0.008000" stroke="blue"/>
<path d="M 1.737708 1.262292 L 1.726394 1.273606" stroke-width="0.024000" stroke="white"/>
<path d="M 1.737708 1.262292 L 1.726394 1.273606" stroke-width="0.008000" stroke="blue"/>
<path d="M 1.451043 1.155708 L 1.446902 1.171163" stroke-width="0.024000" stroke="white"/>
<path d="M 1.451043 1.155708 L 1.446902 1.171163" stroke-width="0.008000" stroke="blue"/>
</svg>
