<svg xmlns="http://www.w3.org/2000/svg" width="400" height="400" viewBox="0 0 3 3" stroke="blue" stroke-width="0.008000" fill="none">
<path d="M 1.643422 0.932383 A 0.082907 0.082907 0 0 0 1.687695 0.922010"/>
<path d="M 1.687695 0.922010 A 0.052866 0.052866 0 0 1 1.642332 1.000582"/>
<path d="M 1.642332 1.000582 A 1.077610 1.077610 0 0 1 1.643422 0.932383"/>
<path d="M 1.546942 1.277869 A 0.207370 0.207370 0 0 1 1.545939 0.955755"/>
<path d="M 1.545939 0.955755 A 0.121960 0.121960 0 0 0 1.642332 1.000582"/>
<path d="M 1.642332 1.000582 A 0.431141 0.431141 0 0 1 1.546942 1.277869"/>
<path d="M 1.643422 0.932383 A 0.040862 0.040862 0 0 1 1.609888 0.911837"/>
<path d="M 1.609888 0.911837 A 0.101536 0.101536 0 0 1 1.641144 0.900279"/>
<path d="M 1.641144 0.900279 A 0.136131 0.136131 0 0 1 1.643422 0.932383"/>
<path d="M 1.600677 0.860945 A 0.207370 0.207370 0 0 1 1.880138 0.700756"/>
<path d="M 1.880138 0.700756 A 0.431141 0.431141 0 0 1 1.687695 0.922010"/>
<path d="M 1.687695 0.922010 A 0.043835 0.043835 0 0 0 1.641144 0.900279"/>
<path d="M 1.641144 0.900279 A 0.049237 0.049237 0 0 0 1.600677 0.860945"/>
<path d="M 1.600677 0.860945 A 0.077544 0.077544 0 0 0 1.609888 0.911837"/>
<path d="M 1.609888 0.911837 A 0.469243 0.469243 0 0 0 1.545939 0.955755"/>
<path d="M 1.545939 0.955755 A 0.058547 0.058547 0 0 1 1.600677 0.860945"/>
<path d="M 2.598076 1.500000 A 0.602524 0.602524 0 1 1 1.546942 1.277869"/>
<path d="M 1.546942 1.277869 A 1.185973 1.185973 0 0 0 2.598076 1.500000"/>
<path d="M 2.598076 1.500000 A 1.185973 1.185973 0 0 0 1.880138 0.700756"/>
<path d="M 1.880138 0.700756 A 0.602524 0.602524 0 1 1 2.598076 1.500000"/>
<path d="M 1.650331 1.000457 L 1.634333 1.000707" stroke-width="0.024000" stroke="white"/>
<path d="M 1.650331 1.000457 L 1.634333 1.000707" stroke-width="0.008000" stroke="blue"/>
<path d="M 1.643041 0.940374 L 1.643803 0.924392" stroke-width="0.024000" stroke="white"/>
<path d="M 1.643041 0.940374 L 1.643803 0.924392" stroke-width="0.008000" stroke="blue"/>
<path d="M 1.649001 0.898773 L 1.633287 0.901784" stroke-width="0.024000" stroke="white"/>
<path d="M 1.649001 0.898773 L 1.633287 0.901784" stroke-width="0.008000" stroke="blue"/>
<path d="M 1.608574 0.862227 L 1.592781 0.859662" stroke-width="0.024000" stroke="white"/>
<path d="M 1.608574 0.862227 L 1.592781 0.859662" stroke-width="0.008000" stroke="blue"/>
<path d="M 1.539741 0.960814 L 1.552136 0.950696" stroke-width="0.024000" stroke="white"/>
<path d="M 1.539741 0.960814 L 1.552136 0.950696" stroke-width="0.008000" stroke="blue"/>
<path d="M 1.694685 0.918119 L 1.680705 0.925901" stroke-width="0.024000" stroke="white"/>
<path d="M 1.694685 0.918119 L 1.680705 0.925901" stroke-width="0.008000" stroke="blue"/>
<path d="M 1.605920 0.904890 L 1.613856 0.918783" stroke-width="0.024000" stroke="white"/>
<path d="M 1.605920 0.904890 L 1.613856 0.918783" stroke-width="0.008000" stroke="blue"/>
<path d="M 1.541922 1.284098 L 1.551962 1.271640" stroke-width="0.024000" stroke="white"/>
<path d="M 1.541922 1.284098 L 1.551962 1.271640" stroke-width="0.008000" stroke="blue"/>
<path d="M 2.590349 1.502071 L 2.605804 1.497929" stroke-width="0.024000" stroke="white"/>
<path d="M 2.590349 1.502071 L 2.605804 1.497929" stroke-width="0.008000" stroke="blue"/>
<path d="M 1.872676 0.697872 L 1.887600 0.703641" stroke-width="0.024000" stroke="white"/>
<path d="M 1.872676 0.697872 L 1.887600 0.703641" stroke-width="0.008000" stroke="blue"/>
</svg>
