<svg xmlns="http://www.w3.org/2000/svg" width="400" height="400" viewBox="0 0 3 3" stroke="blue" stroke-width="0.008000" fill="none">
<path d="M 1.774498 0.723424 A 0.200875 0.200875 0 0 1 1.899619 0.896550"/>
<path d="M 1.899619 0.896550 A 5.280609 5.280609 0 0 0 1.747418 0.908702"/>
<path d="M 1.747418 0.908702 A 0.395064 0.395064 0 0 1 1.774498 0.723424"/>
<path d="M 1.817931 1.105504 A 1.003468 1.003468 0 0 0 1.629008 1.271017"/>
<path d="M 1.629008 1.271017 A 0.580025 0.580025 0 0 1 1.445822 0.953729"/>
<path d="M 1.445822 0.953729 A 2.821118 2.821118 0 0 1 1.747418 0.908702"/>
<path d="M 1.747418 0.908702 A 0.422629 0.422629 0 0 0 1.817931 1.105504"/>
<path d="M 1.629733 0.586489 A 0.107001 0.107001 0 0 1 1.774498 0.723424"/>
<path d="M 1.774498 0.723424 A 0.273255 0.273255 0 0 1 1.629733 0.586489"/>
<path d="M 1.946647 0.986234 A 0.124804 0.124804 0 0 1 1.899619 0.896550"/>
<path d="M 1.899619 0.896550 A 0.055396 0.055396 0 0 1 1.946647 0.986234"/>
<path d="M 1.629008 1.271017 A 0.247519 0.247519 0 0 0 1.945436 1.281144"/>
<path d="M 1.945436 1.281144 A 0.615133 0.615133 0 1 1 0.866025 1.500000"/>
<path d="M 0.866025 1.500000 A 0.757875 0.757875 0 0 0 1.629008 1.271017"/>
<path d="M 1.629733 0.586489 A 0.332144 0.332144 0 0 0 1.445822 0.953729"/>
<path d="M 1.445822 0.953729 A 0.757875 0.757875 0 0 0 0.866025 1.500000"/>
<path d="M 0.866025 1.500000 A 0.656339 0.656339 0 1 1 1.629733 0.586489"/>
<path d="M 1.946647 0.986234 A 0.187531 0.187531 0 0 1 1.945436 1.281144"/>
<path d="M 1.945436 1.281144 A 3.196056 3.196056 0 0 1 1.817931 1.105504"/>
<path d="M 1.817931 1.105504 A 0.574341 0.574341 0 0 0 1.946647 0.986234"/>
<path d="M 1.755383 0.907950 L 1.739453 0.909454" stroke-width="0.024000" stroke="white"/>
<path d="M 1.755383 0.907950 L 1.739453 0.909454" stroke-width="0.008000" stroke="blue"/>
<path d="M 1.771498 0.730840 L 1.777498 0.716008" stroke-width="0.024000" stroke="white"/>
<path d="M 1.771498 0.730840 L 1.777498 0.716008" stroke-width="0.008000" stroke="blue"/>
<path d="M 1.626326 0.579251 L 1.633141 0.593727" stroke-width="0.024000" stroke="white"/>
<path d="M 1.626326 0.579251 L 1.633141 0.593727" stroke-width="0.008000" stroke="blue"/>
<path d="M 1.444215 0.945892 L 1.447429 0.961566" stroke-width="0.024000" stroke="white"/>
<path d="M 1.444215 0.945892 L 1.447429 0.961566" stroke-width="0.008000" stroke="blue"/>
<path d="M 1.623698 1.277000 L 1.634319 1.265034" stroke-width="0.024000" stroke="white"/>
<path d="M 1.623698 1.277000 L 1.634319 1.265034" stroke-width="0.008000" stroke="blue"/>
<path d="M 1.939125 1.286061 L 1.951746 1.276227" stroke-width="0.024000" stroke="white"/>
<path d="M 1.939125 1.286061 L 1.951746 1.276227" stroke-width="0.008000" stroke="blue"/>
<path d="M 1.951615 0.979964 L 1.941678 0.992504" stroke-width="0.024000" stroke="white"/>
<path d="M 1.951615 0.979964 L 1.941678 0.992504" stroke-width="0.008000" stroke="blue"/>
<path d="M 1.900140 0.904533 L 1.899098 0.888567" stroke-width="0.024000" stroke="white"/>
<path d="M 1.900140 0.904533 L 1.899098 0.888567" stroke-width="0.008000" stroke="blue"/>
<path d="M 0.863955 1.507727 L 0.868096 1.492273" stroke-width="0.024000" stroke="white"/>
<path d="M 0.863955 1.507727 L 0.868096 1.492273" stroke-width="0.008000" stroke="blue"/>
<path d="M 1.822409 1.112134 L 1.813454 1.098874" stroke-width="0.024000" stroke="white"/>
<path d="M 1.822409 1.112134 L 1.813454 1.098874" stroke-width="0.008000" stroke="blue"/>
</svg>
