<svg xmlns="http://www.w3.org/2000/svg" width="400" height="400" viewBox="0 0 3 3" stroke="blue" stroke-width="0.008000" fill="none">
<path d="M 1.377304 1.156141 A 0.063534 0.063534 0 0 1 1.453892 1.077548"/>
<path d="M 1.453892 1.077548 A 0.108836 0.108836 0 0 1 1.377304 1.156141"/>
<path d="M 1.641144 0.900279 A 0.402518 0.402518 0 0 1 1.617013 1.131715"/>
<path d="M 1.617013 1.131715 A 1.124297 1.124297 0 0 0 1.453892 1.077548"/>
<path d="M 1.453892 1.077548 A 0.239407 0.239407 0 0 1 1.641144 0.900279"/>
<path d="M 1.377304 1.156141 A 0.191217 0.191217 0 0 1 1.354446 1.309611"/>
<path d="M 1.354446 1.309611 A 0.084882 0.084882 0 0 1 1.377304 1.156141"/>
<path d="M 1.647719 1.270003 A 0.122655 0.122655 0 0 1 1.617013 1.131715"/>
<path d="M 1.617013 1.131715 A 0.086755 0.086755 0 0 1 1.647719 1.270003"/>
<path d="M 1.880138 0.700756 A 0.321002 0.321002 0 0 1 1.641144 0.900279"/>
<path d="M 1.641144 0.900279 A 0.177995 0.177995 0 0 1 1.880138 0.700756"/>
<path d="M 1.647719 1.270003 A 1.021166 1.021166 0 0 0 2.598076 1.500000"/>
<path d="M 2.598076 1.500000 A 0.687020 0.687020 0 1 1 1.354446 1.309611"/>
<path d="M 1.354446 1.309611 A 0.229723 0.229723 0 0 0 1.647719 1.270003"/>
<path d="M 1.880138 0.700756 A 0.602524 0.602524 0 1 1 2.598076 1.500000"/>
<path d="M 2.598076 1.500000 A 1.185973 1.185973 0 0 0 1.880138 0.700756"/>
<path d="M 1.446129 1.075615 L 1.461655 1.079482" stroke-width="0.024000" stroke="white"/>
<path d="M 1.446129 1.075615 L 1.461655 1.079482" stroke-width="0.008000" stroke="blue"/>
<path d="M 1.385014 1.154008 L 1.369593 1.158274" stroke-width="0.024000" stroke="white"/>
<path d="M 1.385014 1.154008 L 1.369593 1.158274" stroke-width="0.008000" stroke="blue"/>
<path d="M 1.350159 1.316365 L 1.358734 1.302857" stroke-width="0.024000" stroke="white"/>
<path d="M 1.350159 1.316365 L 1.358734 1.302857" stroke-width="0.008000" stroke="blue"/>
<path d="M 1.642344 1.275929 L 1.653093 1.264078" stroke-width="0.024000" stroke="white"/>
<path d="M 1.642344 1.275929 L 1.653093 1.264078" stroke-width="0.008000" stroke="blue"/>
<path d="M 1.620107 1.124337 L 1.613919 1.139092" stroke-width="0.024000" stroke="white"/>
<path d="M 1.620107 1.124337 L 1.613919 1.139092" stroke-width="0.008000" stroke="blue"/>
<path d="M 2.605804 1.497929 L 2.590349 1.502071" stroke-width="0.024000" stroke="white"/>
<path d="M 2.605804 1.497929 L 2.590349 1.502071" stroke-width="0.008000" stroke="blue"/>
<path d="M 1.887600 0.703641 L 1.872676 0.697872" stroke-width="0.024000" stroke="white"/>
<path d="M 1.887600 0.703641 L 1.872676 0.697872" stroke-width="0.008000" stroke="blue"/>
<path d="M 1.633287 0.901784 L 1.649001 0.898773" stroke-width="0.024000" stroke="white"/>
<path d="M 1.633287 0.901784 L 1.649001 0.898773" stroke-width="0.008000" stroke="blue"/>
</svg>
