<svg xmlns="http://www.w3.org/2000/svg" width="400" height="400" viewBox="0 0 3 3" stroke="blue" stroke-width="0.008000" fill="none">
<path d="M 1.579567 0.964426 A 0.503380 0.503380 0 0 0 1.579111 1.076324"/>
<path d="M 1.579111 1.076324 A 0.949099 0.949099 0 0 0 1.462212 1.096369"/>
<path d="M 1.462212 1.096369 A 0.107831 0.107831 0 0 1 1.579567 0.964426"/>
<path d="M 1.513521 1.182130 A 1.222660 1.222660 0 0 0 1.424485 1.295476"/>
<path d="M 1.424485 1.295476 A 0.110950 0.110950 0 0 1 1.462212 1.096369"/>
<path d="M 1.462212 1.096369 A 0.165451 0.165451 0 0 0 1.513521 1.182130"/>
<path d="M 1.675180 1.268883 A 0.816587 0.816587 0 0 0 1.555732 1.176207"/>
<path d="M 1.555732 1.176207 A 0.155019 0.155019 0 0 0 1.579111 1.076324"/>
<path d="M 1.579111 1.076324 A 0.256354 0.256354 0 0 0 1.694278 1.034462"/>
<path d="M 1.694278 1.034462 A 0.189072 0.189072 0 0 1 1.675180 1.268883"/>
<path d="M 1.579567 0.964426 A 0.248119 0.248119 0 0 1 1.906940 0.758450"/>
<path d="M 1.906940 0.758450 A 0.546690 0.546690 0 0 1 1.694278 1.034462"/>
<path d="M 1.694278 1.034462 A 0.160265 0.160265 0 0 0 1.579567 0.964426"/>
<path d="M 1.675180 1.268883 A 0.979380 0.979380 0 0 0 2.598076 1.500000"/>
<path d="M 2.598076 1.500000 A 0.656607 0.656607 0 1 1 1.424485 1.295476"/>
<path d="M 1.424485 1.295476 A 0.192806 0.192806 0 0 0 1.675180 1.268883"/>
<path d="M 1.555732 1.176207 A 0.028020 0.028020 0 0 1 1.513521 1.182130"/>
<path d="M 1.513521 1.182130 A 0.032828 0.032828 0 0 1 1.555732 1.176207"/>
<path d="M 2.598076 1.500000 A 1.080149 1.080149 0 0 0 1.906940 0.758450"/>
<path d="M 1.906940 0.758450 A 0.573956 0.573956 0 1 1 2.598076 1.500000"/>
<path d="M 1.469997 1.094527 L 1.454427 1.098212" stroke-width="0.024000" stroke="white"/>
<path d="M 1.469997 1.094527 L 1.454427 1.098212" stroke-width="0.008000" stroke="blue"/>
<path d="M 1.571620 0.963505 L 1.587514 0.965348" stroke-width="0.024000" stroke="white"/>
<path d="M 1.571620 0.963505 L 1.587514 0.965348" stroke-width="0.008000" stroke="blue"/>
<path d="M 1.687630 1.038912 L 1.700925 1.030011" stroke-width="0.024000" stroke="white"/>
<path d="M 1.687630 1.038912 L 1.700925 1.030011" stroke-width="0.008000" stroke="blue"/>
<path d="M 1.680648 1.263044 L 1.669712 1.274723" stroke-width="0.024000" stroke="white"/>
<path d="M 1.680648 1.263044 L 1.669712 1.274723" stroke-width="0.008000" stroke="blue"/>
<path d="M 1.429047 1.288904 L 1.419922 1.302047" stroke-width="0.024000" stroke="white"/>
<path d="M 1.429047 1.288904 L 1.419922 1.302047" stroke-width="0.008000" stroke="blue"/>
<path d="M 1.579968 1.084278 L 1.578254 1.068370" stroke-width="0.024000" stroke="white"/>
<path d="M 1.579968 1.084278 L 1.578254 1.068370" stroke-width="0.008000" stroke="blue"/>
<path d="M 1.914502 0.761058 L 1.899377 0.755841" stroke-width="0.024000" stroke="white"/>
<path d="M 1.914502 0.761058 L 1.899377 0.755841" stroke-width="0.008000" stroke="blue"/>
<path d="M 2.605804 1.497929 L 2.590349 1.502071" stroke-width="0.024000" stroke="white"/>
<path d="M 2.605804 1.497929 L 2.590349 1.502071" stroke-width="0.008000" stroke="blue"/>
<path d="M 1.562480 1.180505 L 1.548985 1.171909" stroke-width="0.024000" stroke="white"/>
<path d="M 1.562480 1.180505 L 1.548985 1.171909" stroke-width="0.008000" stroke="blue"/>
<path d="M 1.507532 1.176826 L 1.519510 1.187434" stroke-width="0.024000" stroke="white"/>
<path d="M 1.507532 1.176826 L 1.519510 1.187434" stroke-width="0.008000" stroke="blue"/>
</svg>
