<svg xmlns="http://www.w3.org/2000/svg" width="400" height="400" viewBox="0 0 3 3" stroke="blue" stroke-width="0.008000" fill="none">
<path d="M 1.683116 1.198541 A 0.341705 0.341705 0 0 1 1.647398 1.239506"/>
<path d="M 1.647398 1.239506 A 0.175369 0.175369 0 0 1 1.614195 1.191745"/>
<path d="M 1.614195 1.191745 A 0.067445 0.067445 0 0 1 1.683116 1.198541"/>
<path d="M 1.500805 1.283455 A 0.133181 0.133181 0 0 1 1.580630 1.044374"/>
<path d="M 1.580630 1.044374 A 0.351108 0.351108 0 0 0 1.614195 1.191745"/>
<path d="M 1.614195 1.191745 A 0.307745 0.307745 0 0 0 1.500805 1.283455"/>
<path d="M 1.755190 1.105229 A 0.108780 0.108780 0 0 1 1.762522 1.268217"/>
<path d="M 1.762522 1.268217 A 0.638938 0.638938 0 0 0 1.683116 1.198541"/>
<path d="M 1.683116 1.198541 A 2.916403 2.916403 0 0 1 1.755190 1.105229"/>
<path d="M 1.647967 1.269991 A 0.020943 0.020943 0 0 1 1.647398 1.239506"/>
<path d="M 1.647398 1.239506 A 0.022235 0.022235 0 0 1 1.647967 1.269991"/>
<path d="M 1.755190 1.105229 A 0.275264 0.275264 0 0 0 1.580630 1.044374"/>
<path d="M 1.580630 1.044374 A 0.262910 0.262910 0 0 1 1.923828 0.792185"/>
<path d="M 1.923828 0.792185 A 0.972944 0.972944 0 0 1 1.755190 1.105229"/>
<path d="M 1.647967 1.269991 A 0.083831 0.083831 0 0 0 1.762522 1.268217"/>
<path d="M 1.762522 1.268217 A 0.854127 0.854127 0 0 0 2.598076 1.500000"/>
<path d="M 2.598076 1.500000 A 0.623057 0.623057 0 1 1 1.500805 1.283455"/>
<path d="M 1.500805 1.283455 A 0.109254 0.109254 0 0 0 1.647967 1.269991"/>
<path d="M 2.598076 1.500000 A 1.020784 1.020784 0 0 0 1.923828 0.792185"/>
<path d="M 1.923828 0.792185 A 0.556751 0.556751 0 1 1 2.598076 1.500000"/>
<path d="M 1.617609 1.198980 L 1.610781 1.184510" stroke-width="0.024000" stroke="white"/>
<path d="M 1.617609 1.198980 L 1.610781 1.184510" stroke-width="0.008000" stroke="blue"/>
<path d="M 1.676687 1.193780 L 1.689545 1.203302" stroke-width="0.024000" stroke="white"/>
<path d="M 1.676687 1.193780 L 1.689545 1.203302" stroke-width="0.008000" stroke="blue"/>
<path d="M 1.756766 1.273774 L 1.768277 1.262661" stroke-width="0.024000" stroke="white"/>
<path d="M 1.756766 1.273774 L 1.768277 1.262661" stroke-width="0.008000" stroke="blue"/>
<path d="M 2.590349 1.502071 L 2.605804 1.497929" stroke-width="0.024000" stroke="white"/>
<path d="M 2.590349 1.502071 L 2.605804 1.497929" stroke-width="0.008000" stroke="blue"/>
<path d="M 1.916210 0.789742 L 1.931446 0.794628" stroke-width="0.024000" stroke="white"/>
<path d="M 1.916210 0.789742 L 1.931446 0.794628" stroke-width="0.008000" stroke="blue"/>
<path d="M 1.760207 1.098998 L 1.750172 1.111461" stroke-width="0.024000" stroke="white"/>
<path d="M 1.760207 1.098998 L 1.750172 1.111461" stroke-width="0.008000" stroke="blue"/>
<path d="M 1.653119 1.233914 L 1.641678 1.245099" stroke-width="0.024000" stroke="white"/>
<path d="M 1.653119 1.233914 L 1.641678 1.245099" stroke-width="0.008000" stroke="blue"/>
<path d="M 1.642591 1.275916 L 1.653342 1.264067" stroke-width="0.024000" stroke="white"/>
<path d="M 1.642591 1.275916 L 1.653342 1.264067" stroke-width="0.008000" stroke="blue"/>
<path d="M 1.588630 1.044318 L 1.572631 1.044430" stroke-width="0.024000" stroke="white"/>
<path d="M 1.588630 1.044318 L 1.572631 1.044430" stroke-width="0.008000" stroke="blue"/>
<path d="M 1.495954 1.289817 L 1.505656 1.277094" stroke-width="0.024000" stroke="white"/>
<path d="M 1.495954 1.289817 L 1.505656 1.277094" stroke-width="0.008000" stroke="blue"/>
</svg>
