<svg xmlns="http://www.w3.org/2000/svg" width="400" height="400" viewBox="0 0 3 3" stroke="blue" stroke-width="0.008000" fill="none">
<path d="M 1.964102 1.133975 A 0.046961 0.046961 0 0 1 2.021617 1.167181"/>
<path d="M 2.021617 1.167181 A 0.046961 0.046961 0 0 1 1.964102 1.133975"/>
<path d="M 2.170634 1.151930 A 0.340009 0.340009 0 0 0 2.181652 1.259577"/>
<path d="M 2.181652 1.259577 A 0.340009 0.340009 0 0 0 2.082918 1.303860"/>
<path d="M 2.082918 1.303860 A 0.470677 0.470677 0 0 1 2.021617 1.167181"/>
<path d="M 2.021617 1.167181 A 0.470677 0.470677 0 0 1 2.170634 1.151930"/>
<path d="M 1.732051 1.267949 A 0.240237 0.240237 0 0 1 1.964102 0.866025"/>
<path d="M 1.964102 0.866025 A 0.517638 0.517638 0 0 0 1.964102 1.133975"/>
<path d="M 1.964102 1.133975 A 0.517638 0.517638 0 0 0 1.732051 1.267949"/>
<path d="M 2.181652 1.259577 A 0.340009 0.340009 0 0 1 2.263119 1.248054"/>
<path d="M 2.263119 1.248054 A 0.098175 0.098175 0 0 1 2.212406 1.335891"/>
<path d="M 2.212406 1.335891 A 0.340009 0.340009 0 0 1 2.181652 1.259577"/>
<path d="M 2.598076 1.500000 A 0.517638 0.517638 0 1 1 1.732051 1.267949"/>
<path d="M 1.732051 1.267949 A 0.279283 0.279283 0 0 0 2.082918 1.303860"/>
<path d="M 2.082918 1.303860 A 0.098175 0.098175 0 0 0 2.212406 1.335891"/>
<path d="M 2.212406 1.335891 A 0.340009 0.340009 0 0 0 2.598076 1.500000"/>
<path d="M 1.964102 0.866025 A 0.517638 0.517638 0 1 1 2.598076 1.500000"/>
<path d="M 2.598076 1.500000 A 0.340009 0.340009 0 0 0 2.263119 1.248054"/>
<path d="M 2.263119 1.248054 A 0.098175 0.098175 0 0 0 2.170634 1.151930"/>
<path d="M 2.170634 1.151930 A 0.279283 0.279283 0 0 0 1.964102 0.866025"/>
<path d="M 2.019547 1.159454 L 2.023688 1.174909" stroke-width="0.024000" stroke="white"/>
<path d="M 2.019547 1.159454 L 2.023688 1.174909" stroke-width="0.008000" stroke="blue"/>
<path d="M 1.966172 1.141702 L 1.962031 1.126247" stroke-width="0.024000" stroke="white"/>
<path d="M 1.966172 1.141702 L 1.962031 1.126247" stroke-width="0.008000" stroke="blue"/>
<path d="M 1.971829 0.868096 L 1.956374 0.863955" stroke-width="0.024000" stroke="white"/>
<path d="M 1.971829 0.868096 L 1.956374 0.863955" stroke-width="0.008000" stroke="blue"/>
<path d="M 2.605804 1.497929 L 2.590349 1.502071" stroke-width="0.024000" stroke="white"/>
<path d="M 2.605804 1.497929 L 2.590349 1.502071" stroke-width="0.008000" stroke="blue"/>
<path d="M 2.219410 1.332025 L 2.205402 1.339757" stroke-width="0.024000" stroke="white"/>
<path d="M 2.219410 1.332025 L 2.205402 1.339757" stroke-width="0.008000" stroke="blue"/>
<path d="M 2.183722 1.267305 L 2.179581 1.251850" stroke-width="0.024000" stroke="white"/>
<path d="M 2.183722 1.267305 L 2.179581 1.251850" stroke-width="0.008000" stroke="blue"/>
<path d="M 2.178621 1.152392 L 2.162648 1.151468" stroke-width="0.024000" stroke="white"/>
<path d="M 2.178621 1.152392 L 2.162648 1.151468" stroke-width="0.008000" stroke="blue"/>
<path d="M 1.726394 1.273606 L 1.737708 1.262292" stroke-width="0.024000" stroke="white"/>
<path d="M 1.726394 1.273606 L 1.737708 1.262292" stroke-width="0.008000" stroke="blue"/>
<path d="M 2.076232 1.308253 L 2.089603 1.299466" stroke-width="0.024000" stroke="white"/>
<path d="M 2.076232 1.308253 L 2.089603 1.299466" stroke-width="0.008000" stroke="blue"/>
<path d="M 2.255120 1.248208 L 2.271117 1.247901" stroke-width="0.024000" stroke="white"/>
<path d="M 2.255120 1.248208 L 2.271117 1.247901" stroke-width="0.008000" stroke="blue"/>
</svg>
