<svg xmlns="http://www.w3.org/2000/svg" width="400" height="400" viewBox="0 0 3 3" stroke="blue" stroke-width="0.008000" fill="none">
<path d="M 1.500659 1.050029 A 0.101066 0.101066 0 0 1 1.601383 0.914326"/>
<path d="M 1.601383 0.914326 A 0.215357 0.215357 0 0 0 1.616130 1.006011"/>
<path d="M 1.616130 1.006011 A 4.904436 4.904436 0 0 1 1.500659 1.050029"/>
<path d="M 1.691609 0.968194 A 0.098762 0.098762 0 0 1 1.668884 1.097385"/>
<path d="M 1.668884 1.097385 A 0.360645 0.360645 0 0 1 1.616130 1.006011"/>
<path d="M 1.616130 1.006011 A 0.482037 0.482037 0 0 0 1.691609 0.968194"/>
<path d="M 1.500659 1.050029 A 0.422830 0.422830 0 0 0 1.573028 1.175377"/>
<path d="M 1.573028 1.175377 A 0.637955 0.637955 0 0 0 1.467051 1.288341"/>
<path d="M 1.467051 1.288341 A 0.136507 0.136507 0 0 1 1.500659 1.050029"/>
<path d="M 1.890969 0.724745 A 0.482037 0.482037 0 0 1 1.691609 0.968194"/>
<path d="M 1.691609 0.968194 A 0.113693 0.113693 0 0 0 1.601383 0.914326"/>
<path d="M 1.601383 0.914326 A 0.215357 0.215357 0 0 1 1.890969 0.724745"/>
<path d="M 1.662450 1.269348 A 0.998597 0.998597 0 0 1 1.573028 1.175377"/>
<path d="M 1.573028 1.175377 A 4.904436 4.904436 0 0 1 1.668884 1.097385"/>
<path d="M 1.668884 1.097385 A 0.132338 0.132338 0 0 1 1.662450 1.269348"/>
<path d="M 1.662450 1.269348 A 0.998597 0.998597 0 0 0 2.598076 1.500000"/>
<path d="M 2.598076 1.500000 A 0.637955 0.637955 0 1 1 1.467051 1.288341"/>
<path d="M 1.467051 1.288341 A 0.147410 0.147410 0 0 0 1.662450 1.269348"/>
<path d="M 1.890969 0.724745 A 0.590770 0.590770 0 1 1 2.598076 1.500000"/>
<path d="M 2.598076 1.500000 A 1.141281 1.141281 0 0 0 1.890969 0.724745"/>
<path d="M 1.613187 0.998573 L 1.619074 1.013450" stroke-width="0.024000" stroke="white"/>
<path d="M 1.613187 0.998573 L 1.619074 1.013450" stroke-width="0.008000" stroke="blue"/>
<path d="M 1.508169 1.047274 L 1.493148 1.052784" stroke-width="0.024000" stroke="white"/>
<path d="M 1.508169 1.047274 L 1.493148 1.052784" stroke-width="0.008000" stroke="blue"/>
<path d="M 1.462326 1.294797 L 1.471775 1.281886" stroke-width="0.024000" stroke="white"/>
<path d="M 1.462326 1.294797 L 1.471775 1.281886" stroke-width="0.008000" stroke="blue"/>
<path d="M 1.657025 1.275228 L 1.667875 1.263469" stroke-width="0.024000" stroke="white"/>
<path d="M 1.657025 1.275228 L 1.667875 1.263469" stroke-width="0.008000" stroke="blue"/>
<path d="M 1.675153 1.092414 L 1.662616 1.102355" stroke-width="0.024000" stroke="white"/>
<path d="M 1.675153 1.092414 L 1.662616 1.102355" stroke-width="0.008000" stroke="blue"/>
<path d="M 1.609369 0.914788 L 1.593396 0.913863" stroke-width="0.024000" stroke="white"/>
<path d="M 1.609369 0.914788 L 1.593396 0.913863" stroke-width="0.008000" stroke="blue"/>
<path d="M 1.883465 0.721974 L 1.898474 0.727516" stroke-width="0.024000" stroke="white"/>
<path d="M 1.883465 0.721974 L 1.898474 0.727516" stroke-width="0.008000" stroke="blue"/>
<path d="M 2.590349 1.502071 L 2.605804 1.497929" stroke-width="0.024000" stroke="white"/>
<path d="M 2.590349 1.502071 L 2.605804 1.497929" stroke-width="0.008000" stroke="blue"/>
<path d="M 1.578155 1.181518 L 1.567901 1.169236" stroke-width="0.024000" stroke="white"/>
<path d="M 1.578155 1.181518 L 1.567901 1.169236" stroke-width="0.008000" stroke="blue"/>
<path d="M 1.698420 0.963998 L 1.684798 0.972390" stroke-width="0.024000" stroke="white"/>
<path d="M 1.698420 0.963998 L 1.684798 0.972390" stroke-width="0.008000" stroke="blue"/>
</svg>
