<svg xmlns="http://www.w3.org/2000/svg" width="400" height="400" viewBox="0 0 3 3" stroke="blue" stroke-width="0.008000" fill="none">
<path d="M 1.964102 1.133975 A 0.059797 0.059797 0 0 0 1.919784 1.191189"/>
<path d="M 1.919784 1.191189 A 0.262114 0.262114 0 0 0 1.732051 1.267949"/>
<path d="M 1.732051 1.267949 A 0.240237 0.240237 0 0 1 1.964102 0.866025"/>
<path d="M 1.964102 0.866025 A 0.262114 0.262114 0 0 0 1.991491 1.066987"/>
<path d="M 1.991491 1.066987 A 0.059797 0.059797 0 0 0 1.964102 1.133975"/>
<path d="M 2.085180 1.048129 A 0.088588 0.088588 0 0 1 2.012115 1.123524"/>
<path d="M 2.012115 1.123524 A 0.165403 0.165403 0 0 0 1.991491 1.066987"/>
<path d="M 1.991491 1.066987 A 0.145723 0.145723 0 0 1 2.085180 1.048129"/>
<path d="M 1.964102 1.133975 A 0.517638 0.517638 0 0 1 2.012115 1.123524"/>
<path d="M 2.012115 1.123524 A 0.051905 0.051905 0 0 1 1.979058 1.180781"/>
<path d="M 1.979058 1.180781 A 0.517638 0.517638 0 0 1 1.964102 1.133975"/>
<path d="M 1.950297 1.281754 A 0.145723 0.145723 0 0 1 1.919784 1.191189"/>
<path d="M 1.919784 1.191189 A 0.165403 0.165403 0 0 0 1.979058 1.180781"/>
<path d="M 1.979058 1.180781 A 0.088588 0.088588 0 0 1 1.950297 1.281754"/>
<path d="M 1.950297 1.281754 A 0.617292 0.617292 0 0 0 2.598076 1.500000"/>
<path d="M 2.598076 1.500000 A 0.517638 0.517638 0 1 1 1.732051 1.267949"/>
<path d="M 1.732051 1.267949 A 0.165403 0.165403 0 0 0 1.950297 1.281754"/>
<path d="M 1.964102 0.866025 A 0.517638 0.517638 0 1 1 2.598076 1.500000"/>
<path d="M 2.598076 1.500000 A 0.617292 0.617292 0 0 0 2.085180 1.048129"/>
<path d="M 2.085180 1.048129 A 0.165403 0.165403 0 0 0 1.964102 0.866025"/>
<path d="M 1.987428 1.060096 L 1.995555 1.073879" stroke-width="0.024000" stroke="white"/>
<path d="M 1.987428 1.060096 L 1.995555 1.073879" stroke-width="0.008000" stroke="blue"/>
<path d="M 1.962031 1.126247 L 1.966172 1.141702" stroke-width="0.024000" stroke="white"/>
<path d="M 1.962031 1.126247 L 1.966172 1.141702" stroke-width="0.008000" stroke="blue"/>
<path d="M 1.971561 1.183574 L 1.986554 1.177987" stroke-width="0.024000" stroke="white"/>
<path d="M 1.971561 1.183574 L 1.986554 1.177987" stroke-width="0.008000" stroke="blue"/>
<path d="M 1.956621 1.276855 L 1.943972 1.286653" stroke-width="0.024000" stroke="white"/>
<path d="M 1.956621 1.276855 L 1.943972 1.286653" stroke-width="0.008000" stroke="blue"/>
<path d="M 1.737708 1.262292 L 1.726394 1.273606" stroke-width="0.024000" stroke="white"/>
<path d="M 1.737708 1.262292 L 1.726394 1.273606" stroke-width="0.008000" stroke="blue"/>
<path d="M 1.956374 0.863955 L 1.971829 0.868096" stroke-width="0.024000" stroke="white"/>
<path d="M 1.956374 0.863955 L 1.971829 0.868096" stroke-width="0.008000" stroke="blue"/>
<path d="M 2.077253 1.047049 L 2.093107 1.049210" stroke-width="0.024000" stroke="white"/>
<path d="M 2.077253 1.047049 L 2.093107 1.049210" stroke-width="0.008000" stroke="blue"/>
<path d="M 2.020004 1.122195 L 2.004226 1.124853" stroke-width="0.024000" stroke="white"/>
<path d="M 2.020004 1.122195 L 2.004226 1.124853" stroke-width="0.008000" stroke="blue"/>
<path d="M 1.919857 1.183189 L 1.919711 1.199188" stroke-width="0.024000" stroke="white"/>
<path d="M 1.919857 1.183189 L 1.919711 1.199188" stroke-width="0.008000" stroke="blue"/>
<path d="M 2.590349 1.502071 L 2.605804 1.497929" stroke-width="0.024000" stroke="white"/>
<path d="M 2.590349 1.502071 L 2.605804 1.497929" stroke-width="0.008000" stroke="blue"/>
</svg>
