<svg xmlns="http://www.w3.org/2000/svg" width="400" height="400" viewBox="0 0 3 3" stroke="blue" stroke-width="0.008000" fill="none">
<path d="M 1.732051 1.267949 A 0.896575 0.896575 0 0 1 1.500000 0.866025"/>
<path d="M 1.500000 0.866025 A 0.420601 0.420601 0 0 1 1.985876 1.085845"/>
<path d="M 1.985876 1.085845 A 0.962144 0.962144 0 0 0 1.732051 1.267949"/>
<path d="M 2.084151 1.161183 A 0.140179 0.140179 0 0 1 1.985876 1.085845"/>
<path d="M 1.985876 1.085845 A 0.069011 0.069011 0 0 1 2.084151 1.161183"/>
<path d="M 1.732051 1.267949 A 0.305805 0.305805 0 0 0 2.111847 1.310102"/>
<path d="M 2.111847 1.310102 A 0.687967 0.687967 0 1 1 0.866025 1.500000"/>
<path d="M 0.866025 1.500000 A 0.896575 0.896575 0 0 0 1.732051 1.267949"/>
<path d="M 1.500000 0.866025 A 0.896575 0.896575 0 0 0 0.866025 1.500000"/>
<path d="M 0.866025 1.500000 A 0.517638 0.517638 0 1 1 1.500000 0.866025"/>
<path d="M 2.111847 1.310102 A 0.203955 0.203955 0 0 1 2.084151 1.161183"/>
<path d="M 2.084151 1.161183 A 0.081568 0.081568 0 0 1 2.111847 1.310102"/>
<path d="M 1.982330 1.078674 L 1.989423 1.093016" stroke-width="0.024000" stroke="white"/>
<path d="M 1.982330 1.078674 L 1.989423 1.093016" stroke-width="0.008000" stroke="blue"/>
<path d="M 1.737708 1.262292 L 1.726394 1.273606" stroke-width="0.024000" stroke="white"/>
<path d="M 1.737708 1.262292 L 1.726394 1.273606" stroke-width="0.008000" stroke="blue"/>
<path d="M 0.868096 1.492273 L 0.863955 1.507727" stroke-width="0.024000" stroke="white"/>
<path d="M 0.868096 1.492273 L 0.863955 1.507727" stroke-width="0.008000" stroke="blue"/>
<path d="M 1.497929 0.858298 L 1.502071 0.873753" stroke-width="0.024000" stroke="white"/>
<path d="M 1.497929 0.858298 L 1.502071 0.873753" stroke-width="0.008000" stroke="blue"/>
<path d="M 2.105087 1.314381 L 2.118606 1.305823" stroke-width="0.024000" stroke="white"/>
<path d="M 2.105087 1.314381 L 2.118606 1.305823" stroke-width="0.008000" stroke="blue"/>
<path d="M 2.085714 1.153338 L 2.082589 1.169029" stroke-width="0.024000" stroke="white"/>
<path d="M 2.085714 1.153338 L 2.082589 1.169029" stroke-width="0.008000" stroke="blue"/>
</svg>
