<svg xmlns="http://www.w3.org/2000/svg" width="400" height="400" viewBox="0 0 3 3" stroke="blue" stroke-width="0.008000" fill="none">
<path d="M 1.644564 0.949490 A 0.362741 0.362741 0 0 1 1.573132 1.275255"/>
<path d="M 1.573132 1.275255 A 0.248603 0.248603 0 0 1 1.539406 0.926943"/>
<path d="M 1.539406 0.926943 A 0.118036 0.118036 0 0 0 1.644564 0.949490"/>
<path d="M 1.572459 0.869694 A 0.206656 0.206656 0 0 1 1.539406 0.926943"/>
<path d="M 1.539406 0.926943 A 0.033484 0.033484 0 0 1 1.572459 0.869694"/>
<path d="M 1.644564 0.949490 A 0.118036 0.118036 0 0 0 1.572459 0.869694"/>
<path d="M 1.572459 0.869694 A 0.248603 0.248603 0 0 1 1.890969 0.724745"/>
<path d="M 1.890969 0.724745 A 0.362741 0.362741 0 0 1 1.644564 0.949490"/>
<path d="M 2.598076 1.500000 A 0.590770 0.590770 0 1 1 1.573132 1.275255"/>
<path d="M 1.573132 1.275255 A 1.141281 1.141281 0 0 0 2.598076 1.500000"/>
<path d="M 2.598076 1.500000 A 1.141281 1.141281 0 0 0 1.890969 0.724745"/>
<path d="M 1.890969 0.724745 A 0.590770 0.590770 0 1 1 2.598076 1.500000"/>
<path d="M 1.534350 0.933142 L 1.544463 0.920743" stroke-width="0.024000" stroke="white"/>
<path d="M 1.534350 0.933142 L 1.544463 0.920743" stroke-width="0.008000" stroke="blue"/>
<path d="M 1.636837 0.951560 L 1.652292 0.947419" stroke-width="0.024000" stroke="white"/>
<path d="M 1.636837 0.951560 L 1.652292 0.947419" stroke-width="0.008000" stroke="blue"/>
<path d="M 1.898474 0.727516 L 1.883465 0.721974" stroke-width="0.024000" stroke="white"/>
<path d="M 1.898474 0.727516 L 1.883465 0.721974" stroke-width="0.008000" stroke="blue"/>
<path d="M 2.605804 1.497929 L 2.590349 1.502071" stroke-width="0.024000" stroke="white"/>
<path d="M 2.605804 1.497929 L 2.590349 1.502071" stroke-width="0.008000" stroke="blue"/>
<path d="M 1.578246 1.269103 L 1.568018 1.281407" stroke-width="0.024000" stroke="white"/>
<path d="M 1.578246 1.269103 L 1.568018 1.281407" stroke-width="0.008000" stroke="blue"/>
<path d="M 1.579938 0.872534 L 1.564980 0.866853" stroke-width="0.024000" stroke="white"/>
<path d="M 1.579938 0.872534 L 1.564980 0.866853" stroke-width="0.008000" stroke="blue"/>
</svg>
