<svg xmlns="http://www.w3.org/2000/svg" width="400" height="400" viewBox="0 0 3 3" stroke="blue" stroke-width="0.008000" fill="none">
<path d="M 1.969738 0.937673 A 0.287137 0.287137 0 0 1 1.890969 1.275255"/>
<path d="M 1.890969 1.275255 A 0.362741 0.362741 0 0 1 1.819537 0.949490"/>
<path d="M 1.819537 0.949490 A 0.118036 0.118036 0 0 0 1.924695 0.926943"/>
<path d="M 1.924695 0.926943 A 0.038121 0.038121 0 0 0 1.969738 0.937673"/>
<path d="M 1.891643 0.869694 A 0.052168 0.052168 0 0 1 1.961713 0.910443"/>
<path d="M 1.961713 0.910443 A 0.077391 0.077391 0 0 0 1.924695 0.926943"/>
<path d="M 1.924695 0.926943 A 0.206656 0.206656 0 0 1 1.891643 0.869694"/>
<path d="M 1.969738 0.937673 A 0.107660 0.107660 0 0 1 1.961713 0.910443"/>
<path d="M 1.961713 0.910443 A 0.014319 0.014319 0 0 1 1.969738 0.937673"/>
<path d="M 1.573132 0.724745 A 0.248603 0.248603 0 0 1 1.891643 0.869694"/>
<path d="M 1.891643 0.869694 A 0.118036 0.118036 0 0 0 1.819537 0.949490"/>
<path d="M 1.819537 0.949490 A 0.362741 0.362741 0 0 1 1.573132 0.724745"/>
<path d="M 1.890969 1.275255 A 0.590770 0.590770 0 1 1 0.866025 1.500000"/>
<path d="M 0.866025 1.500000 A 1.141281 1.141281 0 0 0 1.890969 1.275255"/>
<path d="M 1.573132 0.724745 A 1.141281 1.141281 0 0 0 0.866025 1.500000"/>
<path d="M 0.866025 1.500000 A 0.590770 0.590770 0 1 1 1.573132 0.724745"/>
<path d="M 1.918496 0.931999 L 1.930894 0.921886" stroke-width="0.024000" stroke="white"/>
<path d="M 1.918496 0.931999 L 1.930894 0.921886" stroke-width="0.008000" stroke="blue"/>
<path d="M 1.962430 0.940927 L 1.977047 0.934420" stroke-width="0.024000" stroke="white"/>
<path d="M 1.962430 0.940927 L 1.977047 0.934420" stroke-width="0.008000" stroke="blue"/>
<path d="M 1.960483 0.902538 L 1.962943 0.918347" stroke-width="0.024000" stroke="white"/>
<path d="M 1.960483 0.902538 L 1.962943 0.918347" stroke-width="0.008000" stroke="blue"/>
<path d="M 1.821608 0.941762 L 1.817467 0.957217" stroke-width="0.024000" stroke="white"/>
<path d="M 1.821608 0.941762 L 1.817467 0.957217" stroke-width="0.008000" stroke="blue"/>
<path d="M 1.575903 0.732250 L 1.570361 0.717240" stroke-width="0.024000" stroke="white"/>
<path d="M 1.575903 0.732250 L 1.570361 0.717240" stroke-width="0.008000" stroke="blue"/>
<path d="M 0.863955 1.507727 L 0.868096 1.492273" stroke-width="0.024000" stroke="white"/>
<path d="M 0.863955 1.507727 L 0.868096 1.492273" stroke-width="0.008000" stroke="blue"/>
<path d="M 1.884817 1.280369 L 1.897121 1.270141" stroke-width="0.024000" stroke="white"/>
<path d="M 1.884817 1.280369 L 1.897121 1.270141" stroke-width="0.008000" stroke="blue"/>
<path d="M 1.888802 0.862215 L 1.894483 0.877173" stroke-width="0.024000" stroke="white"/>
<path d="M 1.888802 0.862215 L 1.894483 0.877173" stroke-width="0.008000" stroke="blue"/>
</svg>
