<svg xmlns="http://www.w3.org/2000/svg" width="400" height="400" viewBox="0 0 3 3" stroke="blue" stroke-width="0.008000" fill="none">
<path d="M 1.639809 0.840233 A 0.157289 0.157289 0 0 1 1.547568 1.000000"/>
<path d="M 1.547568 1.000000 A 0.113880 0.113880 0 0 1 1.639809 0.840233"/>
<path d="M 1.513805 1.281754 A 0.165403 0.165403 0 0 1 1.547568 1.000000"/>
<path d="M 1.547568 1.000000 A 0.276062 0.276062 0 0 1 1.513805 1.281754"/>
<path d="M 1.639809 0.840233 A 0.165403 0.165403 0 0 1 1.866934 0.670116"/>
<path d="M 1.866934 0.670116 A 0.276062 0.276062 0 0 1 1.639809 0.840233"/>
<path d="M 2.598076 1.500000 A 0.617292 0.617292 0 1 1 1.513805 1.281754"/>
<path d="M 1.513805 1.281754 A 1.244584 1.244584 0 0 0 2.598076 1.500000"/>
<path d="M 2.598076 1.500000 A 1.244584 1.244584 0 0 0 1.866934 0.670116"/>
<path d="M 1.866934 0.670116 A 0.617292 0.617292 0 1 1 2.598076 1.500000"/>
<path d="M 1.554871 0.996734 L 1.540265 1.003266" stroke-width="0.024000" stroke="white"/>
<path d="M 1.554871 0.996734 L 1.540265 1.003266" stroke-width="0.008000" stroke="blue"/>
<path d="M 1.631852 0.841056 L 1.647767 0.839410" stroke-width="0.024000" stroke="white"/>
<path d="M 1.631852 0.841056 L 1.647767 0.839410" stroke-width="0.008000" stroke="blue"/>
<path d="M 1.874339 0.673144 L 1.859529 0.667089" stroke-width="0.024000" stroke="white"/>
<path d="M 1.874339 0.673144 L 1.859529 0.667089" stroke-width="0.008000" stroke="blue"/>
<path d="M 2.605804 1.497929 L 2.590349 1.502071" stroke-width="0.024000" stroke="white"/>
<path d="M 2.605804 1.497929 L 2.590349 1.502071" stroke-width="0.008000" stroke="blue"/>
<path d="M 1.518704 1.275430 L 1.508906 1.288079" stroke-width="0.024000" stroke="white"/>
<path d="M 1.518704 1.275430 L 1.508906 1.288079" stroke-width="0.008000" stroke="blue"/>
</svg>
