<svg xmlns="http://www.w3.org/2000/svg" width="400" height="400" viewBox="0 0 3 3" stroke="blue" stroke-width="0.008000" fill="none">
<path d="M 1.732051 1.051766 A 0.120910 0.120910 0 0 1 1.759320 1.180888"/>
<path d="M 1.759320 1.180888 A 0.296363 0.296363 0 0 1 1.664657 1.121724"/>
<path d="M 1.664657 1.121724 A 2.602354 2.602354 0 0 1 1.732051 1.051766"/>
<path d="M 1.529266 1.279861 A 0.152864 0.152864 0 0 1 1.607501 1.007882"/>
<path d="M 1.607501 1.007882 A 0.182048 0.182048 0 0 0 1.664657 1.121724"/>
<path d="M 1.664657 1.121724 A 2.602354 2.602354 0 0 0 1.529266 1.279861"/>
<path d="M 1.732051 1.051766 A 0.152864 0.152864 0 0 0 1.607501 1.007882"/>
<path d="M 1.607501 1.007882 A 0.230066 0.230066 0 0 1 1.910291 0.765292"/>
<path d="M 1.910291 0.765292 A 0.743711 0.743711 0 0 1 1.732051 1.051766"/>
<path d="M 1.776652 1.268524 A 0.083504 0.083504 0 0 1 1.759320 1.180888"/>
<path d="M 1.759320 1.180888 A 0.052865 0.052865 0 0 1 1.776652 1.268524"/>
<path d="M 1.776652 1.268524 A 0.834866 0.834866 0 0 0 2.598076 1.500000"/>
<path d="M 2.598076 1.500000 A 0.610415 0.610415 0 1 1 1.529266 1.279861"/>
<path d="M 1.529266 1.279861 A 0.189115 0.189115 0 0 0 1.776652 1.268524"/>
<path d="M 2.598076 1.500000 A 1.067966 1.067966 0 0 0 1.910291 0.765292"/>
<path d="M 1.910291 0.765292 A 0.570497 0.570497 0 1 1 2.598076 1.500000"/>
<path d="M 1.670522 1.127165 L 1.658793 1.116282" stroke-width="0.024000" stroke="white"/>
<path d="M 1.670522 1.127165 L 1.658793 1.116282" stroke-width="0.008000" stroke="blue"/>
<path d="M 1.726394 1.057423 L 1.737708 1.046110" stroke-width="0.024000" stroke="white"/>
<path d="M 1.726394 1.057423 L 1.737708 1.046110" stroke-width="0.008000" stroke="blue"/>
<path d="M 1.917865 0.767868 L 1.902717 0.762717" stroke-width="0.024000" stroke="white"/>
<path d="M 1.917865 0.767868 L 1.902717 0.762717" stroke-width="0.008000" stroke="blue"/>
<path d="M 2.605804 1.497929 L 2.590349 1.502071" stroke-width="0.024000" stroke="white"/>
<path d="M 2.605804 1.497929 L 2.590349 1.502071" stroke-width="0.008000" stroke="blue"/>
<path d="M 1.782453 1.263014 L 1.770851 1.274033" stroke-width="0.024000" stroke="white"/>
<path d="M 1.782453 1.263014 L 1.770851 1.274033" stroke-width="0.008000" stroke="blue"/>
<path d="M 1.756433 1.188349 L 1.762206 1.173427" stroke-width="0.024000" stroke="white"/>
<path d="M 1.756433 1.188349 L 1.762206 1.173427" stroke-width="0.008000" stroke="blue"/>
<path d="M 1.615455 1.007021 L 1.599548 1.008743" stroke-width="0.024000" stroke="white"/>
<path d="M 1.615455 1.007021 L 1.599548 1.008743" stroke-width="0.008000" stroke="blue"/>
<path d="M 1.524311 1.286141 L 1.534222 1.273581" stroke-width="0.024000" stroke="white"/>
<path d="M 1.524311 1.286141 L 1.534222 1.273581" stroke-width="0.008000" stroke="blue"/>
</svg>
