<svg xmlns="http://www.w3.org/2000/svg" width="400" height="400" viewBox="0 0 3 3" stroke="blue" stroke-width="0.008000" fill="none">
<path d="M 2.015129 1.163435 A 0.114796 0.114796 0 0 1 1.973319 1.284835"/>
<path d="M 1.973319 1.284835 A 0.200841 0.200841 0 0 1 1.933307 1.176897"/>
<path d="M 1.933307 1.176897 A 0.420601 0.420601 0 0 0 2.015129 1.163435"/>
<path d="M 1.732051 1.267949 A 0.240237 0.240237 0 0 1 1.964102 0.866025"/>
<path d="M 1.964102 0.866025 A 0.313083 0.313083 0 0 0 1.985876 1.085845"/>
<path d="M 1.985876 1.085845 A 0.094781 0.094781 0 0 0 1.933307 1.176897"/>
<path d="M 1.933307 1.176897 A 0.313083 0.313083 0 0 0 1.732051 1.267949"/>
<path d="M 2.015129 1.163435 A 0.420601 0.420601 0 0 0 1.985876 1.085845"/>
<path d="M 1.985876 1.085845 A 0.200841 0.200841 0 0 1 2.099360 1.066527"/>
<path d="M 2.099360 1.066527 A 0.114796 0.114796 0 0 1 2.015129 1.163435"/>
<path d="M 1.973319 1.284835 A 0.590770 0.590770 0 0 0 2.598076 1.500000"/>
<path d="M 2.598076 1.500000 A 0.517638 0.517638 0 1 1 1.732051 1.267949"/>
<path d="M 1.732051 1.267949 A 0.184340 0.184340 0 0 0 1.973319 1.284835"/>
<path d="M 1.964102 0.866025 A 0.517638 0.517638 0 1 1 2.598076 1.500000"/>
<path d="M 2.598076 1.500000 A 0.590770 0.590770 0 0 0 2.099360 1.066527"/>
<path d="M 2.099360 1.066527 A 0.184340 0.184340 0 0 0 1.964102 0.866025"/>
<path d="M 1.933822 1.184880 L 1.932793 1.168914" stroke-width="0.024000" stroke="white"/>
<path d="M 1.933822 1.184880 L 1.932793 1.168914" stroke-width="0.008000" stroke="blue"/>
<path d="M 2.007402 1.165506 L 2.022856 1.161365" stroke-width="0.024000" stroke="white"/>
<path d="M 2.007402 1.165506 L 2.022856 1.161365" stroke-width="0.008000" stroke="blue"/>
<path d="M 2.107300 1.067501 L 2.091419 1.065553" stroke-width="0.024000" stroke="white"/>
<path d="M 2.107300 1.067501 L 2.091419 1.065553" stroke-width="0.008000" stroke="blue"/>
<path d="M 1.971829 0.868096 L 1.956374 0.863955" stroke-width="0.024000" stroke="white"/>
<path d="M 1.971829 0.868096 L 1.956374 0.863955" stroke-width="0.008000" stroke="blue"/>
<path d="M 1.726394 1.273606 L 1.737708 1.262292" stroke-width="0.024000" stroke="white"/>
<path d="M 1.726394 1.273606 L 1.737708 1.262292" stroke-width="0.008000" stroke="blue"/>
<path d="M 1.966930 1.289649 L 1.979709 1.280022" stroke-width="0.024000" stroke="white"/>
<path d="M 1.966930 1.289649 L 1.979709 1.280022" stroke-width="0.008000" stroke="blue"/>
<path d="M 1.989423 1.093016 L 1.982330 1.078674" stroke-width="0.024000" stroke="white"/>
<path d="M 1.989423 1.093016 L 1.982330 1.078674" stroke-width="0.008000" stroke="blue"/>
<path d="M 2.605804 1.497929 L 2.590349 1.502071" stroke-width="0.024000" stroke="white"/>
<path d="M 2.605804 1.497929 L 2.590349 1.502071" stroke-width="0.008000" stroke="blue"/>
</svg>
