<svg xmlns="http://www.w3.org/2000/svg" width="400" height="400" viewBox="0 0 3 3" stroke="blue" stroke-width="0.008000" fill="none">
<path d="M 1.539977 0.856291 A 0.042169 0.042169 0 0 1 1.511558 0.905513"/>
<path d="M 1.511558 0.905513 A 0.038466 0.038466 0 0 1 1.539977 0.856291"/>
<path d="M 1.484939 0.964229 A 0.043387 0.043387 0 0 1 1.511558 0.905513"/>
<path d="M 1.511558 0.905513 A 0.048157 0.048157 0 0 1 1.484939 0.964229"/>
<path d="M 1.539977 0.856291 A 0.043387 0.043387 0 0 1 1.577516 0.803880"/>
<path d="M 1.577516 0.803880 A 0.048157 0.048157 0 0 1 1.539977 0.856291"/>
<path d="M 1.456583 1.057649 A 0.064176 0.064176 0 0 1 1.484939 0.964229"/>
<path d="M 1.484939 0.964229 A 0.075194 0.075194 0 0 1 1.456583 1.057649"/>
<path d="M 1.644243 0.732613 A 0.075194 0.075194 0 0 1 1.577516 0.803880"/>
<path d="M 1.577516 0.803880 A 0.064176 0.064176 0 0 1 1.644243 0.732613"/>
<path d="M 1.456583 1.057649 A 0.207966 0.207966 0 0 1 1.450457 1.290993"/>
<path d="M 1.450457 1.290993 A 0.141012 0.141012 0 0 1 1.456583 1.057649"/>
<path d="M 1.644243 0.732613 A 0.141012 0.141012 0 0 1 1.843261 0.610636"/>
<path d="M 1.843261 0.610636 A 0.207966 0.207966 0 0 1 1.644243 0.732613"/>
<path d="M 2.598076 1.500000 A 0.645243 0.645243 0 1 1 1.450457 1.290993"/>
<path d="M 1.450457 1.290993 A 1.363685 1.363685 0 0 0 2.598076 1.500000"/>
<path d="M 2.598076 1.500000 A 1.363685 1.363685 0 0 0 1.843261 0.610636"/>
<path d="M 1.843261 0.610636 A 0.645243 0.645243 0 1 1 2.598076 1.500000"/>
<path d="M 1.519182 0.903090 L 1.503934 0.907936" stroke-width="0.024000" stroke="white"/>
<path d="M 1.519182 0.903090 L 1.503934 0.907936" stroke-width="0.008000" stroke="blue"/>
<path d="M 1.532162 0.858005 L 1.547791 0.854577" stroke-width="0.024000" stroke="white"/>
<path d="M 1.532162 0.858005 L 1.547791 0.854577" stroke-width="0.008000" stroke="blue"/>
<path d="M 1.585466 0.802988 L 1.569566 0.804773" stroke-width="0.024000" stroke="white"/>
<path d="M 1.585466 0.802988 L 1.569566 0.804773" stroke-width="0.008000" stroke="blue"/>
<path d="M 1.636251 0.732246 L 1.652234 0.732981" stroke-width="0.024000" stroke="white"/>
<path d="M 1.636251 0.732246 L 1.652234 0.732981" stroke-width="0.008000" stroke="blue"/>
<path d="M 1.850549 0.613935 L 1.835973 0.607336" stroke-width="0.024000" stroke="white"/>
<path d="M 1.850549 0.613935 L 1.835973 0.607336" stroke-width="0.008000" stroke="blue"/>
<path d="M 2.605804 1.497929 L 2.590349 1.502071" stroke-width="0.024000" stroke="white"/>
<path d="M 2.605804 1.497929 L 2.590349 1.502071" stroke-width="0.008000" stroke="blue"/>
<path d="M 1.455118 1.284492 L 1.445795 1.297494" stroke-width="0.024000" stroke="white"/>
<path d="M 1.455118 1.284492 L 1.445795 1.297494" stroke-width="0.008000" stroke="blue"/>
<path d="M 1.449846 1.061964 L 1.463320 1.053335" stroke-width="0.024000" stroke="white"/>
<path d="M 1.449846 1.061964 L 1.463320 1.053335" stroke-width="0.008000" stroke="blue"/>
<path d="M 1.492270 0.961027 L 1.477608 0.967431" stroke-width="0.024000" stroke="white"/>
<path d="M 1.492270 0.961027 L 1.477608 0.967431" stroke-width="0.008000" stroke="blue"/>
</svg>
