<svg xmlns="http://www.w3.org/2000/svg" width="400" height="400" viewBox="0 0 3 3" stroke="blue" stroke-width="0.008000" fill="none">
<path d="M 1.959952 1.026316 A 0.110770 0.110770 0 0 1 1.905256 0.900000"/>
<path d="M 1.905256 0.900000 A 0.087837 0.087837 0 0 1 1.959952 1.026316"/>
<path d="M 1.823211 0.789474 A 0.117074 0.117074 0 0 0 1.887321 0.772762"/>
<path d="M 1.887321 0.772762 A 0.164273 0.164273 0 0 1 1.905256 0.900000"/>
<path d="M 1.905256 0.900000 A 0.110770 0.110770 0 0 1 1.823211 0.789474"/>
<path d="M 1.979487 1.285714 A 0.242206 0.242206 0 0 1 1.959952 1.026316"/>
<path d="M 1.959952 1.026316 A 0.154184 0.154184 0 0 1 1.979487 1.285714"/>
<path d="M 1.887321 0.772762 A 0.033570 0.033570 0 0 1 1.883931 0.745795"/>
<path d="M 1.883931 0.745795 A 0.014862 0.014862 0 0 1 1.887321 0.772762"/>
<path d="M 1.608333 0.642857 A 0.199900 0.199900 0 0 1 1.860616 0.727273"/>
<path d="M 1.860616 0.727273 A 0.074401 0.074401 0 0 0 1.823211 0.789474"/>
<path d="M 1.823211 0.789474 A 0.242206 0.242206 0 0 1 1.608333 0.642857"/>
<path d="M 1.979487 1.285714 A 0.630215 0.630215 0 1 1 0.866025 1.500000"/>
<path d="M 0.866025 1.500000 A 1.298258 1.298258 0 0 0 1.979487 1.285714"/>
<path d="M 1.860616 0.727273 A 0.016029 0.016029 0 0 1 1.883931 0.745795"/>
<path d="M 1.883931 0.745795 A 0.040178 0.040178 0 0 1 1.860616 0.727273"/>
<path d="M 1.608333 0.642857 A 1.298258 1.298258 0 0 0 0.866025 1.500000"/>
<path d="M 0.866025 1.500000 A 0.630215 0.630215 0 1 1 1.608333 0.642857"/>
<path d="M 1.903185 0.907727 L 1.907326 0.892273" stroke-width="0.024000" stroke="white"/>
<path d="M 1.903185 0.907727 L 1.907326 0.892273" stroke-width="0.008000" stroke="blue"/>
<path d="M 1.963729 1.019264 L 1.956175 1.033368" stroke-width="0.024000" stroke="white"/>
<path d="M 1.963729 1.019264 L 1.956175 1.033368" stroke-width="0.008000" stroke="blue"/>
<path d="M 1.973080 1.290505 L 1.985894 1.280924" stroke-width="0.024000" stroke="white"/>
<path d="M 1.973080 1.290505 L 1.985894 1.280924" stroke-width="0.008000" stroke="blue"/>
<path d="M 0.863955 1.507727 L 0.868096 1.492273" stroke-width="0.024000" stroke="white"/>
<path d="M 0.863955 1.507727 L 0.868096 1.492273" stroke-width="0.008000" stroke="blue"/>
<path d="M 1.611486 0.650209 L 1.605180 0.635505" stroke-width="0.024000" stroke="white"/>
<path d="M 1.611486 0.650209 L 1.605180 0.635505" stroke-width="0.008000" stroke="blue"/>
<path d="M 1.856642 0.720330 L 1.864590 0.734216" stroke-width="0.024000" stroke="white"/>
<path d="M 1.856642 0.720330 L 1.864590 0.734216" stroke-width="0.008000" stroke="blue"/>
<path d="M 1.881630 0.753457 L 1.886231 0.738133" stroke-width="0.024000" stroke="white"/>
<path d="M 1.881630 0.753457 L 1.886231 0.738133" stroke-width="0.008000" stroke="blue"/>
<path d="M 1.894175 0.768637 L 1.880467 0.776888" stroke-width="0.024000" stroke="white"/>
<path d="M 1.894175 0.768637 L 1.880467 0.776888" stroke-width="0.008000" stroke="blue"/>
<path d="M 1.823466 0.781478 L 1.822956 0.797470" stroke-width="0.024000" stroke="white"/>
<path d="M 1.823466 0.781478 L 1.822956 0.797470" stroke-width="0.008000" stroke="blue"/>
</svg>
