<svg xmlns="http://www.w3.org/2000/svg" width="400" height="400" viewBox="0 0 3 3" stroke="blue" stroke-width="0.008000" fill="none">
<path d="M 1.793117 0.739102 A 0.289397 0.289397 0 0 0 1.964102 0.866025"/>
<path d="M 1.964102 0.866025 A 0.896575 0.896575 0 0 1 1.732051 1.267949"/>
<path d="M 1.732051 1.267949 A 0.378937 0.378937 0 0 1 1.732051 0.732051"/>
<path d="M 1.732051 0.732051 A 0.049468 0.049468 0 0 0 1.793117 0.739102"/>
<path d="M 1.834368 0.586489 A 0.656339 0.656339 0 0 0 1.789297 0.715763"/>
<path d="M 1.789297 0.715763 A 0.061157 0.061157 0 0 0 1.732051 0.732051"/>
<path d="M 1.732051 0.732051 A 0.090306 0.090306 0 0 1 1.834368 0.586489"/>
<path d="M 1.793117 0.739102 A 0.030860 0.030860 0 0 1 1.789297 0.715763"/>
<path d="M 1.789297 0.715763 A 0.012802 0.012802 0 0 1 1.793117 0.739102"/>
<path d="M 2.598076 1.500000 A 0.517638 0.517638 0 1 1 1.732051 1.267949"/>
<path d="M 1.732051 1.267949 A 0.896575 0.896575 0 0 0 2.598076 1.500000"/>
<path d="M 2.598076 1.500000 A 0.896575 0.896575 0 0 0 1.964102 0.866025"/>
<path d="M 1.964102 0.866025 A 0.240237 0.240237 0 0 0 1.834368 0.586489"/>
<path d="M 1.834368 0.586489 A 0.656339 0.656339 0 1 1 2.598076 1.500000"/>
<path d="M 1.726394 0.737708 L 1.737708 0.726394" stroke-width="0.024000" stroke="white"/>
<path d="M 1.726394 0.737708 L 1.737708 0.726394" stroke-width="0.008000" stroke="blue"/>
<path d="M 1.786320 0.743321 L 1.799914 0.734883" stroke-width="0.024000" stroke="white"/>
<path d="M 1.786320 0.743321 L 1.799914 0.734883" stroke-width="0.008000" stroke="blue"/>
<path d="M 1.791128 0.707975 L 1.787465 0.723550" stroke-width="0.024000" stroke="white"/>
<path d="M 1.791128 0.707975 L 1.787465 0.723550" stroke-width="0.008000" stroke="blue"/>
<path d="M 1.726394 1.273606 L 1.737708 1.262292" stroke-width="0.024000" stroke="white"/>
<path d="M 1.726394 1.273606 L 1.737708 1.262292" stroke-width="0.008000" stroke="blue"/>
<path d="M 2.590349 1.502071 L 2.605804 1.497929" stroke-width="0.024000" stroke="white"/>
<path d="M 2.590349 1.502071 L 2.605804 1.497929" stroke-width="0.008000" stroke="blue"/>
<path d="M 1.827130 0.583082 L 1.841606 0.589896" stroke-width="0.024000" stroke="white"/>
<path d="M 1.827130 0.583082 L 1.841606 0.589896" stroke-width="0.008000" stroke="blue"/>
<path d="M 1.956374 0.863955 L 1.971829 0.868096" stroke-width="0.024000" stroke="white"/>
<path d="M 1.956374 0.863955 L 1.971829 0.868096" stroke-width="0.008000" stroke="blue"/>
</svg>
