<svg xmlns="http://www.w3.org/2000/svg" width="400" height="400" viewBox="0 0 3 3" stroke="blue" stroke-width="0.008000" fill="none">
<path d="M 1.988637 0.937282 A 0.034129 0.034129 0 0 1 1.988708 0.991742"/>
<path d="M 1.988708 0.991742 A 0.145723 0.145723 0 0 1 1.967619 0.952735"/>
<path d="M 1.967619 0.952735 A 0.045452 0.045452 0 0 0 1.988637 0.937282"/>
<path d="M 1.916534 1.000000 A 0.157289 0.157289 0 0 1 1.824292 0.840233"/>
<path d="M 1.824292 0.840233 A 0.220089 0.220089 0 0 1 1.975854 0.924648"/>
<path d="M 1.975854 0.924648 A 0.024906 0.024906 0 0 0 1.967619 0.952735"/>
<path d="M 1.967619 0.952735 A 0.088588 0.088588 0 0 0 1.916534 1.000000"/>
<path d="M 1.988637 0.937282 A 0.067385 0.067385 0 0 1 1.975854 0.924648"/>
<path d="M 1.975854 0.924648 A 0.009068 0.009068 0 0 1 1.988637 0.937282"/>
<path d="M 1.950297 1.281754 A 0.276062 0.276062 0 0 1 1.916534 1.000000"/>
<path d="M 1.916534 1.000000 A 0.071309 0.071309 0 0 0 1.988708 0.991742"/>
<path d="M 1.988708 0.991742 A 0.207974 0.207974 0 0 1 1.950297 1.281754"/>
<path d="M 1.597167 0.670116 A 0.165403 0.165403 0 0 1 1.824292 0.840233"/>
<path d="M 1.824292 0.840233 A 0.276062 0.276062 0 0 1 1.597167 0.670116"/>
<path d="M 1.950297 1.281754 A 0.617292 0.617292 0 1 1 0.866025 1.500000"/>
<path d="M 0.866025 1.500000 A 1.244584 1.244584 0 0 0 1.950297 1.281754"/>
<path d="M 1.597167 0.670116 A 1.244584 1.244584 0 0 0 0.866025 1.500000"/>
<path d="M 0.866025 1.500000 A 0.617292 0.617292 0 1 1 1.597167 0.670116"/>
<path d="M 1.970309 0.960269 L 1.964930 0.945201" stroke-width="0.024000" stroke="white"/>
<path d="M 1.970309 0.960269 L 1.964930 0.945201" stroke-width="0.008000" stroke="blue"/>
<path d="M 1.983823 0.943671 L 1.993452 0.930893" stroke-width="0.024000" stroke="white"/>
<path d="M 1.983823 0.943671 L 1.993452 0.930893" stroke-width="0.008000" stroke="blue"/>
<path d="M 1.970965 0.918316 L 1.980743 0.930980" stroke-width="0.024000" stroke="white"/>
<path d="M 1.970965 0.918316 L 1.980743 0.930980" stroke-width="0.008000" stroke="blue"/>
<path d="M 1.982332 0.996573 L 1.995085 0.986911" stroke-width="0.024000" stroke="white"/>
<path d="M 1.982332 0.996573 L 1.995085 0.986911" stroke-width="0.008000" stroke="blue"/>
<path d="M 1.956621 1.276855 L 1.943972 1.286653" stroke-width="0.024000" stroke="white"/>
<path d="M 1.956621 1.276855 L 1.943972 1.286653" stroke-width="0.008000" stroke="blue"/>
<path d="M 0.868096 1.492273 L 0.863955 1.507727" stroke-width="0.024000" stroke="white"/>
<path d="M 0.868096 1.492273 L 0.863955 1.507727" stroke-width="0.008000" stroke="blue"/>
<path d="M 1.594140 0.662712 L 1.600195 0.677521" stroke-width="0.024000" stroke="white"/>
<path d="M 1.594140 0.662712 L 1.600195 0.677521" stroke-width="0.008000" stroke="blue"/>
<path d="M 1.823469 0.848191 L 1.825115 0.832275" stroke-width="0.024000" stroke="white"/>
<path d="M 1.823469 0.848191 L 1.825115 0.832275" stroke-width="0.008000" stroke="blue"/>
<path d="M 1.919800 0.992697 L 1.913268 1.007303" stroke-width="0.024000" stroke="white"/>
<path d="M 1.919800 0.992697 L 1.913268 1.007303" stroke-width="0.008000" stroke="blue"/>
</svg>
