<svg xmlns="http://www.w3.org/2000/svg" width="400" height="400" viewBox="0 0 3 3" stroke="blue" stroke-width="0.008000" fill="none">
<path d="M 1.853939 1.001448 A 0.291577 0.291577 0 0 1 1.824292 0.840233"/>
<path d="M 1.824292 0.840233 A 0.113880 0.113880 0 0 1 1.916534 1.000000"/>
<path d="M 1.916534 1.000000 A 0.072931 0.072931 0 0 0 1.853939 1.001448"/>
<path d="M 1.950297 1.281754 A 0.205764 0.205764 0 0 0 1.841737 1.209237"/>
<path d="M 1.841737 1.209237 A 0.599231 0.599231 0 0 0 1.862623 1.035958"/>
<path d="M 1.862623 1.035958 A 0.060801 0.060801 0 0 0 1.916534 1.000000"/>
<path d="M 1.916534 1.000000 A 0.165403 0.165403 0 0 1 1.950297 1.281754"/>
<path d="M 1.853939 1.001448 A 0.081424 0.081424 0 0 1 1.862623 1.035958"/>
<path d="M 1.862623 1.035958 A 0.018234 0.018234 0 0 1 1.853939 1.001448"/>
<path d="M 1.597167 0.670116 A 0.165403 0.165403 0 0 1 1.824292 0.840233"/>
<path d="M 1.824292 0.840233 A 0.276062 0.276062 0 0 1 1.597167 0.670116"/>
<path d="M 1.805058 1.269489 A 0.107691 0.107691 0 0 0 1.950297 1.281754"/>
<path d="M 1.950297 1.281754 A 0.617292 0.617292 0 1 1 0.866025 1.500000"/>
<path d="M 0.866025 1.500000 A 1.003784 1.003784 0 0 0 1.805058 1.269489"/>
<path d="M 1.805058 1.269489 A 0.036706 0.036706 0 0 1 1.841737 1.209237"/>
<path d="M 1.841737 1.209237 A 0.127299 0.127299 0 0 1 1.805058 1.269489"/>
<path d="M 1.597167 0.670116 A 1.244584 1.244584 0 0 0 0.866025 1.500000"/>
<path d="M 0.866025 1.500000 A 0.617292 0.617292 0 1 1 1.597167 0.670116"/>
<path d="M 1.919800 0.992697 L 1.913268 1.007303" stroke-width="0.024000" stroke="white"/>
<path d="M 1.919800 0.992697 L 1.913268 1.007303" stroke-width="0.008000" stroke="blue"/>
<path d="M 1.861083 0.997848 L 1.846795 1.005048" stroke-width="0.024000" stroke="white"/>
<path d="M 1.861083 0.997848 L 1.846795 1.005048" stroke-width="0.008000" stroke="blue"/>
<path d="M 1.862832 1.043956 L 1.862413 1.027961" stroke-width="0.024000" stroke="white"/>
<path d="M 1.862832 1.043956 L 1.862413 1.027961" stroke-width="0.008000" stroke="blue"/>
<path d="M 1.825115 0.832275 L 1.823469 0.848191" stroke-width="0.024000" stroke="white"/>
<path d="M 1.825115 0.832275 L 1.823469 0.848191" stroke-width="0.008000" stroke="blue"/>
<path d="M 1.600195 0.677521 L 1.594140 0.662712" stroke-width="0.024000" stroke="white"/>
<path d="M 1.600195 0.677521 L 1.594140 0.662712" stroke-width="0.008000" stroke="blue"/>
<path d="M 0.863955 1.507727 L 0.868096 1.492273" stroke-width="0.024000" stroke="white"/>
<path d="M 0.863955 1.507727 L 0.868096 1.492273" stroke-width="0.008000" stroke="blue"/>
<path d="M 1.799168 1.274902 L 1.810948 1.264075" stroke-width="0.024000" stroke="white"/>
<path d="M 1.799168 1.274902 L 1.810948 1.264075" stroke-width="0.008000" stroke="blue"/>
<path d="M 1.849455 1.211340 L 1.834018 1.207133" stroke-width="0.024000" stroke="white"/>
<path d="M 1.849455 1.211340 L 1.834018 1.207133" stroke-width="0.008000" stroke="blue"/>
<path d="M 1.956621 1.276855 L 1.943972 1.286653" stroke-width="0.024000" stroke="white"/>
<path d="M 1.956621 1.276855 L 1.943972 1.286653" stroke-width="0.008000" stroke="blue"/>
</svg>
