<svg xmlns="http://www.w3.org/2000/svg" width="400" height="400" viewBox="0 0 3 3" stroke="blue" stroke-width="0.008000" fill="none">
<path d="M 2.058554 1.188507 A 0.440518 0.440518 0 0 0 1.890969 1.275255"/>
<path d="M 1.890969 1.275255 A 0.362741 0.362741 0 0 1 1.819537 0.949490"/>
<path d="M 1.819537 0.949490 A 0.405168 0.405168 0 0 1 2.073934 1.153523"/>
<path d="M 2.073934 1.153523 A 0.030540 0.030540 0 0 0 2.058554 1.188507"/>
<path d="M 2.147777 1.208017 A 0.477913 0.477913 0 0 1 2.076521 1.189171"/>
<path d="M 2.076521 1.189171 A 0.045021 0.045021 0 0 0 2.073934 1.153523"/>
<path d="M 2.073934 1.153523 A 0.051069 0.051069 0 0 1 2.147777 1.208017"/>
<path d="M 2.058554 1.188507 A 0.030540 0.030540 0 0 1 2.076521 1.189171"/>
<path d="M 2.076521 1.189171 A 0.009406 0.009406 0 0 1 2.058554 1.188507"/>
<path d="M 1.573132 0.724745 A 0.187769 0.187769 0 0 1 1.819537 0.949490"/>
<path d="M 1.819537 0.949490 A 0.362741 0.362741 0 0 1 1.573132 0.724745"/>
<path d="M 1.890969 1.275255 A 0.217400 0.217400 0 0 0 2.168211 1.323765"/>
<path d="M 2.168211 1.323765 A 0.712235 0.712235 0 1 1 0.866025 1.500000"/>
<path d="M 0.866025 1.500000 A 1.141281 1.141281 0 0 0 1.890969 1.275255"/>
<path d="M 2.168211 1.323765 A 0.168573 0.168573 0 0 1 2.147777 1.208017"/>
<path d="M 2.147777 1.208017 A 0.062703 0.062703 0 0 1 2.168211 1.323765"/>
<path d="M 1.573132 0.724745 A 1.141281 1.141281 0 0 0 0.866025 1.500000"/>
<path d="M 0.866025 1.500000 A 0.590770 0.590770 0 1 1 1.573132 0.724745"/>
<path d="M 2.070235 1.146429 L 2.077632 1.160616" stroke-width="0.024000" stroke="white"/>
<path d="M 2.070235 1.146429 L 2.077632 1.160616" stroke-width="0.008000" stroke="blue"/>
<path d="M 2.056484 1.180779 L 2.060625 1.196234" stroke-width="0.024000" stroke="white"/>
<path d="M 2.056484 1.180779 L 2.060625 1.196234" stroke-width="0.008000" stroke="blue"/>
<path d="M 2.084074 1.191807 L 2.068967 1.186536" stroke-width="0.024000" stroke="white"/>
<path d="M 2.084074 1.191807 L 2.068967 1.186536" stroke-width="0.008000" stroke="blue"/>
<path d="M 1.821608 0.941762 L 1.817467 0.957217" stroke-width="0.024000" stroke="white"/>
<path d="M 1.821608 0.941762 L 1.817467 0.957217" stroke-width="0.008000" stroke="blue"/>
<path d="M 1.575903 0.732250 L 1.570361 0.717240" stroke-width="0.024000" stroke="white"/>
<path d="M 1.575903 0.732250 L 1.570361 0.717240" stroke-width="0.008000" stroke="blue"/>
<path d="M 0.863955 1.507727 L 0.868096 1.492273" stroke-width="0.024000" stroke="white"/>
<path d="M 0.863955 1.507727 L 0.868096 1.492273" stroke-width="0.008000" stroke="blue"/>
<path d="M 1.884817 1.280369 L 1.897121 1.270141" stroke-width="0.024000" stroke="white"/>
<path d="M 1.884817 1.280369 L 1.897121 1.270141" stroke-width="0.008000" stroke="blue"/>
<path d="M 2.146334 1.215886 L 2.149220 1.200148" stroke-width="0.024000" stroke="white"/>
<path d="M 2.146334 1.215886 L 2.149220 1.200148" stroke-width="0.008000" stroke="blue"/>
<path d="M 2.175110 1.319715 L 2.161312 1.327815" stroke-width="0.024000" stroke="white"/>
<path d="M 2.175110 1.319715 L 2.161312 1.327815" stroke-width="0.008000" stroke="blue"/>
</svg>
