<svg xmlns="http://www.w3.org/2000/svg" width="400" height="400" viewBox="0 0 3 3" stroke="blue" stroke-width="0.008000" fill="none">
<path d="M 1.646334 0.974980 A 0.290376 0.290376 0 0 1 1.696902 0.933858"/>
<path d="M 1.696902 0.933858 A 0.044694 0.044694 0 0 1 1.657195 1.002631"/>
<path d="M 1.657195 1.002631 A 0.036351 0.036351 0 0 0 1.646334 0.974980"/>
<path d="M 1.552523 1.277278 A 0.215486 0.215486 0 0 1 1.544856 0.949112"/>
<path d="M 1.544856 0.949112 A 0.099681 0.099681 0 0 0 1.633735 0.981388"/>
<path d="M 1.633735 0.981388 A 0.024886 0.024886 0 0 0 1.657195 1.002631"/>
<path d="M 1.657195 1.002631 A 0.470817 0.470817 0 0 1 1.552523 1.277278"/>
<path d="M 1.646334 0.974980 A 0.022155 0.022155 0 0 1 1.633735 0.981388"/>
<path d="M 1.633735 0.981388 A 0.007458 0.007458 0 0 1 1.646334 0.974980"/>
<path d="M 1.594383 0.863329 A 0.215486 0.215486 0 0 1 1.882417 0.705885"/>
<path d="M 1.882417 0.705885 A 0.470817 0.470817 0 0 1 1.696902 0.933858"/>
<path d="M 1.696902 0.933858 A 0.160563 0.160563 0 0 0 1.594383 0.863329"/>
<path d="M 1.594383 0.863329 A 0.157959 0.157959 0 0 1 1.544856 0.949112"/>
<path d="M 1.544856 0.949112 A 0.052157 0.052157 0 0 1 1.594383 0.863329"/>
<path d="M 2.598076 1.500000 A 0.600025 0.600025 0 1 1 1.552523 1.277278"/>
<path d="M 1.552523 1.277278 A 1.176331 1.176331 0 0 0 2.598076 1.500000"/>
<path d="M 2.598076 1.500000 A 1.176331 1.176331 0 0 0 1.882417 0.705885"/>
<path d="M 1.882417 0.705885 A 0.600025 0.600025 0 1 1 2.598076 1.500000"/>
<path d="M 1.665187 1.003005 L 1.649204 1.002258" stroke-width="0.024000" stroke="white"/>
<path d="M 1.665187 1.003005 L 1.649204 1.002258" stroke-width="0.008000" stroke="blue"/>
<path d="M 1.652047 0.980581 L 1.640622 0.969379" stroke-width="0.024000" stroke="white"/>
<path d="M 1.652047 0.980581 L 1.640622 0.969379" stroke-width="0.008000" stroke="blue"/>
<path d="M 1.625819 0.982551 L 1.641650 0.980226" stroke-width="0.024000" stroke="white"/>
<path d="M 1.625819 0.982551 L 1.641650 0.980226" stroke-width="0.008000" stroke="blue"/>
<path d="M 1.703636 0.929539 L 1.690168 0.938177" stroke-width="0.024000" stroke="white"/>
<path d="M 1.703636 0.929539 L 1.690168 0.938177" stroke-width="0.008000" stroke="blue"/>
<path d="M 1.602216 0.864955 L 1.586550 0.861703" stroke-width="0.024000" stroke="white"/>
<path d="M 1.602216 0.864955 L 1.586550 0.861703" stroke-width="0.008000" stroke="blue"/>
<path d="M 1.538886 0.954436 L 1.550827 0.943787" stroke-width="0.024000" stroke="white"/>
<path d="M 1.538886 0.954436 L 1.550827 0.943787" stroke-width="0.008000" stroke="blue"/>
<path d="M 1.889888 0.708746 L 1.874946 0.703025" stroke-width="0.024000" stroke="white"/>
<path d="M 1.889888 0.708746 L 1.874946 0.703025" stroke-width="0.008000" stroke="blue"/>
<path d="M 2.605804 1.497929 L 2.590349 1.502071" stroke-width="0.024000" stroke="white"/>
<path d="M 2.605804 1.497929 L 2.590349 1.502071" stroke-width="0.008000" stroke="blue"/>
<path d="M 1.557563 1.271066 L 1.547483 1.283491" stroke-width="0.024000" stroke="white"/>
<path d="M 1.557563 1.271066 L 1.547483 1.283491" stroke-width="0.008000" stroke="blue"/>
</svg>
