<svg xmlns="http://www.w3.org/2000/svg" width="400" height="400" viewBox="0 0 3 3" stroke="blue" stroke-width="0.008000" fill="none">
<path d="M 1.694163 1.181254 A 0.035319 0.035319 0 0 1 1.648022 1.168037"/>
<path d="M 1.648022 1.168037 A 0.032709 0.032709 0 0 1 1.694163 1.181254"/>
<path d="M 1.520976 1.280859 A 0.146906 0.146906 0 0 1 1.599894 1.018643"/>
<path d="M 1.599894 1.018643 A 0.339724 0.339724 0 0 0 1.648022 1.168037"/>
<path d="M 1.648022 1.168037 A 0.470907 0.470907 0 0 0 1.520976 1.280859"/>
<path d="M 1.769974 1.136974 A 0.103053 0.103053 0 0 1 1.756146 1.268117"/>
<path d="M 1.756146 1.268117 A 0.353050 0.353050 0 0 1 1.694163 1.181254"/>
<path d="M 1.694163 1.181254 A 0.725251 0.725251 0 0 0 1.769974 1.136974"/>
<path d="M 1.770244 1.063781 A 0.266052 0.266052 0 0 0 1.599894 1.018643"/>
<path d="M 1.599894 1.018643 A 0.239147 0.239147 0 0 1 1.914150 0.773078"/>
<path d="M 1.914150 0.773078 A 1.188160 1.188160 0 0 1 1.770244 1.063781"/>
<path d="M 1.756146 1.268117 A 0.862904 0.862904 0 0 0 2.598076 1.500000"/>
<path d="M 2.598076 1.500000 A 0.614106 0.614106 0 1 1 1.520976 1.280859"/>
<path d="M 1.520976 1.280859 A 0.179127 0.179127 0 0 0 1.756146 1.268117"/>
<path d="M 1.769974 1.136974 A 0.065496 0.065496 0 0 1 1.770244 1.063781"/>
<path d="M 1.770244 1.063781 A 0.044128 0.044128 0 0 1 1.769974 1.136974"/>
<path d="M 2.598076 1.500000 A 1.054192 1.054192 0 0 0 1.914150 0.773078"/>
<path d="M 1.914150 0.773078 A 0.566543 0.566543 0 1 1 2.598076 1.500000"/>
<path d="M 1.652167 1.174879 L 1.643876 1.161195" stroke-width="0.024000" stroke="white"/>
<path d="M 1.652167 1.174879 L 1.643876 1.161195" stroke-width="0.008000" stroke="blue"/>
<path d="M 1.690554 1.174115 L 1.697772 1.188394" stroke-width="0.024000" stroke="white"/>
<path d="M 1.690554 1.174115 L 1.697772 1.188394" stroke-width="0.008000" stroke="blue"/>
<path d="M 1.750411 1.273694 L 1.761881 1.262539" stroke-width="0.024000" stroke="white"/>
<path d="M 1.750411 1.273694 L 1.761881 1.262539" stroke-width="0.008000" stroke="blue"/>
<path d="M 2.590349 1.502071 L 2.605804 1.497929" stroke-width="0.024000" stroke="white"/>
<path d="M 2.590349 1.502071 L 2.605804 1.497929" stroke-width="0.008000" stroke="blue"/>
<path d="M 1.906563 0.770541 L 1.921737 0.775615" stroke-width="0.024000" stroke="white"/>
<path d="M 1.906563 0.770541 L 1.921737 0.775615" stroke-width="0.008000" stroke="blue"/>
<path d="M 1.774739 1.057163 L 1.765750 1.070399" stroke-width="0.024000" stroke="white"/>
<path d="M 1.774739 1.057163 L 1.765750 1.070399" stroke-width="0.008000" stroke="blue"/>
<path d="M 1.763323 1.141420 L 1.776625 1.132529" stroke-width="0.024000" stroke="white"/>
<path d="M 1.763323 1.141420 L 1.776625 1.132529" stroke-width="0.008000" stroke="blue"/>
<path d="M 1.525901 1.274554 L 1.516051 1.287163" stroke-width="0.024000" stroke="white"/>
<path d="M 1.525901 1.274554 L 1.516051 1.287163" stroke-width="0.008000" stroke="blue"/>
<path d="M 1.591918 1.019271 L 1.607869 1.018015" stroke-width="0.024000" stroke="white"/>
<path d="M 1.591918 1.019271 L 1.607869 1.018015" stroke-width="0.008000" stroke="blue"/>
</svg>
