<svg xmlns="http://www.w3.org/2000/svg" width="400" height="400" viewBox="0 0 3 3" stroke="blue" stroke-width="0.008000" fill="none">
<path d="M 1.525087 1.170184 A 0.854664 0.854664 0 0 0 1.500000 0.866025"/>
<path d="M 1.500000 0.866025 A 0.240237 0.240237 0 0 1 1.732051 1.267949"/>
<path d="M 1.732051 1.267949 A 0.200841 0.200841 0 0 0 1.566300 1.210532"/>
<path d="M 1.566300 1.210532 A 0.030860 0.030860 0 0 0 1.536640 1.183334"/>
<path d="M 1.536640 1.183334 A 0.012802 0.012802 0 0 0 1.525087 1.170184"/>
<path d="M 1.531248 1.204264 A 0.018753 0.018753 0 0 1 1.522526 1.180220"/>
<path d="M 1.522526 1.180220 A 0.039226 0.039226 0 0 0 1.536640 1.183334"/>
<path d="M 1.536640 1.183334 A 0.049468 0.049468 0 0 1 1.531248 1.204264"/>
<path d="M 1.525087 1.170184 A 0.034064 0.034064 0 0 1 1.522526 1.180220"/>
<path d="M 1.522526 1.180220 A 0.005239 0.005239 0 0 1 1.525087 1.170184"/>
<path d="M 1.546942 1.277869 A 0.059667 0.059667 0 0 1 1.531248 1.204264"/>
<path d="M 1.531248 1.204264 A 0.061157 0.061157 0 0 0 1.566300 1.210532"/>
<path d="M 1.566300 1.210532 A 0.090306 0.090306 0 0 1 1.546942 1.277869"/>
<path d="M 1.546942 1.277869 A 0.138701 0.138701 0 0 0 1.732051 1.267949"/>
<path d="M 1.732051 1.267949 A 0.517638 0.517638 0 1 1 0.866025 1.500000"/>
<path d="M 0.866025 1.500000 A 0.656339 0.656339 0 0 0 1.546942 1.277869"/>
<path d="M 1.500000 0.866025 A 0.896575 0.896575 0 0 0 0.866025 1.500000"/>
<path d="M 0.866025 1.500000 A 0.517638 0.517638 0 1 1 1.500000 0.866025"/>
<path d="M 1.544636 1.183589 L 1.528644 1.183079" stroke-width="0.024000" stroke="white"/>
<path d="M 1.544636 1.183589 L 1.528644 1.183079" stroke-width="0.008000" stroke="blue"/>
<path d="M 1.533049 1.170960 L 1.517124 1.169407" stroke-width="0.024000" stroke="white"/>
<path d="M 1.533049 1.170960 L 1.517124 1.169407" stroke-width="0.008000" stroke="blue"/>
<path d="M 1.519392 1.187580 L 1.525659 1.172859" stroke-width="0.024000" stroke="white"/>
<path d="M 1.519392 1.187580 L 1.525659 1.172859" stroke-width="0.008000" stroke="blue"/>
<path d="M 1.558356 1.211477 L 1.574244 1.209586" stroke-width="0.024000" stroke="white"/>
<path d="M 1.558356 1.211477 L 1.574244 1.209586" stroke-width="0.008000" stroke="blue"/>
<path d="M 1.551962 1.271640 L 1.541922 1.284098" stroke-width="0.024000" stroke="white"/>
<path d="M 1.551962 1.271640 L 1.541922 1.284098" stroke-width="0.008000" stroke="blue"/>
<path d="M 0.868096 1.492273 L 0.863955 1.507727" stroke-width="0.024000" stroke="white"/>
<path d="M 0.868096 1.492273 L 0.863955 1.507727" stroke-width="0.008000" stroke="blue"/>
<path d="M 1.497929 0.858298 L 1.502071 0.873753" stroke-width="0.024000" stroke="white"/>
<path d="M 1.497929 0.858298 L 1.502071 0.873753" stroke-width="0.008000" stroke="blue"/>
<path d="M 1.527608 1.211388 L 1.534888 1.197140" stroke-width="0.024000" stroke="white"/>
<path d="M 1.527608 1.211388 L 1.534888 1.197140" stroke-width="0.008000" stroke="blue"/>
<path d="M 1.726394 1.273606 L 1.737708 1.262292" stroke-width="0.024000" stroke="white"/>
<path d="M 1.726394 1.273606 L 1.737708 1.262292" stroke-width="0.008000" stroke="blue"/>
</svg>
