<svg xmlns="http://www.w3.org/2000/svg" width="400" height="400" viewBox="0 0 3 3" stroke="blue" stroke-width="0.008000" fill="none">
<path d="M 1.884851 0.860101 A 0.318114 0.318114 0 0 1 1.829965 1.270719"/>
<path d="M 1.829965 1.270719 A 0.764465 0.764465 0 0 1 1.661801 0.959441"/>
<path d="M 1.661801 0.959441 A 0.182691 0.182691 0 0 0 1.777360 0.865789"/>
<path d="M 1.777360 0.865789 A 0.107691 0.107691 0 0 0 1.884851 0.860101"/>
<path d="M 1.639809 0.840233 A 0.617292 0.617292 0 0 0 1.597167 0.670116"/>
<path d="M 1.597167 0.670116 A 0.194162 0.194162 0 0 1 1.858412 0.800391"/>
<path d="M 1.858412 0.800391 A 0.127299 0.127299 0 0 0 1.777360 0.865789"/>
<path d="M 1.777360 0.865789 A 0.247314 0.247314 0 0 0 1.639809 0.840233"/>
<path d="M 1.884851 0.860101 A 0.205764 0.205764 0 0 1 1.858412 0.800391"/>
<path d="M 1.858412 0.800391 A 0.033070 0.033070 0 0 1 1.884851 0.860101"/>
<path d="M 1.500000 0.866025 A 0.896575 0.896575 0 0 1 1.639809 0.840233"/>
<path d="M 1.639809 0.840233 A 0.764465 0.764465 0 0 0 1.661801 0.959441"/>
<path d="M 1.661801 0.959441 A 0.132110 0.132110 0 0 1 1.500000 0.866025"/>
<path d="M 1.829965 1.270719 A 0.563090 0.563090 0 1 1 0.866025 1.500000"/>
<path d="M 0.866025 1.500000 A 1.042298 1.042298 0 0 0 1.829965 1.270719"/>
<path d="M 1.500000 0.866025 A 0.896575 0.896575 0 0 0 0.866025 1.500000"/>
<path d="M 0.866025 1.500000 A 0.617292 0.617292 0 1 1 1.597167 0.670116"/>
<path d="M 1.597167 0.670116 A 0.165403 0.165403 0 0 0 1.500000 0.866025"/>
<path d="M 1.773734 0.872920 L 1.780987 0.858658" stroke-width="0.024000" stroke="white"/>
<path d="M 1.773734 0.872920 L 1.780987 0.858658" stroke-width="0.008000" stroke="blue"/>
<path d="M 1.878143 0.864459 L 1.891560 0.855742" stroke-width="0.024000" stroke="white"/>
<path d="M 1.878143 0.864459 L 1.891560 0.855742" stroke-width="0.008000" stroke="blue"/>
<path d="M 1.856375 0.792655 L 1.860449 0.808127" stroke-width="0.024000" stroke="white"/>
<path d="M 1.856375 0.792655 L 1.860449 0.808127" stroke-width="0.008000" stroke="blue"/>
<path d="M 1.659731 0.951714 L 1.663872 0.967169" stroke-width="0.024000" stroke="white"/>
<path d="M 1.659731 0.951714 L 1.663872 0.967169" stroke-width="0.008000" stroke="blue"/>
<path d="M 1.502071 0.873753 L 1.497929 0.858298" stroke-width="0.024000" stroke="white"/>
<path d="M 1.502071 0.873753 L 1.497929 0.858298" stroke-width="0.008000" stroke="blue"/>
<path d="M 1.600195 0.677521 L 1.594140 0.662712" stroke-width="0.024000" stroke="white"/>
<path d="M 1.600195 0.677521 L 1.594140 0.662712" stroke-width="0.008000" stroke="blue"/>
<path d="M 1.835933 1.265391 L 1.823998 1.276047" stroke-width="0.024000" stroke="white"/>
<path d="M 1.835933 1.265391 L 1.823998 1.276047" stroke-width="0.008000" stroke="blue"/>
<path d="M 0.868096 1.492273 L 0.863955 1.507727" stroke-width="0.024000" stroke="white"/>
<path d="M 0.868096 1.492273 L 0.863955 1.507727" stroke-width="0.008000" stroke="blue"/>
<path d="M 1.631852 0.841056 L 1.647767 0.839410" stroke-width="0.024000" stroke="white"/>
<path d="M 1.631852 0.841056 L 1.647767 0.839410" stroke-width="0.008000" stroke="blue"/>
</svg>
