<svg xmlns="http://www.w3.org/2000/svg" width="400" height="400" viewBox="0 0 3 3" stroke="blue" stroke-width="0.008000" fill="none">
<path d="M 1.606403 1.204693 A 0.235955 0.235955 0 0 0 1.498864 1.283718"/>
<path d="M 1.498864 1.283718 A 0.131916 0.131916 0 0 1 1.578722 1.046814"/>
<path d="M 1.578722 1.046814 A 0.464342 0.464342 0 0 0 1.606403 1.204693"/>
<path d="M 1.924782 0.794037 A 1.013239 1.013239 0 0 1 1.758719 1.108670"/>
<path d="M 1.758719 1.108670 A 0.292734 0.292734 0 0 0 1.578722 1.046814"/>
<path d="M 1.578722 1.046814 A 0.265330 0.265330 0 0 1 1.924782 0.794037"/>
<path d="M 1.606403 1.204693 A 0.104633 0.104633 0 0 1 1.691779 1.211061"/>
<path d="M 1.691779 1.211061 A 0.298656 0.298656 0 0 1 1.650047 1.269892"/>
<path d="M 1.650047 1.269892 A 0.163125 0.163125 0 0 1 1.606403 1.204693"/>
<path d="M 1.766958 1.268301 A 0.848051 0.848051 0 0 0 2.598076 1.500000"/>
<path d="M 2.598076 1.500000 A 0.623917 0.623917 0 1 1 1.498864 1.283718"/>
<path d="M 1.498864 1.283718 A 0.112382 0.112382 0 0 0 1.650047 1.269892"/>
<path d="M 1.650047 1.269892 A 0.085615 0.085615 0 0 0 1.766958 1.268301"/>
<path d="M 1.766958 1.268301 A 0.306402 0.306402 0 0 0 1.691779 1.211061"/>
<path d="M 1.691779 1.211061 A 0.736994 0.736994 0 0 1 1.758719 1.108670"/>
<path d="M 1.758719 1.108670 A 0.105722 0.105722 0 0 1 1.766958 1.268301"/>
<path d="M 2.598076 1.500000 A 1.017576 1.017576 0 0 0 1.924782 0.794037"/>
<path d="M 1.924782 0.794037 A 0.555795 0.555795 0 1 1 2.598076 1.500000"/>
<path d="M 1.570722 1.046815 L 1.586722 1.046813" stroke-width="0.024000" stroke="white"/>
<path d="M 1.570722 1.046815 L 1.586722 1.046813" stroke-width="0.008000" stroke="blue"/>
<path d="M 1.603682 1.197170 L 1.609123 1.212216" stroke-width="0.024000" stroke="white"/>
<path d="M 1.603682 1.197170 L 1.609123 1.212216" stroke-width="0.008000" stroke="blue"/>
<path d="M 1.644664 1.275810 L 1.655429 1.263973" stroke-width="0.024000" stroke="white"/>
<path d="M 1.644664 1.275810 L 1.655429 1.263973" stroke-width="0.008000" stroke="blue"/>
<path d="M 1.761189 1.273843 L 1.772728 1.262759" stroke-width="0.024000" stroke="white"/>
<path d="M 1.761189 1.273843 L 1.772728 1.262759" stroke-width="0.008000" stroke="blue"/>
<path d="M 1.763638 1.102360 L 1.753801 1.114980" stroke-width="0.024000" stroke="white"/>
<path d="M 1.763638 1.102360 L 1.753801 1.114980" stroke-width="0.008000" stroke="blue"/>
<path d="M 1.494020 1.290085 L 1.503707 1.277351" stroke-width="0.024000" stroke="white"/>
<path d="M 1.494020 1.290085 L 1.503707 1.277351" stroke-width="0.008000" stroke="blue"/>
<path d="M 1.698815 1.214868 L 1.684743 1.207254" stroke-width="0.024000" stroke="white"/>
<path d="M 1.698815 1.214868 L 1.684743 1.207254" stroke-width="0.008000" stroke="blue"/>
<path d="M 1.932402 0.796471 L 1.917161 0.791603" stroke-width="0.024000" stroke="white"/>
<path d="M 1.932402 0.796471 L 1.917161 0.791603" stroke-width="0.008000" stroke="blue"/>
<path d="M 2.605804 1.497929 L 2.590349 1.502071" stroke-width="0.024000" stroke="white"/>
<path d="M 2.605804 1.497929 L 2.590349 1.502071" stroke-width="0.008000" stroke="blue"/>
</svg>
