<svg xmlns="http://www.w3.org/2000/svg" width="400" height="400" viewBox="0 0 3 3" stroke="blue" stroke-width="0.008000" fill="none">
<path d="M 1.811081 1.167303 A 0.051725 0.051725 0 0 1 1.839784 1.093058"/>
<path d="M 1.839784 1.093058 A 0.062313 0.062313 0 0 1 1.811081 1.167303"/>
<path d="M 1.823564 0.885524 A 0.207372 0.207372 0 0 1 1.993143 1.054063"/>
<path d="M 1.993143 1.054063 A 1.057016 1.057016 0 0 0 1.839784 1.093058"/>
<path d="M 1.839784 1.093058 A 0.427536 0.427536 0 0 1 1.823564 0.885524"/>
<path d="M 1.795035 1.269095 A 0.065498 0.065498 0 0 1 1.811081 1.167303"/>
<path d="M 1.811081 1.167303 A 0.083455 0.083455 0 0 1 1.795035 1.269095"/>
<path d="M 1.993143 1.054063 A 0.067183 0.067183 0 0 1 2.069007 1.139934"/>
<path d="M 2.069007 1.139934 A 0.109691 0.109691 0 0 1 1.993143 1.054063"/>
<path d="M 1.587208 0.693376 A 0.174969 0.174969 0 0 1 1.823564 0.885524"/>
<path d="M 1.823564 0.885524 A 0.309404 0.309404 0 0 1 1.587208 0.693376"/>
<path d="M 1.795035 1.269095 A 0.232742 0.232742 0 0 0 2.092237 1.305814"/>
<path d="M 2.092237 1.305814 A 0.679485 0.679485 0 1 1 0.866025 1.500000"/>
<path d="M 0.866025 1.500000 A 0.988577 0.988577 0 0 0 1.795035 1.269095"/>
<path d="M 2.092237 1.305814 A 0.197978 0.197978 0 0 1 2.069007 1.139934"/>
<path d="M 2.069007 1.139934 A 0.092427 0.092427 0 0 1 2.092237 1.305814"/>
<path d="M 1.587208 0.693376 A 1.199931 1.199931 0 0 0 0.866025 1.500000"/>
<path d="M 0.866025 1.500000 A 0.606106 0.606106 0 1 1 1.587208 0.693376"/>
<path d="M 1.832200 1.095605 L 1.847368 1.090512" stroke-width="0.024000" stroke="white"/>
<path d="M 1.832200 1.095605 L 1.847368 1.090512" stroke-width="0.008000" stroke="blue"/>
<path d="M 1.818066 1.163404 L 1.804095 1.171202" stroke-width="0.024000" stroke="white"/>
<path d="M 1.818066 1.163404 L 1.804095 1.171202" stroke-width="0.008000" stroke="blue"/>
<path d="M 1.789177 1.274542 L 1.800894 1.263647" stroke-width="0.024000" stroke="white"/>
<path d="M 1.789177 1.274542 L 1.800894 1.263647" stroke-width="0.008000" stroke="blue"/>
<path d="M 2.085527 1.310171 L 2.098947 1.301457" stroke-width="0.024000" stroke="white"/>
<path d="M 2.085527 1.310171 L 2.098947 1.301457" stroke-width="0.008000" stroke="blue"/>
<path d="M 2.071353 1.132285 L 2.066661 1.147582" stroke-width="0.024000" stroke="white"/>
<path d="M 2.071353 1.132285 L 2.066661 1.147582" stroke-width="0.008000" stroke="blue"/>
<path d="M 1.994528 1.061943 L 1.991757 1.046184" stroke-width="0.024000" stroke="white"/>
<path d="M 1.994528 1.061943 L 1.991757 1.046184" stroke-width="0.008000" stroke="blue"/>
<path d="M 1.824901 0.877636 L 1.822227 0.893411" stroke-width="0.024000" stroke="white"/>
<path d="M 1.824901 0.877636 L 1.822227 0.893411" stroke-width="0.008000" stroke="blue"/>
<path d="M 1.590128 0.700824 L 1.584289 0.685927" stroke-width="0.024000" stroke="white"/>
<path d="M 1.590128 0.700824 L 1.584289 0.685927" stroke-width="0.008000" stroke="blue"/>
<path d="M 0.863955 1.507727 L 0.868096 1.492273" stroke-width="0.024000" stroke="white"/>
<path d="M 0.863955 1.507727 L 0.868096 1.492273" stroke-width="0.008000" stroke="blue"/>
</svg>
