<svg xmlns="http://www.w3.org/2000/svg" width="400" height="400" viewBox="0 0 3 3" stroke="blue" stroke-width="0.008000" fill="none">
<path d="M 1.956581 1.226857 A 0.138701 0.138701 0 0 1 1.917160 1.277869"/>
<path d="M 1.917160 1.277869 A 0.090306 0.090306 0 0 1 1.897801 1.210532"/>
<path d="M 1.897801 1.210532 A 0.200841 0.200841 0 0 1 1.956581 1.226857"/>
<path d="M 1.732051 1.267949 A 0.240237 0.240237 0 0 1 1.964102 0.866025"/>
<path d="M 1.964102 0.866025 A 0.517638 0.517638 0 0 0 1.964102 1.133975"/>
<path d="M 1.964102 1.133975 A 0.090306 0.090306 0 0 0 1.897801 1.210532"/>
<path d="M 1.897801 1.210532 A 0.200841 0.200841 0 0 0 1.732051 1.267949"/>
<path d="M 2.039003 1.295365 A 0.200841 0.200841 0 0 0 1.956581 1.226857"/>
<path d="M 1.956581 1.226857 A 0.138701 0.138701 0 0 0 1.964102 1.133975"/>
<path d="M 1.964102 1.133975 A 0.517638 0.517638 0 0 1 2.141321 1.118146"/>
<path d="M 2.141321 1.118146 A 0.240237 0.240237 0 0 1 2.039003 1.295365"/>
<path d="M 1.917160 1.277869 A 0.090306 0.090306 0 0 0 2.039003 1.295365"/>
<path d="M 2.039003 1.295365 A 0.517638 0.517638 0 0 0 2.598076 1.500000"/>
<path d="M 2.598076 1.500000 A 0.517638 0.517638 0 1 1 1.732051 1.267949"/>
<path d="M 1.732051 1.267949 A 0.138701 0.138701 0 0 0 1.917160 1.277869"/>
<path d="M 1.964102 0.866025 A 0.517638 0.517638 0 1 1 2.598076 1.500000"/>
<path d="M 2.598076 1.500000 A 0.517638 0.517638 0 0 0 2.141321 1.118146"/>
<path d="M 2.141321 1.118146 A 0.240237 0.240237 0 0 0 1.964102 0.866025"/>
<path d="M 1.896856 1.218475 L 1.898747 1.202588" stroke-width="0.024000" stroke="white"/>
<path d="M 1.896856 1.218475 L 1.898747 1.202588" stroke-width="0.008000" stroke="blue"/>
<path d="M 1.949288 1.223571 L 1.963875 1.230144" stroke-width="0.024000" stroke="white"/>
<path d="M 1.949288 1.223571 L 1.963875 1.230144" stroke-width="0.008000" stroke="blue"/>
<path d="M 2.032433 1.299930 L 2.045573 1.290800" stroke-width="0.024000" stroke="white"/>
<path d="M 2.032433 1.299930 L 2.045573 1.290800" stroke-width="0.008000" stroke="blue"/>
<path d="M 2.590349 1.502071 L 2.605804 1.497929" stroke-width="0.024000" stroke="white"/>
<path d="M 2.590349 1.502071 L 2.605804 1.497929" stroke-width="0.008000" stroke="blue"/>
<path d="M 1.956374 0.863955 L 1.971829 0.868096" stroke-width="0.024000" stroke="white"/>
<path d="M 1.956374 0.863955 L 1.971829 0.868096" stroke-width="0.008000" stroke="blue"/>
<path d="M 1.962031 1.126247 L 1.966172 1.141702" stroke-width="0.024000" stroke="white"/>
<path d="M 1.962031 1.126247 L 1.966172 1.141702" stroke-width="0.008000" stroke="blue"/>
<path d="M 1.923389 1.272849 L 1.910931 1.282889" stroke-width="0.024000" stroke="white"/>
<path d="M 1.923389 1.272849 L 1.910931 1.282889" stroke-width="0.008000" stroke="blue"/>
<path d="M 1.737708 1.262292 L 1.726394 1.273606" stroke-width="0.024000" stroke="white"/>
<path d="M 1.737708 1.262292 L 1.726394 1.273606" stroke-width="0.008000" stroke="blue"/>
<path d="M 2.133349 1.117478 L 2.149293 1.118814" stroke-width="0.024000" stroke="white"/>
<path d="M 2.133349 1.117478 L 2.149293 1.118814" stroke-width="0.008000" stroke="blue"/>
</svg>
