<svg xmlns="http://www.w3.org/2000/svg" width="400" height="400" viewBox="0 0 3 3" stroke="blue" stroke-width="0.008000" fill="none">
<path d="M 1.463204 1.105267 A 0.133425 0.133425 0 0 1 1.597972 0.951157"/>
<path d="M 1.597972 0.951157 A 0.225970 0.225970 0 0 0 1.620925 1.055517"/>
<path d="M 1.620925 1.055517 A 0.554664 0.554664 0 0 1 1.463204 1.105267"/>
<path d="M 1.702975 1.006153 A 0.133425 0.133425 0 0 1 1.710382 1.151568"/>
<path d="M 1.710382 1.151568 A 0.225970 0.225970 0 0 1 1.620925 1.055517"/>
<path d="M 1.620925 1.055517 A 0.554664 0.554664 0 0 0 1.702975 1.006153"/>
<path d="M 1.463204 1.105267 A 0.264203 0.264203 0 0 1 1.419656 1.296354"/>
<path d="M 1.419656 1.296354 A 0.105519 0.105519 0 0 1 1.463204 1.105267"/>
<path d="M 1.899641 0.743279 A 0.554664 0.554664 0 0 1 1.702975 1.006153"/>
<path d="M 1.702975 1.006153 A 0.133425 0.133425 0 0 0 1.597972 0.951157"/>
<path d="M 1.597972 0.951157 A 0.225970 0.225970 0 0 1 1.899641 0.743279"/>
<path d="M 1.725763 1.267961 A 0.096037 0.096037 0 0 1 1.710382 1.151568"/>
<path d="M 1.710382 1.151568 A 0.074172 0.074172 0 0 1 1.725763 1.267961"/>
<path d="M 1.725763 1.267961 A 0.905495 0.905495 0 0 0 2.598076 1.500000"/>
<path d="M 2.598076 1.500000 A 0.658714 0.658714 0 1 1 1.419656 1.296354"/>
<path d="M 1.419656 1.296354 A 0.239587 0.239587 0 0 0 1.725763 1.267961"/>
<path d="M 1.899641 0.743279 A 0.581569 0.581569 0 1 1 2.598076 1.500000"/>
<path d="M 2.598076 1.500000 A 1.107431 1.107431 0 0 0 1.899641 0.743279"/>
<path d="M 1.617408 1.048332 L 1.624442 1.062702" stroke-width="0.024000" stroke="white"/>
<path d="M 1.617408 1.048332 L 1.624442 1.062702" stroke-width="0.008000" stroke="blue"/>
<path d="M 1.471107 1.104025 L 1.455301 1.106509" stroke-width="0.024000" stroke="white"/>
<path d="M 1.471107 1.104025 L 1.455301 1.106509" stroke-width="0.008000" stroke="blue"/>
<path d="M 1.415113 1.302938 L 1.424200 1.289770" stroke-width="0.024000" stroke="white"/>
<path d="M 1.415113 1.302938 L 1.424200 1.289770" stroke-width="0.008000" stroke="blue"/>
<path d="M 1.720127 1.273638 L 1.731400 1.262283" stroke-width="0.024000" stroke="white"/>
<path d="M 1.720127 1.273638 L 1.731400 1.262283" stroke-width="0.008000" stroke="blue"/>
<path d="M 1.714401 1.144650 L 1.706364 1.158485" stroke-width="0.024000" stroke="white"/>
<path d="M 1.714401 1.144650 L 1.706364 1.158485" stroke-width="0.008000" stroke="blue"/>
<path d="M 1.605970 0.951334 L 1.589974 0.950979" stroke-width="0.024000" stroke="white"/>
<path d="M 1.605970 0.951334 L 1.589974 0.950979" stroke-width="0.008000" stroke="blue"/>
<path d="M 1.892104 0.740597 L 1.907178 0.745961" stroke-width="0.024000" stroke="white"/>
<path d="M 1.892104 0.740597 L 1.907178 0.745961" stroke-width="0.008000" stroke="blue"/>
<path d="M 2.590349 1.502071 L 2.605804 1.497929" stroke-width="0.024000" stroke="white"/>
<path d="M 2.590349 1.502071 L 2.605804 1.497929" stroke-width="0.008000" stroke="blue"/>
<path d="M 1.696501 1.010854 L 1.709448 1.001453" stroke-width="0.024000" stroke="white"/>
<path d="M 1.696501 1.010854 L 1.709448 1.001453" stroke-width="0.008000" stroke="blue"/>
</svg>
