<svg xmlns="http://www.w3.org/2000/svg" width="400" height="400" viewBox="0 0 3 3" stroke="blue" stroke-width="0.008000" fill="none">
<path d="M 1.547470 0.901395 A 0.086495 0.086495 0 0 1 1.498715 0.951604"/>
<path d="M 1.498715 0.951604 A 0.050008 0.050008 0 0 1 1.532146 0.884585"/>
<path d="M 1.532146 0.884585 A 0.024754 0.024754 0 0 0 1.547470 0.901395"/>
<path d="M 1.573470 0.822123 A 0.086495 0.086495 0 0 1 1.554366 0.889451"/>
<path d="M 1.554366 0.889451 A 0.024754 0.024754 0 0 0 1.532146 0.884585"/>
<path d="M 1.532146 0.884585 A 0.050008 0.050008 0 0 1 1.573470 0.822123"/>
<path d="M 1.547470 0.901395 A 0.040908 0.040908 0 0 1 1.554366 0.889451"/>
<path d="M 1.554366 0.889451 A 0.006996 0.006996 0 0 1 1.547470 0.901395"/>
<path d="M 1.466092 1.051184 A 0.068512 0.068512 0 0 1 1.498715 0.951604"/>
<path d="M 1.498715 0.951604 A 0.081314 0.081314 0 0 1 1.466092 1.051184"/>
<path d="M 1.643398 0.744081 A 0.081314 0.081314 0 0 1 1.573470 0.822123"/>
<path d="M 1.573470 0.822123 A 0.068512 0.068512 0 0 1 1.643398 0.744081"/>
<path d="M 1.466092 1.051184 A 0.214589 0.214589 0 0 1 1.457478 1.289851"/>
<path d="M 1.457478 1.289851 A 0.143718 0.143718 0 0 1 1.466092 1.051184"/>
<path d="M 1.643398 0.744081 A 0.143718 0.143718 0 0 1 1.845783 0.617287"/>
<path d="M 1.845783 0.617287 A 0.214589 0.214589 0 0 1 1.643398 0.744081"/>
<path d="M 2.598076 1.500000 A 0.642162 0.642162 0 1 1 1.457478 1.289851"/>
<path d="M 1.457478 1.289851 A 1.349995 1.349995 0 0 0 2.598076 1.500000"/>
<path d="M 2.598076 1.500000 A 1.349995 1.349995 0 0 0 1.845783 0.617287"/>
<path d="M 1.845783 0.617287 A 0.642162 0.642162 0 1 1 2.598076 1.500000"/>
<path d="M 1.524419 0.886655 L 1.539873 0.882514" stroke-width="0.024000" stroke="white"/>
<path d="M 1.524419 0.886655 L 1.539873 0.882514" stroke-width="0.008000" stroke="blue"/>
<path d="M 1.539967 0.898620 L 1.554974 0.904170" stroke-width="0.024000" stroke="white"/>
<path d="M 1.539967 0.898620 L 1.554974 0.904170" stroke-width="0.008000" stroke="blue"/>
<path d="M 1.559477 0.883296 L 1.549256 0.895606" stroke-width="0.024000" stroke="white"/>
<path d="M 1.559477 0.883296 L 1.549256 0.895606" stroke-width="0.008000" stroke="blue"/>
<path d="M 1.491296 0.954598 L 1.506134 0.948610" stroke-width="0.024000" stroke="white"/>
<path d="M 1.491296 0.954598 L 1.506134 0.948610" stroke-width="0.008000" stroke="blue"/>
<path d="M 1.472895 1.046975 L 1.459289 1.055393" stroke-width="0.024000" stroke="white"/>
<path d="M 1.472895 1.046975 L 1.459289 1.055393" stroke-width="0.008000" stroke="blue"/>
<path d="M 1.452789 1.296333 L 1.462166 1.283369" stroke-width="0.024000" stroke="white"/>
<path d="M 1.452789 1.296333 L 1.462166 1.283369" stroke-width="0.008000" stroke="blue"/>
<path d="M 2.590349 1.502071 L 2.605804 1.497929" stroke-width="0.024000" stroke="white"/>
<path d="M 2.590349 1.502071 L 2.605804 1.497929" stroke-width="0.008000" stroke="blue"/>
<path d="M 1.838481 0.614018 L 1.853084 0.620557" stroke-width="0.024000" stroke="white"/>
<path d="M 1.838481 0.614018 L 1.853084 0.620557" stroke-width="0.008000" stroke="blue"/>
<path d="M 1.651394 0.744324 L 1.635401 0.743837" stroke-width="0.024000" stroke="white"/>
<path d="M 1.651394 0.744324 L 1.635401 0.743837" stroke-width="0.008000" stroke="blue"/>
<path d="M 1.565549 0.823240 L 1.581392 0.821007" stroke-width="0.024000" stroke="white"/>
<path d="M 1.565549 0.823240 L 1.581392 0.821007" stroke-width="0.008000" stroke="blue"/>
</svg>
