<svg xmlns="http://www.w3.org/2000/svg" width="400" height="400" viewBox="0 0 3 3" stroke="blue" stroke-width="0.008000" fill="none">
<path d="M 1.567582 0.850690 A 0.072377 0.072377 0 0 1 1.520510 0.932221"/>
<path d="M 1.520510 0.932221 A 0.061969 0.061969 0 0 1 1.567582 0.850690"/>
<path d="M 1.532742 1.029870 A 0.087671 0.087671 0 0 0 1.480520 1.041564"/>
<path d="M 1.480520 1.041564 A 0.075463 0.075463 0 0 1 1.520510 0.932221"/>
<path d="M 1.520510 0.932221 A 0.231174 0.231174 0 0 1 1.532742 1.029870"/>
<path d="M 1.642280 0.761386 A 0.091482 0.091482 0 0 1 1.567582 0.850690"/>
<path d="M 1.567582 0.850690 A 0.075463 0.075463 0 0 1 1.642280 0.761386"/>
<path d="M 1.467945 1.288203 A 0.147755 0.147755 0 0 1 1.480520 1.041564"/>
<path d="M 1.480520 1.041564 A 0.055897 0.055897 0 0 0 1.532194 1.069075"/>
<path d="M 1.532194 1.069075 A 0.335635 0.335635 0 0 1 1.467945 1.288203"/>
<path d="M 1.539727 1.048574 A 0.023082 0.023082 0 0 1 1.532742 1.029870"/>
<path d="M 1.532742 1.029870 A 0.011072 0.011072 0 0 1 1.539727 1.048574"/>
<path d="M 1.642280 0.761386 A 0.147755 0.147755 0 0 1 1.849589 0.627176"/>
<path d="M 1.849589 0.627176 A 0.224846 0.224846 0 0 1 1.642280 0.761386"/>
<path d="M 1.539727 1.048574 A 0.011928 0.011928 0 0 1 1.532194 1.069075"/>
<path d="M 1.532194 1.069075 A 0.027145 0.027145 0 0 1 1.539727 1.048574"/>
<path d="M 2.598076 1.500000 A 0.637561 0.637561 0 1 1 1.467945 1.288203"/>
<path d="M 1.467945 1.288203 A 1.329823 1.329823 0 0 0 2.598076 1.500000"/>
<path d="M 2.598076 1.500000 A 1.329823 1.329823 0 0 0 1.849589 0.627176"/>
<path d="M 1.849589 0.627176 A 0.637561 0.637561 0 1 1 2.598076 1.500000"/>
<path d="M 1.528054 0.929560 L 1.512965 0.934882" stroke-width="0.024000" stroke="white"/>
<path d="M 1.528054 0.929560 L 1.512965 0.934882" stroke-width="0.008000" stroke="blue"/>
<path d="M 1.559718 0.852157 L 1.575446 0.849222" stroke-width="0.024000" stroke="white"/>
<path d="M 1.559718 0.852157 L 1.575446 0.849222" stroke-width="0.008000" stroke="blue"/>
<path d="M 1.650280 0.761440 L 1.634281 0.761331" stroke-width="0.024000" stroke="white"/>
<path d="M 1.650280 0.761440 L 1.634281 0.761331" stroke-width="0.008000" stroke="blue"/>
<path d="M 1.842268 0.623951 L 1.856910 0.630400" stroke-width="0.024000" stroke="white"/>
<path d="M 1.842268 0.623951 L 1.856910 0.630400" stroke-width="0.008000" stroke="blue"/>
<path d="M 2.590349 1.502071 L 2.605804 1.497929" stroke-width="0.024000" stroke="white"/>
<path d="M 2.590349 1.502071 L 2.605804 1.497929" stroke-width="0.008000" stroke="blue"/>
<path d="M 1.463217 1.294657 L 1.472673 1.281750" stroke-width="0.024000" stroke="white"/>
<path d="M 1.463217 1.294657 L 1.472673 1.281750" stroke-width="0.008000" stroke="blue"/>
<path d="M 1.540178 1.068580 L 1.524209 1.069570" stroke-width="0.024000" stroke="white"/>
<path d="M 1.540178 1.068580 L 1.524209 1.069570" stroke-width="0.008000" stroke="blue"/>
<path d="M 1.534180 1.054339 L 1.545274 1.042810" stroke-width="0.024000" stroke="white"/>
<path d="M 1.534180 1.054339 L 1.545274 1.042810" stroke-width="0.008000" stroke="blue"/>
<path d="M 1.533460 1.021902 L 1.532024 1.037838" stroke-width="0.024000" stroke="white"/>
<path d="M 1.533460 1.021902 L 1.532024 1.037838" stroke-width="0.008000" stroke="blue"/>
<path d="M 1.487420 1.037516 L 1.473619 1.045611" stroke-width="0.024000" stroke="white"/>
<path d="M 1.487420 1.037516 L 1.473619 1.045611" stroke-width="0.008000" stroke="blue"/>
</svg>
