<svg xmlns="http://www.w3.org/2000/svg" width="400" height="400" viewBox="0 0 3 3" stroke="blue" stroke-width="0.008000" fill="none">
<path d="M 1.500000 0.866025 A 0.240237 0.240237 0 0 1 1.732051 1.267949"/>
<path d="M 1.732051 1.267949 A 0.244705 0.244705 0 0 0 1.549830 1.196449"/>
<path d="M 1.549830 1.196449 A 1.493301 1.493301 0 0 0 1.500000 0.866025"/>
<path d="M 1.527403 1.234011 A 0.026079 0.026079 0 0 1 1.549830 1.196449"/>
<path d="M 1.549830 1.196449 A 0.040170 0.040170 0 0 1 1.527403 1.234011"/>
<path d="M 1.522547 1.280666 A 0.158296 0.158296 0 0 0 1.732051 1.267949"/>
<path d="M 1.732051 1.267949 A 0.517638 0.517638 0 1 1 0.866025 1.500000"/>
<path d="M 0.866025 1.500000 A 0.627491 0.627491 0 0 0 1.522547 1.280666"/>
<path d="M 1.500000 0.866025 A 0.896575 0.896575 0 0 0 0.866025 1.500000"/>
<path d="M 0.866025 1.500000 A 0.517638 0.517638 0 1 1 1.500000 0.866025"/>
<path d="M 1.522547 1.280666 A 0.027690 0.027690 0 0 1 1.527403 1.234011"/>
<path d="M 1.527403 1.234011 A 0.044124 0.044124 0 0 1 1.522547 1.280666"/>
<path d="M 1.557824 1.196149 L 1.541836 1.196750" stroke-width="0.024000" stroke="white"/>
<path d="M 1.557824 1.196149 L 1.541836 1.196750" stroke-width="0.008000" stroke="blue"/>
<path d="M 1.502071 0.873753 L 1.497929 0.858298" stroke-width="0.024000" stroke="white"/>
<path d="M 1.502071 0.873753 L 1.497929 0.858298" stroke-width="0.008000" stroke="blue"/>
<path d="M 0.863955 1.507727 L 0.868096 1.492273" stroke-width="0.024000" stroke="white"/>
<path d="M 0.863955 1.507727 L 0.868096 1.492273" stroke-width="0.008000" stroke="blue"/>
<path d="M 1.517616 1.286966 L 1.527478 1.274367" stroke-width="0.024000" stroke="white"/>
<path d="M 1.517616 1.286966 L 1.527478 1.274367" stroke-width="0.008000" stroke="blue"/>
<path d="M 1.534583 1.230483 L 1.520223 1.237539" stroke-width="0.024000" stroke="white"/>
<path d="M 1.534583 1.230483 L 1.520223 1.237539" stroke-width="0.008000" stroke="blue"/>
<path d="M 1.726394 1.273606 L 1.737708 1.262292" stroke-width="0.024000" stroke="white"/>
<path d="M 1.726394 1.273606 L 1.737708 1.262292" stroke-width="0.008000" stroke="blue"/>
</svg>
