<svg xmlns="http://www.w3.org/2000/svg" width="400" height="400" viewBox="0 0 3 3" stroke="blue" stroke-width="0.008000" fill="none">
<path d="M 1.960674 0.893907 A 0.141667 0.141667 0 0 1 1.959952 1.026316"/>
<path d="M 1.959952 1.026316 A 0.110770 0.110770 0 0 1 1.905256 0.900000"/>
<path d="M 1.905256 0.900000 A 0.076829 0.076829 0 0 0 1.960674 0.893907"/>
<path d="M 1.823211 0.789474 A 0.141667 0.141667 0 0 1 1.938242 0.855053"/>
<path d="M 1.938242 0.855053 A 0.076829 0.076829 0 0 0 1.905256 0.900000"/>
<path d="M 1.905256 0.900000 A 0.110770 0.110770 0 0 1 1.823211 0.789474"/>
<path d="M 1.960674 0.893907 A 0.020368 0.020368 0 0 1 1.960560 0.875288"/>
<path d="M 1.960560 0.875288 A 0.010467 0.010467 0 0 1 1.960674 0.893907"/>
<path d="M 1.979487 1.285714 A 0.242206 0.242206 0 0 1 1.959952 1.026316"/>
<path d="M 1.959952 1.026316 A 0.154184 0.154184 0 0 1 1.979487 1.285714"/>
<path d="M 1.954309 0.864461 A 0.020368 0.020368 0 0 1 1.938242 0.855053"/>
<path d="M 1.938242 0.855053 A 0.010467 0.010467 0 0 1 1.954309 0.864461"/>
<path d="M 1.608333 0.642857 A 0.154184 0.154184 0 0 1 1.823211 0.789474"/>
<path d="M 1.823211 0.789474 A 0.242206 0.242206 0 0 1 1.608333 0.642857"/>
<path d="M 1.954309 0.864461 A 0.007467 0.007467 0 0 1 1.960560 0.875288"/>
<path d="M 1.960560 0.875288 A 0.011431 0.011431 0 0 1 1.954309 0.864461"/>
<path d="M 1.979487 1.285714 A 0.630215 0.630215 0 1 1 0.866025 1.500000"/>
<path d="M 0.866025 1.500000 A 1.298258 1.298258 0 0 0 1.979487 1.285714"/>
<path d="M 1.608333 0.642857 A 1.298258 1.298258 0 0 0 0.866025 1.500000"/>
<path d="M 0.866025 1.500000 A 0.630215 0.630215 0 1 1 1.608333 0.642857"/>
<path d="M 1.903185 0.907727 L 1.907326 0.892273" stroke-width="0.024000" stroke="white"/>
<path d="M 1.903185 0.907727 L 1.907326 0.892273" stroke-width="0.008000" stroke="blue"/>
<path d="M 1.953581 0.897607 L 1.967767 0.890207" stroke-width="0.024000" stroke="white"/>
<path d="M 1.953581 0.897607 L 1.967767 0.890207" stroke-width="0.008000" stroke="blue"/>
<path d="M 1.964173 0.868151 L 1.956947 0.882426" stroke-width="0.024000" stroke="white"/>
<path d="M 1.964173 0.868151 L 1.956947 0.882426" stroke-width="0.008000" stroke="blue"/>
<path d="M 1.953869 0.872449 L 1.954749 0.856473" stroke-width="0.024000" stroke="white"/>
<path d="M 1.953869 0.872449 L 1.954749 0.856473" stroke-width="0.008000" stroke="blue"/>
<path d="M 1.933949 0.848302 L 1.942535 0.861804" stroke-width="0.024000" stroke="white"/>
<path d="M 1.933949 0.848302 L 1.942535 0.861804" stroke-width="0.008000" stroke="blue"/>
<path d="M 1.956175 1.033368 L 1.963729 1.019264" stroke-width="0.024000" stroke="white"/>
<path d="M 1.956175 1.033368 L 1.963729 1.019264" stroke-width="0.008000" stroke="blue"/>
<path d="M 1.985894 1.280924 L 1.973080 1.290505" stroke-width="0.024000" stroke="white"/>
<path d="M 1.985894 1.280924 L 1.973080 1.290505" stroke-width="0.008000" stroke="blue"/>
<path d="M 0.868096 1.492273 L 0.863955 1.507727" stroke-width="0.024000" stroke="white"/>
<path d="M 0.868096 1.492273 L 0.863955 1.507727" stroke-width="0.008000" stroke="blue"/>
<path d="M 1.605180 0.635505 L 1.611486 0.650209" stroke-width="0.024000" stroke="white"/>
<path d="M 1.605180 0.635505 L 1.611486 0.650209" stroke-width="0.008000" stroke="blue"/>
<path d="M 1.822956 0.797470 L 1.823466 0.781478" stroke-width="0.024000" stroke="white"/>
<path d="M 1.822956 0.797470 L 1.823466 0.781478" stroke-width="0.008000" stroke="blue"/>
</svg>
