<svg xmlns="http://www.w3.org/2000/svg" width="400" height="400" viewBox="0 0 3 3" stroke="blue" stroke-width="0.008000" fill="none">
<path d="M 1.591857 0.945060 A 0.236528 0.236528 0 0 1 1.504149 1.026316"/>
<path d="M 1.504149 1.026316 A 0.087837 0.087837 0 0 1 1.558846 0.900000"/>
<path d="M 1.558846 0.900000 A 0.043160 0.043160 0 0 0 1.586479 0.929636"/>
<path d="M 1.586479 0.929636 A 0.013198 0.013198 0 0 0 1.591857 0.945060"/>
<path d="M 1.598328 0.909113 A 0.018865 0.018865 0 0 1 1.598286 0.937627"/>
<path d="M 1.598286 0.937627 A 0.027393 0.027393 0 0 0 1.586479 0.929636"/>
<path d="M 1.586479 0.929636 A 0.062137 0.062137 0 0 1 1.598328 0.909113"/>
<path d="M 1.591857 0.945060 A 0.033979 0.033979 0 0 1 1.598286 0.937627"/>
<path d="M 1.598286 0.937627 A 0.004966 0.004966 0 0 1 1.591857 0.945060"/>
<path d="M 1.640890 0.789474 A 0.173934 0.173934 0 0 1 1.598328 0.909113"/>
<path d="M 1.598328 0.909113 A 0.043160 0.043160 0 0 0 1.558846 0.900000"/>
<path d="M 1.558846 0.900000 A 0.087837 0.087837 0 0 1 1.640890 0.789474"/>
<path d="M 1.504149 1.026316 A 0.242206 0.242206 0 0 1 1.484615 1.285714"/>
<path d="M 1.484615 1.285714 A 0.154184 0.154184 0 0 1 1.504149 1.026316"/>
<path d="M 1.640890 0.789474 A 0.154184 0.154184 0 0 1 1.855769 0.642857"/>
<path d="M 1.855769 0.642857 A 0.242206 0.242206 0 0 1 1.640890 0.789474"/>
<path d="M 2.598076 1.500000 A 0.630215 0.630215 0 1 1 1.484615 1.285714"/>
<path d="M 1.484615 1.285714 A 1.298258 1.298258 0 0 0 2.598076 1.500000"/>
<path d="M 2.598076 1.500000 A 1.298258 1.298258 0 0 0 1.855769 0.642857"/>
<path d="M 1.855769 0.642857 A 0.630215 0.630215 0 1 1 2.598076 1.500000"/>
<path d="M 1.578915 0.927031 L 1.594042 0.932241" stroke-width="0.024000" stroke="white"/>
<path d="M 1.578915 0.927031 L 1.594042 0.932241" stroke-width="0.008000" stroke="blue"/>
<path d="M 1.585113 0.940756 L 1.598600 0.949363" stroke-width="0.024000" stroke="white"/>
<path d="M 1.585113 0.940756 L 1.598600 0.949363" stroke-width="0.008000" stroke="blue"/>
<path d="M 1.604339 0.932397 L 1.592232 0.942857" stroke-width="0.024000" stroke="white"/>
<path d="M 1.604339 0.932397 L 1.592232 0.942857" stroke-width="0.008000" stroke="blue"/>
<path d="M 1.566573 0.897929 L 1.551118 0.902071" stroke-width="0.024000" stroke="white"/>
<path d="M 1.566573 0.897929 L 1.551118 0.902071" stroke-width="0.008000" stroke="blue"/>
<path d="M 1.632894 0.789729 L 1.648886 0.789219" stroke-width="0.024000" stroke="white"/>
<path d="M 1.632894 0.789729 L 1.648886 0.789219" stroke-width="0.008000" stroke="blue"/>
<path d="M 1.863121 0.646010 L 1.848416 0.639704" stroke-width="0.024000" stroke="white"/>
<path d="M 1.863121 0.646010 L 1.848416 0.639704" stroke-width="0.008000" stroke="blue"/>
<path d="M 2.605804 1.497929 L 2.590349 1.502071" stroke-width="0.024000" stroke="white"/>
<path d="M 2.605804 1.497929 L 2.590349 1.502071" stroke-width="0.008000" stroke="blue"/>
<path d="M 1.489406 1.279307 L 1.479824 1.292121" stroke-width="0.024000" stroke="white"/>
<path d="M 1.489406 1.279307 L 1.479824 1.292121" stroke-width="0.008000" stroke="blue"/>
<path d="M 1.497097 1.030093 L 1.511202 1.022539" stroke-width="0.024000" stroke="white"/>
<path d="M 1.497097 1.030093 L 1.511202 1.022539" stroke-width="0.008000" stroke="blue"/>
<path d="M 1.603575 0.903074 L 1.593080 0.915151" stroke-width="0.024000" stroke="white"/>
<path d="M 1.603575 0.903074 L 1.593080 0.915151" stroke-width="0.008000" stroke="blue"/>
</svg>
