<svg xmlns="http://www.w3.org/2000/svg" width="400" height="400" viewBox="0 0 3 3" stroke="blue" stroke-width="0.008000" fill="none">
<path d="M 1.639809 0.840233 A 0.565616 0.565616 0 0 1 1.635599 0.988461"/>
<path d="M 1.635599 0.988461 A 0.024174 0.024174 0 0 0 1.610162 1.001448"/>
<path d="M 1.610162 1.001448 A 0.072931 0.072931 0 0 0 1.547568 1.000000"/>
<path d="M 1.547568 1.000000 A 0.113880 0.113880 0 0 1 1.639809 0.840233"/>
<path d="M 1.601479 1.035958 A 0.419318 0.419318 0 0 1 1.513805 1.281754"/>
<path d="M 1.513805 1.281754 A 0.165403 0.165403 0 0 1 1.547568 1.000000"/>
<path d="M 1.547568 1.000000 A 0.060801 0.060801 0 0 0 1.601479 1.035958"/>
<path d="M 1.639809 0.840233 A 0.165403 0.165403 0 0 1 1.866934 0.670116"/>
<path d="M 1.866934 0.670116 A 0.276062 0.276062 0 0 1 1.639809 0.840233"/>
<path d="M 1.633050 1.008093 A 0.030911 0.030911 0 0 1 1.601479 1.035958"/>
<path d="M 1.601479 1.035958 A 0.081424 0.081424 0 0 1 1.610162 1.001448"/>
<path d="M 1.610162 1.001448 A 0.065049 0.065049 0 0 0 1.633050 1.008093"/>
<path d="M 1.635599 0.988461 A 0.006227 0.006227 0 0 1 1.638045 0.999801"/>
<path d="M 1.638045 0.999801 A 0.015944 0.015944 0 0 1 1.635599 0.988461"/>
<path d="M 2.598076 1.500000 A 0.617292 0.617292 0 1 1 1.513805 1.281754"/>
<path d="M 1.513805 1.281754 A 1.244584 1.244584 0 0 0 2.598076 1.500000"/>
<path d="M 2.598076 1.500000 A 1.244584 1.244584 0 0 0 1.866934 0.670116"/>
<path d="M 1.866934 0.670116 A 0.617292 0.617292 0 1 1 2.598076 1.500000"/>
<path d="M 1.633050 1.008093 A 0.011272 0.011272 0 0 1 1.638045 0.999801"/>
<path d="M 1.638045 0.999801 A 0.005360 0.005360 0 0 1 1.633050 1.008093"/>
<path d="M 1.554871 0.996734 L 1.540265 1.003266" stroke-width="0.024000" stroke="white"/>
<path d="M 1.554871 0.996734 L 1.540265 1.003266" stroke-width="0.008000" stroke="blue"/>
<path d="M 1.631852 0.841056 L 1.647767 0.839410" stroke-width="0.024000" stroke="white"/>
<path d="M 1.631852 0.841056 L 1.647767 0.839410" stroke-width="0.008000" stroke="blue"/>
<path d="M 1.874339 0.673144 L 1.859529 0.667089" stroke-width="0.024000" stroke="white"/>
<path d="M 1.874339 0.673144 L 1.859529 0.667089" stroke-width="0.008000" stroke="blue"/>
<path d="M 2.605804 1.497929 L 2.590349 1.502071" stroke-width="0.024000" stroke="white"/>
<path d="M 2.605804 1.497929 L 2.590349 1.502071" stroke-width="0.008000" stroke="blue"/>
<path d="M 1.518704 1.275430 L 1.508906 1.288079" stroke-width="0.024000" stroke="white"/>
<path d="M 1.518704 1.275430 L 1.508906 1.288079" stroke-width="0.008000" stroke="blue"/>
<path d="M 1.606562 1.008592 L 1.613762 0.994304" stroke-width="0.024000" stroke="white"/>
<path d="M 1.606562 1.008592 L 1.613762 0.994304" stroke-width="0.008000" stroke="blue"/>
<path d="M 1.625089 1.007308 L 1.641011 1.008879" stroke-width="0.024000" stroke="white"/>
<path d="M 1.625089 1.007308 L 1.641011 1.008879" stroke-width="0.008000" stroke="blue"/>
<path d="M 1.644715 0.995384 L 1.631374 1.004217" stroke-width="0.024000" stroke="white"/>
<path d="M 1.644715 0.995384 L 1.631374 1.004217" stroke-width="0.008000" stroke="blue"/>
<path d="M 1.634325 0.996359 L 1.636872 0.980563" stroke-width="0.024000" stroke="white"/>
<path d="M 1.634325 0.996359 L 1.636872 0.980563" stroke-width="0.008000" stroke="blue"/>
<path d="M 1.609476 1.036168 L 1.593482 1.035749" stroke-width="0.024000" stroke="white"/>
<path d="M 1.609476 1.036168 L 1.593482 1.035749" stroke-width="0.008000" stroke="blue"/>
</svg>
