<?xml version="1.0" encoding="UTF-8" standalone="no"?>
<svg
   width="397.83261"
   height="304.63541"
   viewBox="0 0 2.9837446 2.2847656"
   stroke="#0000ff"
   stroke-width="0.008"
   fill="none"
   version="1.1"
   id="svg12"
   sodipodi:docname="noeud_premier.svg"
   inkscape:version="1.4.4 (dcaf3e7, 2026-05-05)"
   xmlns:inkscape="http://www.inkscape.org/namespaces/inkscape"
   xmlns:sodipodi="http://sodipodi.sourceforge.net/DTD/sodipodi-0.dtd"
   xmlns="http://www.w3.org/2000/svg"
   xmlns:svg="http://www.w3.org/2000/svg">
  <defs
     id="defs12">
    <inkscape:path-effect
       effect="powerstroke"
       message=""
       id="path-effect29"
       is_visible="true"
       lpeversion="1.3"
       scale_width="1"
       interpolator_type="CubicBezierJohan"
       interpolator_beta="0.2"
       start_linecap_type="zerowidth"
       end_linecap_type="zerowidth"
       offset_points="1,0.01"
       linejoin_type="extrp_arc"
       miter_limit="4"
       not_jump="false"
       sort_points="true" />
    <inkscape:path-effect
       effect="powerstroke"
       message=""
       id="path-effect29-4"
       is_visible="true"
       lpeversion="1.3"
       scale_width="1"
       interpolator_type="CubicBezierJohan"
       interpolator_beta="0.2"
       start_linecap_type="zerowidth"
       end_linecap_type="zerowidth"
       offset_points="0.99893187,0.0049712643"
       linejoin_type="extrp_arc"
       miter_limit="4"
       not_jump="false"
       sort_points="true" />
    <inkscape:path-effect
       effect="powerstroke"
       message=""
       id="path-effect29-4-3"
       is_visible="true"
       lpeversion="1.3"
       scale_width="1"
       interpolator_type="CubicBezierJohan"
       interpolator_beta="0.2"
       start_linecap_type="zerowidth"
       end_linecap_type="zerowidth"
       offset_points="0.99893187,0.0049712643"
       linejoin_type="extrp_arc"
       miter_limit="4"
       not_jump="false"
       sort_points="true" />
    <inkscape:path-effect
       effect="powerstroke"
       message=""
       id="path-effect29-4-4"
       is_visible="true"
       lpeversion="1.3"
       scale_width="1"
       interpolator_type="CubicBezierJohan"
       interpolator_beta="0.2"
       start_linecap_type="zerowidth"
       end_linecap_type="zerowidth"
       offset_points="0.99893187,0.0049712643"
       linejoin_type="extrp_arc"
       miter_limit="4"
       not_jump="false"
       sort_points="true" />
    <inkscape:path-effect
       effect="powerstroke"
       message=""
       id="path-effect29-4-3-2"
       is_visible="true"
       lpeversion="1.3"
       scale_width="1"
       interpolator_type="CubicBezierJohan"
       interpolator_beta="0.2"
       start_linecap_type="zerowidth"
       end_linecap_type="zerowidth"
       offset_points="0.99893187,0.0049712643"
       linejoin_type="extrp_arc"
       miter_limit="4"
       not_jump="false"
       sort_points="true" />
  </defs>
  <sodipodi:namedview
     id="namedview12"
     pagecolor="#ffffff"
     bordercolor="#666666"
     borderopacity="1.0"
     inkscape:showpageshadow="2"
     inkscape:pageopacity="0.0"
     inkscape:pagecheckerboard="0"
     inkscape:deskcolor="#d1d1d1"
     inkscape:zoom="1.3841615"
     inkscape:cx="314.63091"
     inkscape:cy="202.64976"
     inkscape:window-width="1920"
     inkscape:window-height="1001"
     inkscape:window-x="-9"
     inkscape:window-y="-9"
     inkscape:window-maximized="1"
     inkscape:current-layer="svg12" />
  <g
     id="g36"
     transform="matrix(0.98316699,0.60258997,-0.60258997,0.98316699,1.0494686,-1.1440622)">
    <g
       id="g34"
       transform="translate(0,0.52366435)">
      <path
         d="M 0.46218173,1.0615461 A 0.40609953,0.40609953 0 0 1 0.46121243,0.85133547"
         id="path1"
         style="stroke-width:0.00362356" />
      <path
         d="m 0.46121193,0.85133547 a 0.10881425,0.10881425 0 0 1 9.693e-4,0.21021063"
         id="path2"
         style="stroke-width:0.00362356" />
      <path
         d="M 0.06943889,0.95825025 A 0.23446175,0.23446175 0 1 1 0.46121193,0.85133547"
         id="path3"
         style="stroke-width:0.00362356" />
      <path
         d="M 0.46121193,0.85133547 A 0.40609953,0.40609953 0 0 0 0.06943889,0.95825025"
         id="path4"
         style="stroke-width:0.00362356" />
      <path
         d="M 0.46218173,1.0615461 A 0.23446175,0.23446175 0 1 1 0.06943889,0.95825025"
         id="path5"
         style="stroke-width:0.00362356" />
      <path
         d="M 0.06943889,0.95825025 A 0.40609953,0.40609953 0 0 0 0.46218173,1.0615461"
         id="path6"
         style="stroke-width:0.00362356" />
      <path
         d="m 0.46029023,0.85483996 0.001843,-0.007009"
         stroke-width="0.0108707"
         stroke="#ffffff"
         id="path7" />
      <path
         d="m 0.46029023,0.85483996 0.001843,-0.007009"
         stroke-width="0.00362356"
         stroke="#0000ff"
         id="path8" />
      <path
         d="m 0.46567756,1.0605917 -0.006992,0.00191"
         stroke-width="0.0108707"
         stroke="#ffffff"
         id="path9" />
      <path
         d="m 0.46567756,1.0605917 -0.006992,0.00191"
         stroke-width="0.00362356"
         stroke="#0000ff"
         id="path10" />
      <path
         d="m 0.07198906,0.95567616 -0.0051006,0.005149"
         stroke-width="0.0108707"
         stroke="#ffffff"
         id="path11" />
      <path
         d="m 0.07198906,0.95567616 -0.0051006,0.005149"
         stroke-width="0.00362356"
         stroke="#0000ff"
         id="path12" />
      <path
         d="M 0.46218173,1.0615461 A 0.40609953,0.40609953 0 0 1 0.46121243,0.85133547"
         id="path13"
         style="stroke-width:0.00362356" />
      <path
         d="m 0.46121193,0.85133547 a 0.10881425,0.10881425 0 0 1 9.693e-4,0.21021063"
         id="path14"
         style="stroke-width:0.00362356" />
      <path
         d="M 0.06943889,0.95825025 A 0.23446175,0.23446175 0 1 1 0.46121193,0.85133547"
         id="path15"
         style="stroke-width:0.00362356" />
      <path
         d="M 0.46121193,0.85133547 A 0.40609953,0.40609953 0 0 0 0.06943889,0.95825025"
         id="path16"
         style="stroke-width:0.00362356" />
      <path
         d="M 0.46218173,1.0615461 A 0.23446175,0.23446175 0 1 1 0.06943889,0.95825025"
         id="path17"
         style="stroke-width:0.00362356" />
      <path
         d="M 0.06943889,0.95825025 A 0.40609953,0.40609953 0 0 0 0.46218173,1.0615461"
         id="path18"
         style="stroke-width:0.00362356" />
      <path
         d="m 0.46029023,0.85483996 0.001843,-0.007009"
         stroke-width="0.0108707"
         stroke="#ffffff"
         id="path19" />
      <path
         d="m 0.46029023,0.85483996 0.001843,-0.007009"
         stroke-width="0.00362356"
         stroke="#0000ff"
         id="path20" />
      <path
         d="m 0.46567756,1.0605917 -0.006992,0.00191"
         stroke-width="0.0108707"
         stroke="#ffffff"
         id="path21" />
      <path
         d="m 0.46567756,1.0605917 -0.006992,0.00191"
         stroke-width="0.00362356"
         stroke="#0000ff"
         id="path22" />
      <path
         d="m 0.07198906,0.95567616 -0.0051006,0.005149"
         stroke-width="0.0108707"
         stroke="#ffffff"
         id="path23" />
      <path
         d="m 0.07198906,0.95567616 -0.0051006,0.005149"
         stroke-width="0.00362356"
         stroke="#0000ff"
         id="path24" />
      <path
         d="m 0.62613728,0.85133117 a 0.40609953,0.40609953 0 0 1 9.693e-4,0.21021063"
         id="path1-2"
         style="fill:#ffffff;stroke-width:0.00362356" />
      <path
         d="M 0.62710708,1.0615418 A 0.10881425,0.10881425 0 0 1 0.62613777,0.85133117"
         id="path2-7"
         style="fill:#ffffff;stroke-width:0.00362356" />
      <path
         d="M 1.0188801,0.954627 A 0.23446175,0.23446175 0 1 1 0.62710708,1.0615418"
         id="path3-6"
         style="fill:#ffffff;stroke-width:0.00362356" />
      <path
         d="M 0.62710708,1.0615418 A 0.40609953,0.40609953 0 0 0 1.0188801,0.954627"
         id="path4-1"
         style="fill:#ffffff;stroke-width:0.00362356" />
      <path
         d="M 0.62613728,0.85133117 A 0.23446175,0.23446175 0 1 1 1.0188801,0.954627"
         id="path5-4"
         style="fill:#ffffff;stroke-width:0.00362356" />
      <path
         d="M 1.0188801,0.954627 A 0.40609953,0.40609953 0 0 0 0.62613728,0.85133117"
         id="path6-2"
         style="fill:#ffffff;stroke-width:0.00362356" />
      <path
         d="m 0.62802878,1.0580373 -0.001843,0.00701"
         stroke-width="0.0108707"
         stroke="#ffffff"
         id="path7-3"
         style="fill:#ffffff" />
      <path
         d="m 0.62802878,1.0580373 -0.001843,0.00701"
         stroke-width="0.00362356"
         stroke="#0000ff"
         id="path8-2"
         style="fill:#ffffff" />
      <path
         d="m 0.62264144,0.85228553 0.006992,-0.001907"
         stroke-width="0.0108707"
         stroke="#ffffff"
         id="path9-2"
         style="fill:#ffffff" />
      <path
         d="m 0.62264144,0.85228553 0.006992,-0.001907"
         stroke-width="0.00362356"
         stroke="#0000ff"
         id="path10-1"
         style="fill:#ffffff" />
      <path
         d="m 1.0163299,0.95720109 0.0051,-0.005149"
         stroke-width="0.0108707"
         stroke="#ffffff"
         id="path11-6"
         style="fill:#ffffff" />
      <path
         d="m 1.0163299,0.95720109 0.0051,-0.005149"
         stroke-width="0.00362356"
         stroke="#0000ff"
         id="path12-8"
         style="fill:#ffffff" />
      <path
         d="m 0.62613728,0.85133117 a 0.40609953,0.40609953 0 0 1 9.693e-4,0.21021063"
         id="path13-5"
         style="fill:#ffffff;stroke-width:0.00362356" />
      <path
         d="M 0.62710708,1.0615418 A 0.10881425,0.10881425 0 0 1 0.62613777,0.85133117"
         id="path14-7"
         style="fill:#ffffff;stroke-width:0.00362356" />
      <path
         d="M 1.0188801,0.954627 A 0.23446175,0.23446175 0 1 1 0.62710708,1.0615418"
         id="path15-6"
         style="fill:#ffffff;stroke-width:0.00362356" />
      <path
         d="M 0.62710708,1.0615418 A 0.40609953,0.40609953 0 0 0 1.0188801,0.954627"
         id="path16-1"
         style="fill:#ffffff;stroke-width:0.00362356" />
      <path
         d="M 0.62613728,0.85133117 A 0.23446175,0.23446175 0 1 1 1.0188801,0.954627"
         id="path17-8"
         style="fill:#ffffff;stroke-width:0.00362356" />
      <path
         d="M 1.0188801,0.954627 A 0.40609953,0.40609953 0 0 0 0.62613728,0.85133117"
         id="path18-9"
         style="fill:#ffffff;stroke-width:0.00362356" />
      <path
         d="m 0.62802878,1.0580373 -0.001843,0.00701"
         stroke-width="0.0108707"
         stroke="#ffffff"
         id="path19-2"
         style="fill:#ffffff" />
      <path
         d="m 0.62802878,1.0580373 -0.001843,0.00701"
         stroke-width="0.00362356"
         stroke="#0000ff"
         id="path20-7"
         style="fill:#ffffff" />
      <path
         d="m 0.62264144,0.85228553 0.006992,-0.001907"
         stroke-width="0.0108707"
         stroke="#ffffff"
         id="path21-9"
         style="fill:#ffffff" />
      <path
         d="m 0.62264144,0.85228553 0.006992,-0.001907"
         stroke-width="0.00362356"
         stroke="#0000ff"
         id="path22-5"
         style="fill:#ffffff" />
      <path
         d="m 1.0163299,0.95720109 0.0051,-0.005149"
         stroke-width="0.0108707"
         stroke="#ffffff"
         id="path23-4"
         style="fill:#ffffff" />
      <path
         d="m 1.0163299,0.95720109 0.0051,-0.005149"
         stroke-width="0.00362356"
         stroke="#0000ff"
         id="path24-3"
         style="fill:#ffffff" />
      <ellipse
         style="fill:#ffffff;fill-opacity:1;stroke:none;stroke-width:0.00433469;stroke-linecap:round;stroke-linejoin:round;stroke-miterlimit:1.1;stroke-opacity:0.75"
         id="path25"
         cx="0.54524332"
         cy="0.94970435"
         rx="0.063657381"
         ry="0.061290666" />
      <path
         style="fill:none;stroke:#0000ff;stroke-width:0.00339709px;stroke-linecap:butt;stroke-linejoin:miter;stroke-opacity:1"
         d="m 0.52019303,0.89113384 0.0485919,-4.3388e-4 v 0"
         id="path26" />
      <path
         style="fill:none;stroke:#0000ff;stroke-width:0.00285403px;stroke-linecap:butt;stroke-linejoin:miter;stroke-opacity:1"
         d="m 0.52751412,1.008835 0.0338065,7.7e-6 v 0"
         id="path26-2" />
      <path
         style="fill:none;stroke:#737373;stroke-width:0.0075px;stroke-linecap:butt;stroke-linejoin:miter;stroke-dasharray:0.03, 0.0075;stroke-dashoffset:0;stroke-opacity:1"
         d="M 0.54387619,0.52457299 V 1.4280983"
         id="path27" />
    </g>
    <g
       id="g35"
       transform="translate(0,0.54675896)">
      <g
         id="g33">
        <path
           d="M 2.0403452,1.0583485 A 0.40609953,0.40609953 0 0 1 2.0393759,0.84813789"
           id="path1-9"
           style="stroke-width:0.00362356" />
        <path
           d="M 2.0393754,0.84813789 A 0.10881425,0.10881425 0 0 1 2.0403447,1.0583485"
           id="path2-8"
           style="stroke-width:0.00362356" />
        <path
           d="m 1.6476024,0.95505269 a 0.23446175,0.23446175 0 1 1 0.391773,-0.1069148"
           id="path3-65"
           style="stroke-width:0.00362356" />
        <path
           d="m 2.0393754,0.84813789 a 0.40609953,0.40609953 0 0 0 -0.391773,0.1069148"
           id="path4-0"
           style="stroke-width:0.00362356" />
        <path
           d="M 2.0403452,1.0583485 A 0.23446175,0.23446175 0 1 1 1.6476024,0.95505269"
           id="path5-2"
           style="stroke-width:0.00362356" />
        <path
           d="M 1.6476024,0.95505269 A 0.40609953,0.40609953 0 0 0 2.0403452,1.0583485"
           id="path6-8"
           style="stroke-width:0.00362356" />
        <path
           d="m 2.0384537,0.85164239 0.00184,-0.00701"
           stroke-width="0.0108707"
           stroke="#ffffff"
           id="path7-6" />
        <path
           d="m 2.0384537,0.85164239 0.00184,-0.00701"
           stroke-width="0.00362356"
           stroke="#0000ff"
           id="path8-0" />
        <path
           d="m 2.0438411,1.0573941 -0.00699,0.00191"
           stroke-width="0.0108707"
           stroke="#ffffff"
           id="path9-24" />
        <path
           d="m 2.0438411,1.0573941 -0.00699,0.00191"
           stroke-width="0.00362356"
           stroke="#0000ff"
           id="path10-8" />
        <path
           d="m 1.6501526,0.95247859 -0.0051,0.00515"
           stroke-width="0.0108707"
           stroke="#ffffff"
           id="path11-65" />
        <path
           d="m 1.6501526,0.95247859 -0.0051,0.00515"
           stroke-width="0.00362356"
           stroke="#0000ff"
           id="path12-0" />
        <path
           d="M 2.0403452,1.0583485 A 0.40609953,0.40609953 0 0 1 2.0393759,0.84813789"
           id="path13-9"
           style="stroke-width:0.00362356" />
        <path
           d="M 2.0393754,0.84813789 A 0.10881425,0.10881425 0 0 1 2.0403447,1.0583485"
           id="path14-0"
           style="stroke-width:0.00362356" />
        <path
           d="m 1.6476024,0.95505269 a 0.23446175,0.23446175 0 1 1 0.391773,-0.1069148"
           id="path15-0"
           style="stroke-width:0.00362356" />
        <path
           d="m 2.0393754,0.84813789 a 0.40609953,0.40609953 0 0 0 -0.391773,0.1069148"
           id="path16-6"
           style="stroke-width:0.00362356" />
        <path
           d="M 2.0403452,1.0583485 A 0.23446175,0.23446175 0 1 1 1.6476024,0.95505269"
           id="path17-1"
           style="stroke-width:0.00362356" />
        <path
           d="M 1.6476024,0.95505269 A 0.40609953,0.40609953 0 0 0 2.0403452,1.0583485"
           id="path18-3"
           style="stroke-width:0.00362356" />
        <path
           d="m 2.0384537,0.85164239 0.00184,-0.00701"
           stroke-width="0.0108707"
           stroke="#ffffff"
           id="path19-8" />
        <path
           d="m 2.0384537,0.85164239 0.00184,-0.00701"
           stroke-width="0.00362356"
           stroke="#0000ff"
           id="path20-9" />
        <path
           d="m 2.0438411,1.0573941 -0.00699,0.00191"
           stroke-width="0.0108707"
           stroke="#ffffff"
           id="path21-3" />
        <path
           d="m 2.0438411,1.0573941 -0.00699,0.00191"
           stroke-width="0.00362356"
           stroke="#0000ff"
           id="path22-4" />
        <path
           d="m 1.6501526,0.95247859 -0.0051,0.00515"
           stroke-width="0.0108707"
           stroke="#ffffff"
           id="path23-46" />
        <path
           d="m 1.6501526,0.95247859 -0.0051,0.00515"
           stroke-width="0.00362356"
           stroke="#0000ff"
           id="path24-0" />
      </g>
      <g
         id="g32">
        <path
           d="M 2.2643008,0.84813359 A 0.40609953,0.40609953 0 0 1 2.2652701,1.0583442"
           id="path1-2-6"
           style="fill:#ffffff;stroke-width:0.00362356" />
        <path
           d="M 2.2652706,1.0583442 A 0.10881425,0.10881425 0 0 1 2.2643013,0.84813359"
           id="path2-7-6"
           style="fill:#ffffff;stroke-width:0.00362356" />
        <path
           d="M 2.6570436,0.95142939 A 0.23446175,0.23446175 0 1 1 2.2652706,1.0583442"
           id="path3-6-1"
           style="fill:#ffffff;stroke-width:0.00362356" />
        <path
           d="M 2.2652706,1.0583442 A 0.40609953,0.40609953 0 0 0 2.6570436,0.95142939"
           id="path4-1-8"
           style="fill:#ffffff;stroke-width:0.00362356" />
        <path
           d="m 2.2643008,0.84813359 a 0.23446175,0.23446175 0 1 1 0.3927428,0.1032958"
           id="path5-4-4"
           style="fill:#ffffff;stroke-width:0.00362356" />
        <path
           d="M 2.6570436,0.95142939 A 0.40609953,0.40609953 0 0 0 2.2643008,0.84813359"
           id="path6-2-9"
           style="fill:#ffffff;stroke-width:0.00362356" />
        <path
           d="m 2.2661923,1.0548397 -0.00184,0.00701"
           stroke-width="0.0108707"
           stroke="#ffffff"
           id="path7-3-6"
           style="fill:#ffffff" />
        <path
           d="m 2.2661923,1.0548397 -0.00184,0.00701"
           stroke-width="0.00362356"
           stroke="#0000ff"
           id="path8-2-3"
           style="fill:#ffffff" />
        <path
           d="m 2.2608049,0.84908789 0.00699,-0.00191"
           stroke-width="0.0108707"
           stroke="#ffffff"
           id="path9-2-7"
           style="fill:#ffffff" />
        <path
           d="m 2.2608049,0.84908789 0.00699,-0.00191"
           stroke-width="0.00362356"
           stroke="#0000ff"
           id="path10-1-8"
           style="fill:#ffffff" />
        <path
           d="m 2.6544934,0.95400349 0.0051,-0.00515"
           stroke-width="0.0108707"
           stroke="#ffffff"
           id="path11-6-8"
           style="fill:#ffffff" />
        <path
           d="m 2.6544934,0.95400349 0.0051,-0.00515"
           stroke-width="0.00362356"
           stroke="#0000ff"
           id="path12-8-2"
           style="fill:#ffffff" />
        <path
           d="M 2.2643008,0.84813359 A 0.40609953,0.40609953 0 0 1 2.2652701,1.0583442"
           id="path13-5-9"
           style="fill:#ffffff;stroke-width:0.00362356" />
        <path
           d="M 2.2652706,1.0583442 A 0.10881425,0.10881425 0 0 1 2.2643013,0.84813359"
           id="path14-7-1"
           style="fill:#ffffff;stroke-width:0.00362356" />
        <path
           d="M 2.6570436,0.95142939 A 0.23446175,0.23446175 0 1 1 2.2652706,1.0583442"
           id="path15-6-3"
           style="fill:#ffffff;stroke-width:0.00362356" />
        <path
           d="M 2.2652706,1.0583442 A 0.40609953,0.40609953 0 0 0 2.6570436,0.95142939"
           id="path16-1-5"
           style="fill:#ffffff;stroke-width:0.00362356" />
        <path
           d="m 2.2643008,0.84813359 a 0.23446175,0.23446175 0 1 1 0.3927428,0.1032958"
           id="path17-8-9"
           style="fill:#ffffff;stroke-width:0.00362356" />
        <path
           d="M 2.6570436,0.95142939 A 0.40609953,0.40609953 0 0 0 2.2643008,0.84813359"
           id="path18-9-8"
           style="fill:#ffffff;stroke-width:0.00362356" />
        <path
           d="m 2.2661923,1.0548397 -0.00184,0.00701"
           stroke-width="0.0108707"
           stroke="#ffffff"
           id="path19-2-4"
           style="fill:#ffffff" />
        <path
           d="m 2.2661923,1.0548397 -0.00184,0.00701"
           stroke-width="0.00362356"
           stroke="#0000ff"
           id="path20-7-0"
           style="fill:#ffffff" />
        <path
           d="m 2.2608049,0.84908789 0.00699,-0.00191"
           stroke-width="0.0108707"
           stroke="#ffffff"
           id="path21-9-7"
           style="fill:#ffffff" />
        <path
           d="m 2.2608049,0.84908789 0.00699,-0.00191"
           stroke-width="0.00362356"
           stroke="#0000ff"
           id="path22-5-6"
           style="fill:#ffffff" />
        <path
           d="m 2.6544934,0.95400349 0.0051,-0.00515"
           stroke-width="0.0108707"
           stroke="#ffffff"
           id="path23-4-3"
           style="fill:#ffffff" />
        <path
           d="m 2.6544934,0.95400349 0.0051,-0.00515"
           stroke-width="0.00362356"
           stroke="#0000ff"
           id="path24-3-6"
           style="fill:#ffffff" />
      </g>
    </g>
    <g
       id="g31"
       transform="translate(-0.11540384,0.54701987)">
      <g
         id="g30"
         transform="translate(0.0159169)">
        <path
           style="fill:none;stroke:#000000;stroke-width:0.0075px;stroke-linecap:round;stroke-linejoin:miter;stroke-opacity:1"
           d="M 1.2088123,0.94731802 H 1.651341 L 1.640924,0.93690062"
           id="path28" />
        <path
           style="fill:none;stroke:#000000;stroke-width:0.0075px;stroke-linecap:round;stroke-linejoin:miter;stroke-opacity:1"
           d="M 1.2088123,0.95864224 H 1.651341 l -0.010417,0.0104174"
           id="path28-3" />
      </g>
      <g
         id="g29"
         transform="translate(0,-5.6064e-4)">
        <path
           style="fill:#ff0000;fill-rule:nonzero;stroke:none;stroke-width:0.0075px;stroke-linecap:butt;stroke-linejoin:miter;stroke-opacity:1"
           d="m 1.3639846,0.87260535 c 0.031671,0.0316711 0.1231693,0.13019975 0.1548405,0.16187085 0.00365,-0.00338 0.00706,-0.007 0.00703,-0.00703 C 1.4941844,0.99577463 1.3956557,0.90427647 1.3639846,0.87260535 Z"
           id="path29-1"
           inkscape:path-effect="#path-effect29-4"
           inkscape:original-d="M 1.3639846,0.87260535 1.5225096,1.0311303"
           transform="matrix(-1,0,0,1,2.8935653,0)" />
        <path
           style="fill:#ff0000;fill-rule:nonzero;stroke:none;stroke-width:0.0075px;stroke-linecap:butt;stroke-linejoin:miter;stroke-opacity:1"
           d="m 1.3639846,0.87260535 c 0.031671,0.0316711 0.1231693,0.13019975 0.1548405,0.16187085 0.00365,-0.00338 0.00706,-0.007 0.00703,-0.00703 C 1.4941844,0.99577463 1.3956557,0.90427647 1.3639846,0.87260535 Z"
           id="path29-1-7"
           inkscape:path-effect="#path-effect29-4-3"
           inkscape:original-d="M 1.3639846,0.87260535 1.5225096,1.0311303"
           transform="translate(0.00372486)" />
      </g>
      <g
         id="g29-7"
         transform="matrix(1,0,0,-1,0,1.9065209)">
        <path
           style="fill:#ff0000;fill-rule:nonzero;stroke:none;stroke-width:0.0075px;stroke-linecap:butt;stroke-linejoin:miter;stroke-opacity:1"
           d="m 1.3639846,0.87260535 c 0.031671,0.0316711 0.1231693,0.13019975 0.1548405,0.16187085 0.00365,-0.00338 0.00706,-0.007 0.00703,-0.00703 C 1.4941844,0.99577463 1.3956557,0.90427647 1.3639846,0.87260535 Z"
           id="path29-1-9"
           inkscape:path-effect="#path-effect29-4-4"
           inkscape:original-d="M 1.3639846,0.87260535 1.5225096,1.0311303"
           transform="matrix(-1,0,0,1,2.8935653,0)" />
        <path
           style="fill:#ff0000;fill-rule:nonzero;stroke:none;stroke-width:0.0075px;stroke-linecap:butt;stroke-linejoin:miter;stroke-opacity:1"
           d="m 1.3639846,0.87260535 c 0.031671,0.0316711 0.1231693,0.13019975 0.1548405,0.16187085 0.00365,-0.00338 0.00706,-0.007 0.00703,-0.00703 C 1.4941844,0.99577463 1.3956557,0.90427647 1.3639846,0.87260535 Z"
           id="path29-1-7-3"
           inkscape:path-effect="#path-effect29-4-3-2"
           inkscape:original-d="M 1.3639846,0.87260535 1.5225096,1.0311303"
           transform="translate(0.00372486)" />
      </g>
    </g>
  </g>
</svg>
